<mxfile host="app.diagrams.net" modified="2023-10-11T22:33:08.774Z" agent="Mozilla/5.0 (Macintosh; Intel Mac OS X 10_15_7) AppleWebKit/537.36 (KHTML, like Gecko) Chrome/117.0.0.0 Safari/537.36" etag="tQbqmMK3omSiCqZN2pnr" version="22.0.4" type="device">
  <diagram id="R2lEEEUBdFMjLlhIrx00" name="Page-1">
    <mxGraphModel dx="2611" dy="1104" grid="0" gridSize="10" guides="1" tooltips="1" connect="1" arrows="1" fold="1" page="1" pageScale="1" pageWidth="1700" pageHeight="1100" math="0" shadow="0" extFonts="Permanent Marker^https://fonts.googleapis.com/css?family=Permanent+Marker">
      <root>
        <mxCell id="0" />
        <mxCell id="1" parent="0" />
        <mxCell id="C-vyLk0tnHw3VtMMgP7b-2" value="Major/Minor" style="shape=table;startSize=30;container=1;collapsible=1;childLayout=tableLayout;fixedRows=1;rowLines=0;fontStyle=1;align=center;resizeLast=1;" parent="1" vertex="1">
          <mxGeometry x="328" y="26" width="135" height="121" as="geometry" />
        </mxCell>
        <mxCell id="C-vyLk0tnHw3VtMMgP7b-3" value="" style="shape=partialRectangle;collapsible=0;dropTarget=0;pointerEvents=0;fillColor=none;points=[[0,0.5],[1,0.5]];portConstraint=eastwest;top=0;left=0;right=0;bottom=1;" parent="C-vyLk0tnHw3VtMMgP7b-2" vertex="1">
          <mxGeometry y="30" width="135" height="30" as="geometry" />
        </mxCell>
        <mxCell id="C-vyLk0tnHw3VtMMgP7b-4" value="PK" style="shape=partialRectangle;overflow=hidden;connectable=0;fillColor=none;top=0;left=0;bottom=0;right=0;fontStyle=1;" parent="C-vyLk0tnHw3VtMMgP7b-3" vertex="1">
          <mxGeometry width="30" height="30" as="geometry">
            <mxRectangle width="30" height="30" as="alternateBounds" />
          </mxGeometry>
        </mxCell>
        <mxCell id="C-vyLk0tnHw3VtMMgP7b-5" value="AreaofStudyID" style="shape=partialRectangle;overflow=hidden;connectable=0;fillColor=none;top=0;left=0;bottom=0;right=0;align=left;spacingLeft=6;fontStyle=5;" parent="C-vyLk0tnHw3VtMMgP7b-3" vertex="1">
          <mxGeometry x="30" width="105" height="30" as="geometry">
            <mxRectangle width="105" height="30" as="alternateBounds" />
          </mxGeometry>
        </mxCell>
        <mxCell id="C-vyLk0tnHw3VtMMgP7b-6" value="" style="shape=partialRectangle;collapsible=0;dropTarget=0;pointerEvents=0;fillColor=none;points=[[0,0.5],[1,0.5]];portConstraint=eastwest;top=0;left=0;right=0;bottom=0;" parent="C-vyLk0tnHw3VtMMgP7b-2" vertex="1">
          <mxGeometry y="60" width="135" height="30" as="geometry" />
        </mxCell>
        <mxCell id="C-vyLk0tnHw3VtMMgP7b-7" value="FK1" style="shape=partialRectangle;overflow=hidden;connectable=0;fillColor=none;top=0;left=0;bottom=0;right=0;fontStyle=1" parent="C-vyLk0tnHw3VtMMgP7b-6" vertex="1">
          <mxGeometry width="30" height="30" as="geometry">
            <mxRectangle width="30" height="30" as="alternateBounds" />
          </mxGeometry>
        </mxCell>
        <mxCell id="C-vyLk0tnHw3VtMMgP7b-8" value="CollegeID" style="shape=partialRectangle;overflow=hidden;connectable=0;fillColor=none;top=0;left=0;bottom=0;right=0;align=left;spacingLeft=6;fontStyle=1" parent="C-vyLk0tnHw3VtMMgP7b-6" vertex="1">
          <mxGeometry x="30" width="105" height="30" as="geometry">
            <mxRectangle width="105" height="30" as="alternateBounds" />
          </mxGeometry>
        </mxCell>
        <mxCell id="C-vyLk0tnHw3VtMMgP7b-9" value="" style="shape=partialRectangle;collapsible=0;dropTarget=0;pointerEvents=0;fillColor=none;points=[[0,0.5],[1,0.5]];portConstraint=eastwest;top=0;left=0;right=0;bottom=0;" parent="C-vyLk0tnHw3VtMMgP7b-2" vertex="1">
          <mxGeometry y="90" width="135" height="30" as="geometry" />
        </mxCell>
        <mxCell id="C-vyLk0tnHw3VtMMgP7b-10" value="" style="shape=partialRectangle;overflow=hidden;connectable=0;fillColor=none;top=0;left=0;bottom=0;right=0;" parent="C-vyLk0tnHw3VtMMgP7b-9" vertex="1">
          <mxGeometry width="30" height="30" as="geometry">
            <mxRectangle width="30" height="30" as="alternateBounds" />
          </mxGeometry>
        </mxCell>
        <mxCell id="C-vyLk0tnHw3VtMMgP7b-11" value="StudyTitle" style="shape=partialRectangle;overflow=hidden;connectable=0;fillColor=none;top=0;left=0;bottom=0;right=0;align=left;spacingLeft=6;" parent="C-vyLk0tnHw3VtMMgP7b-9" vertex="1">
          <mxGeometry x="30" width="105" height="30" as="geometry">
            <mxRectangle width="105" height="30" as="alternateBounds" />
          </mxGeometry>
        </mxCell>
        <mxCell id="LMtuo78VedRBWPzTzkMf-536" style="edgeStyle=orthogonalEdgeStyle;rounded=0;orthogonalLoop=1;jettySize=auto;html=1;entryX=0.25;entryY=0;entryDx=0;entryDy=0;" edge="1" parent="1" source="C-vyLk0tnHw3VtMMgP7b-13" target="LMtuo78VedRBWPzTzkMf-76">
          <mxGeometry relative="1" as="geometry">
            <Array as="points">
              <mxPoint x="597" y="213" />
              <mxPoint x="742" y="213" />
            </Array>
          </mxGeometry>
        </mxCell>
        <mxCell id="LMtuo78VedRBWPzTzkMf-559" style="edgeStyle=orthogonalEdgeStyle;rounded=0;orthogonalLoop=1;jettySize=auto;html=1;entryX=0;entryY=0.5;entryDx=0;entryDy=0;" edge="1" parent="1" source="C-vyLk0tnHw3VtMMgP7b-13" target="LMtuo78VedRBWPzTzkMf-83">
          <mxGeometry relative="1" as="geometry">
            <Array as="points">
              <mxPoint x="648" y="406" />
            </Array>
          </mxGeometry>
        </mxCell>
        <mxCell id="C-vyLk0tnHw3VtMMgP7b-13" value="Prerequisites" style="shape=table;startSize=30;container=1;collapsible=1;childLayout=tableLayout;fixedRows=1;rowLines=0;fontStyle=1;align=center;resizeLast=1;" parent="1" vertex="1">
          <mxGeometry x="533" y="23" width="126" height="180" as="geometry" />
        </mxCell>
        <mxCell id="C-vyLk0tnHw3VtMMgP7b-14" value="" style="shape=partialRectangle;collapsible=0;dropTarget=0;pointerEvents=0;fillColor=none;points=[[0,0.5],[1,0.5]];portConstraint=eastwest;top=0;left=0;right=0;bottom=1;" parent="C-vyLk0tnHw3VtMMgP7b-13" vertex="1">
          <mxGeometry y="30" width="126" height="30" as="geometry" />
        </mxCell>
        <mxCell id="C-vyLk0tnHw3VtMMgP7b-15" value="PK" style="shape=partialRectangle;overflow=hidden;connectable=0;fillColor=none;top=0;left=0;bottom=0;right=0;fontStyle=1;" parent="C-vyLk0tnHw3VtMMgP7b-14" vertex="1">
          <mxGeometry width="30" height="30" as="geometry">
            <mxRectangle width="30" height="30" as="alternateBounds" />
          </mxGeometry>
        </mxCell>
        <mxCell id="C-vyLk0tnHw3VtMMgP7b-16" value="PrereqID" style="shape=partialRectangle;overflow=hidden;connectable=0;fillColor=none;top=0;left=0;bottom=0;right=0;align=left;spacingLeft=6;fontStyle=5;" parent="C-vyLk0tnHw3VtMMgP7b-14" vertex="1">
          <mxGeometry x="30" width="96" height="30" as="geometry">
            <mxRectangle width="96" height="30" as="alternateBounds" />
          </mxGeometry>
        </mxCell>
        <mxCell id="C-vyLk0tnHw3VtMMgP7b-17" value="" style="shape=partialRectangle;collapsible=0;dropTarget=0;pointerEvents=0;fillColor=none;points=[[0,0.5],[1,0.5]];portConstraint=eastwest;top=0;left=0;right=0;bottom=0;fontStyle=1" parent="C-vyLk0tnHw3VtMMgP7b-13" vertex="1">
          <mxGeometry y="60" width="126" height="30" as="geometry" />
        </mxCell>
        <mxCell id="C-vyLk0tnHw3VtMMgP7b-18" value="FK1" style="shape=partialRectangle;overflow=hidden;connectable=0;fillColor=none;top=0;left=0;bottom=0;right=0;fontStyle=1" parent="C-vyLk0tnHw3VtMMgP7b-17" vertex="1">
          <mxGeometry width="30" height="30" as="geometry">
            <mxRectangle width="30" height="30" as="alternateBounds" />
          </mxGeometry>
        </mxCell>
        <mxCell id="C-vyLk0tnHw3VtMMgP7b-19" value="ParentCode" style="shape=partialRectangle;overflow=hidden;connectable=0;fillColor=none;top=0;left=0;bottom=0;right=0;align=left;spacingLeft=6;fontStyle=1" parent="C-vyLk0tnHw3VtMMgP7b-17" vertex="1">
          <mxGeometry x="30" width="96" height="30" as="geometry">
            <mxRectangle width="96" height="30" as="alternateBounds" />
          </mxGeometry>
        </mxCell>
        <mxCell id="C-vyLk0tnHw3VtMMgP7b-20" value="" style="shape=partialRectangle;collapsible=0;dropTarget=0;pointerEvents=0;fillColor=none;points=[[0,0.5],[1,0.5]];portConstraint=eastwest;top=0;left=0;right=0;bottom=0;" parent="C-vyLk0tnHw3VtMMgP7b-13" vertex="1">
          <mxGeometry y="90" width="126" height="30" as="geometry" />
        </mxCell>
        <mxCell id="C-vyLk0tnHw3VtMMgP7b-21" value="FK2" style="shape=partialRectangle;overflow=hidden;connectable=0;fillColor=none;top=0;left=0;bottom=0;right=0;fontStyle=1" parent="C-vyLk0tnHw3VtMMgP7b-20" vertex="1">
          <mxGeometry width="30" height="30" as="geometry">
            <mxRectangle width="30" height="30" as="alternateBounds" />
          </mxGeometry>
        </mxCell>
        <mxCell id="C-vyLk0tnHw3VtMMgP7b-22" value="ParentNumber" style="shape=partialRectangle;overflow=hidden;connectable=0;fillColor=none;top=0;left=0;bottom=0;right=0;align=left;spacingLeft=6;fontStyle=1" parent="C-vyLk0tnHw3VtMMgP7b-20" vertex="1">
          <mxGeometry x="30" width="96" height="30" as="geometry">
            <mxRectangle width="96" height="30" as="alternateBounds" />
          </mxGeometry>
        </mxCell>
        <mxCell id="LMtuo78VedRBWPzTzkMf-1" value="" style="shape=partialRectangle;collapsible=0;dropTarget=0;pointerEvents=0;fillColor=none;points=[[0,0.5],[1,0.5]];portConstraint=eastwest;top=0;left=0;right=0;bottom=0;" vertex="1" parent="C-vyLk0tnHw3VtMMgP7b-13">
          <mxGeometry y="120" width="126" height="30" as="geometry" />
        </mxCell>
        <mxCell id="LMtuo78VedRBWPzTzkMf-2" value="FK3" style="shape=partialRectangle;overflow=hidden;connectable=0;fillColor=none;top=0;left=0;bottom=0;right=0;fontStyle=1" vertex="1" parent="LMtuo78VedRBWPzTzkMf-1">
          <mxGeometry width="30" height="30" as="geometry">
            <mxRectangle width="30" height="30" as="alternateBounds" />
          </mxGeometry>
        </mxCell>
        <mxCell id="LMtuo78VedRBWPzTzkMf-3" value="ChildCode" style="shape=partialRectangle;overflow=hidden;connectable=0;fillColor=none;top=0;left=0;bottom=0;right=0;align=left;spacingLeft=6;fontStyle=1" vertex="1" parent="LMtuo78VedRBWPzTzkMf-1">
          <mxGeometry x="30" width="96" height="30" as="geometry">
            <mxRectangle width="96" height="30" as="alternateBounds" />
          </mxGeometry>
        </mxCell>
        <mxCell id="LMtuo78VedRBWPzTzkMf-4" value="" style="shape=partialRectangle;collapsible=0;dropTarget=0;pointerEvents=0;fillColor=none;points=[[0,0.5],[1,0.5]];portConstraint=eastwest;top=0;left=0;right=0;bottom=0;" vertex="1" parent="C-vyLk0tnHw3VtMMgP7b-13">
          <mxGeometry y="150" width="126" height="30" as="geometry" />
        </mxCell>
        <mxCell id="LMtuo78VedRBWPzTzkMf-5" value="FK4" style="shape=partialRectangle;overflow=hidden;connectable=0;fillColor=none;top=0;left=0;bottom=0;right=0;fontStyle=1" vertex="1" parent="LMtuo78VedRBWPzTzkMf-4">
          <mxGeometry width="30" height="30" as="geometry">
            <mxRectangle width="30" height="30" as="alternateBounds" />
          </mxGeometry>
        </mxCell>
        <mxCell id="LMtuo78VedRBWPzTzkMf-6" value="ChildNumber" style="shape=partialRectangle;overflow=hidden;connectable=0;fillColor=none;top=0;left=0;bottom=0;right=0;align=left;spacingLeft=6;fontStyle=1" vertex="1" parent="LMtuo78VedRBWPzTzkMf-4">
          <mxGeometry x="30" width="96" height="30" as="geometry">
            <mxRectangle width="96" height="30" as="alternateBounds" />
          </mxGeometry>
        </mxCell>
        <mxCell id="C-vyLk0tnHw3VtMMgP7b-23" value="College" style="shape=table;startSize=30;container=1;collapsible=1;childLayout=tableLayout;fixedRows=1;rowLines=0;fontStyle=1;align=center;resizeLast=1;" parent="1" vertex="1">
          <mxGeometry x="23" y="21" width="131" height="90" as="geometry" />
        </mxCell>
        <mxCell id="C-vyLk0tnHw3VtMMgP7b-24" value="" style="shape=partialRectangle;collapsible=0;dropTarget=0;pointerEvents=0;fillColor=none;points=[[0,0.5],[1,0.5]];portConstraint=eastwest;top=0;left=0;right=0;bottom=1;" parent="C-vyLk0tnHw3VtMMgP7b-23" vertex="1">
          <mxGeometry y="30" width="131" height="30" as="geometry" />
        </mxCell>
        <mxCell id="C-vyLk0tnHw3VtMMgP7b-25" value="PK" style="shape=partialRectangle;overflow=hidden;connectable=0;fillColor=none;top=0;left=0;bottom=0;right=0;fontStyle=1;" parent="C-vyLk0tnHw3VtMMgP7b-24" vertex="1">
          <mxGeometry width="30" height="30" as="geometry">
            <mxRectangle width="30" height="30" as="alternateBounds" />
          </mxGeometry>
        </mxCell>
        <mxCell id="C-vyLk0tnHw3VtMMgP7b-26" value="CollegeID" style="shape=partialRectangle;overflow=hidden;connectable=0;fillColor=none;top=0;left=0;bottom=0;right=0;align=left;spacingLeft=6;fontStyle=5;" parent="C-vyLk0tnHw3VtMMgP7b-24" vertex="1">
          <mxGeometry x="30" width="101" height="30" as="geometry">
            <mxRectangle width="101" height="30" as="alternateBounds" />
          </mxGeometry>
        </mxCell>
        <mxCell id="C-vyLk0tnHw3VtMMgP7b-27" value="" style="shape=partialRectangle;collapsible=0;dropTarget=0;pointerEvents=0;fillColor=none;points=[[0,0.5],[1,0.5]];portConstraint=eastwest;top=0;left=0;right=0;bottom=0;" parent="C-vyLk0tnHw3VtMMgP7b-23" vertex="1">
          <mxGeometry y="60" width="131" height="30" as="geometry" />
        </mxCell>
        <mxCell id="C-vyLk0tnHw3VtMMgP7b-28" value="" style="shape=partialRectangle;overflow=hidden;connectable=0;fillColor=none;top=0;left=0;bottom=0;right=0;" parent="C-vyLk0tnHw3VtMMgP7b-27" vertex="1">
          <mxGeometry width="30" height="30" as="geometry">
            <mxRectangle width="30" height="30" as="alternateBounds" />
          </mxGeometry>
        </mxCell>
        <mxCell id="C-vyLk0tnHw3VtMMgP7b-29" value="CollegeName" style="shape=partialRectangle;overflow=hidden;connectable=0;fillColor=none;top=0;left=0;bottom=0;right=0;align=left;spacingLeft=6;" parent="C-vyLk0tnHw3VtMMgP7b-27" vertex="1">
          <mxGeometry x="30" width="101" height="30" as="geometry">
            <mxRectangle width="101" height="30" as="alternateBounds" />
          </mxGeometry>
        </mxCell>
        <mxCell id="LMtuo78VedRBWPzTzkMf-7" value="Department" style="shape=table;startSize=30;container=1;collapsible=1;childLayout=tableLayout;fixedRows=1;rowLines=0;fontStyle=1;align=center;resizeLast=1;" vertex="1" parent="1">
          <mxGeometry x="270" y="401" width="128" height="90" as="geometry" />
        </mxCell>
        <mxCell id="LMtuo78VedRBWPzTzkMf-8" value="" style="shape=partialRectangle;collapsible=0;dropTarget=0;pointerEvents=0;fillColor=none;points=[[0,0.5],[1,0.5]];portConstraint=eastwest;top=0;left=0;right=0;bottom=1;" vertex="1" parent="LMtuo78VedRBWPzTzkMf-7">
          <mxGeometry y="30" width="128" height="30" as="geometry" />
        </mxCell>
        <mxCell id="LMtuo78VedRBWPzTzkMf-9" value="PK" style="shape=partialRectangle;overflow=hidden;connectable=0;fillColor=none;top=0;left=0;bottom=0;right=0;fontStyle=1;" vertex="1" parent="LMtuo78VedRBWPzTzkMf-8">
          <mxGeometry width="30" height="30" as="geometry">
            <mxRectangle width="30" height="30" as="alternateBounds" />
          </mxGeometry>
        </mxCell>
        <mxCell id="LMtuo78VedRBWPzTzkMf-10" value="DepartmentID" style="shape=partialRectangle;overflow=hidden;connectable=0;fillColor=none;top=0;left=0;bottom=0;right=0;align=left;spacingLeft=6;fontStyle=5;" vertex="1" parent="LMtuo78VedRBWPzTzkMf-8">
          <mxGeometry x="30" width="98" height="30" as="geometry">
            <mxRectangle width="98" height="30" as="alternateBounds" />
          </mxGeometry>
        </mxCell>
        <mxCell id="LMtuo78VedRBWPzTzkMf-11" value="" style="shape=partialRectangle;collapsible=0;dropTarget=0;pointerEvents=0;fillColor=none;points=[[0,0.5],[1,0.5]];portConstraint=eastwest;top=0;left=0;right=0;bottom=0;" vertex="1" parent="LMtuo78VedRBWPzTzkMf-7">
          <mxGeometry y="60" width="128" height="30" as="geometry" />
        </mxCell>
        <mxCell id="LMtuo78VedRBWPzTzkMf-12" value="" style="shape=partialRectangle;overflow=hidden;connectable=0;fillColor=none;top=0;left=0;bottom=0;right=0;" vertex="1" parent="LMtuo78VedRBWPzTzkMf-11">
          <mxGeometry width="30" height="30" as="geometry">
            <mxRectangle width="30" height="30" as="alternateBounds" />
          </mxGeometry>
        </mxCell>
        <mxCell id="LMtuo78VedRBWPzTzkMf-13" value="Text" style="shape=partialRectangle;overflow=hidden;connectable=0;fillColor=none;top=0;left=0;bottom=0;right=0;align=left;spacingLeft=6;" vertex="1" parent="LMtuo78VedRBWPzTzkMf-11">
          <mxGeometry x="30" width="98" height="30" as="geometry">
            <mxRectangle width="98" height="30" as="alternateBounds" />
          </mxGeometry>
        </mxCell>
        <mxCell id="LMtuo78VedRBWPzTzkMf-526" style="edgeStyle=orthogonalEdgeStyle;rounded=0;orthogonalLoop=1;jettySize=auto;html=1;entryX=0.5;entryY=0;entryDx=0;entryDy=0;" edge="1" parent="1" source="LMtuo78VedRBWPzTzkMf-34" target="LMtuo78VedRBWPzTzkMf-205">
          <mxGeometry relative="1" as="geometry">
            <Array as="points">
              <mxPoint x="329" y="383" />
              <mxPoint x="543" y="383" />
            </Array>
          </mxGeometry>
        </mxCell>
        <mxCell id="LMtuo78VedRBWPzTzkMf-34" value="StudentInfo" style="shape=table;startSize=30;container=1;collapsible=1;childLayout=tableLayout;fixedRows=1;rowLines=0;fontStyle=1;align=center;resizeLast=1;" vertex="1" parent="1">
          <mxGeometry x="246" y="187.5" width="167" height="159" as="geometry" />
        </mxCell>
        <mxCell id="LMtuo78VedRBWPzTzkMf-35" value="" style="shape=partialRectangle;collapsible=0;dropTarget=0;pointerEvents=0;fillColor=none;points=[[0,0.5],[1,0.5]];portConstraint=eastwest;top=0;left=0;right=0;bottom=1;" vertex="1" parent="LMtuo78VedRBWPzTzkMf-34">
          <mxGeometry y="30" width="167" height="30" as="geometry" />
        </mxCell>
        <mxCell id="LMtuo78VedRBWPzTzkMf-36" value="PK,FK1" style="shape=partialRectangle;overflow=hidden;connectable=0;fillColor=none;top=0;left=0;bottom=0;right=0;fontStyle=1;" vertex="1" parent="LMtuo78VedRBWPzTzkMf-35">
          <mxGeometry width="63.75" height="30" as="geometry">
            <mxRectangle width="63.75" height="30" as="alternateBounds" />
          </mxGeometry>
        </mxCell>
        <mxCell id="LMtuo78VedRBWPzTzkMf-37" value="StudentID" style="shape=partialRectangle;overflow=hidden;connectable=0;fillColor=none;top=0;left=0;bottom=0;right=0;align=left;spacingLeft=6;fontStyle=5;" vertex="1" parent="LMtuo78VedRBWPzTzkMf-35">
          <mxGeometry x="63.75" width="103.25" height="30" as="geometry">
            <mxRectangle width="103.25" height="30" as="alternateBounds" />
          </mxGeometry>
        </mxCell>
        <mxCell id="LMtuo78VedRBWPzTzkMf-38" value="" style="shape=partialRectangle;collapsible=0;dropTarget=0;pointerEvents=0;fillColor=none;points=[[0,0.5],[1,0.5]];portConstraint=eastwest;top=0;left=0;right=0;bottom=0;" vertex="1" parent="LMtuo78VedRBWPzTzkMf-34">
          <mxGeometry y="60" width="167" height="33" as="geometry" />
        </mxCell>
        <mxCell id="LMtuo78VedRBWPzTzkMf-39" value="FK2" style="shape=partialRectangle;overflow=hidden;connectable=0;fillColor=none;top=0;left=0;bottom=0;right=0;fontStyle=1" vertex="1" parent="LMtuo78VedRBWPzTzkMf-38">
          <mxGeometry width="63.75" height="33" as="geometry">
            <mxRectangle width="63.75" height="33" as="alternateBounds" />
          </mxGeometry>
        </mxCell>
        <mxCell id="LMtuo78VedRBWPzTzkMf-40" value="StudentTypeID" style="shape=partialRectangle;overflow=hidden;connectable=0;fillColor=none;top=0;left=0;bottom=0;right=0;align=left;spacingLeft=6;fontStyle=1" vertex="1" parent="LMtuo78VedRBWPzTzkMf-38">
          <mxGeometry x="63.75" width="103.25" height="33" as="geometry">
            <mxRectangle width="103.25" height="33" as="alternateBounds" />
          </mxGeometry>
        </mxCell>
        <mxCell id="LMtuo78VedRBWPzTzkMf-41" value="" style="shape=partialRectangle;collapsible=0;dropTarget=0;pointerEvents=0;fillColor=none;points=[[0,0.5],[1,0.5]];portConstraint=eastwest;top=0;left=0;right=0;bottom=0;" vertex="1" parent="LMtuo78VedRBWPzTzkMf-34">
          <mxGeometry y="93" width="167" height="33" as="geometry" />
        </mxCell>
        <mxCell id="LMtuo78VedRBWPzTzkMf-42" value="FK3" style="shape=partialRectangle;overflow=hidden;connectable=0;fillColor=none;top=0;left=0;bottom=0;right=0;fontStyle=1" vertex="1" parent="LMtuo78VedRBWPzTzkMf-41">
          <mxGeometry width="63.75" height="33" as="geometry">
            <mxRectangle width="63.75" height="33" as="alternateBounds" />
          </mxGeometry>
        </mxCell>
        <mxCell id="LMtuo78VedRBWPzTzkMf-43" value="StudentStatusID" style="shape=partialRectangle;overflow=hidden;connectable=0;fillColor=none;top=0;left=0;bottom=0;right=0;align=left;spacingLeft=6;fontStyle=1" vertex="1" parent="LMtuo78VedRBWPzTzkMf-41">
          <mxGeometry x="63.75" width="103.25" height="33" as="geometry">
            <mxRectangle width="103.25" height="33" as="alternateBounds" />
          </mxGeometry>
        </mxCell>
        <mxCell id="LMtuo78VedRBWPzTzkMf-44" value="" style="shape=partialRectangle;collapsible=0;dropTarget=0;pointerEvents=0;fillColor=none;points=[[0,0.5],[1,0.5]];portConstraint=eastwest;top=0;left=0;right=0;bottom=0;" vertex="1" parent="LMtuo78VedRBWPzTzkMf-34">
          <mxGeometry y="126" width="167" height="33" as="geometry" />
        </mxCell>
        <mxCell id="LMtuo78VedRBWPzTzkMf-45" value="" style="shape=partialRectangle;overflow=hidden;connectable=0;fillColor=none;top=0;left=0;bottom=0;right=0;" vertex="1" parent="LMtuo78VedRBWPzTzkMf-44">
          <mxGeometry width="63.75" height="33" as="geometry">
            <mxRectangle width="63.75" height="33" as="alternateBounds" />
          </mxGeometry>
        </mxCell>
        <mxCell id="LMtuo78VedRBWPzTzkMf-46" value="IsGraduate" style="shape=partialRectangle;overflow=hidden;connectable=0;fillColor=none;top=0;left=0;bottom=0;right=0;align=left;spacingLeft=6;" vertex="1" parent="LMtuo78VedRBWPzTzkMf-44">
          <mxGeometry x="63.75" width="103.25" height="33" as="geometry">
            <mxRectangle width="103.25" height="33" as="alternateBounds" />
          </mxGeometry>
        </mxCell>
        <mxCell id="LMtuo78VedRBWPzTzkMf-525" style="edgeStyle=orthogonalEdgeStyle;rounded=0;orthogonalLoop=1;jettySize=auto;html=1;entryX=1;entryY=0.5;entryDx=0;entryDy=0;" edge="1" parent="1" source="LMtuo78VedRBWPzTzkMf-60" target="C-vyLk0tnHw3VtMMgP7b-3">
          <mxGeometry relative="1" as="geometry">
            <Array as="points">
              <mxPoint x="507" y="71" />
            </Array>
          </mxGeometry>
        </mxCell>
        <mxCell id="LMtuo78VedRBWPzTzkMf-60" value="StudentAreaofStudy" style="shape=table;startSize=30;container=1;collapsible=1;childLayout=tableLayout;fixedRows=1;rowLines=0;fontStyle=1;align=center;resizeLast=1;" vertex="1" parent="1">
          <mxGeometry x="482" y="246" width="139.25" height="130" as="geometry" />
        </mxCell>
        <mxCell id="LMtuo78VedRBWPzTzkMf-61" value="" style="shape=partialRectangle;collapsible=0;dropTarget=0;pointerEvents=0;fillColor=none;points=[[0,0.5],[1,0.5]];portConstraint=eastwest;top=0;left=0;right=0;bottom=1;" vertex="1" parent="LMtuo78VedRBWPzTzkMf-60">
          <mxGeometry y="30" width="139.25" height="56" as="geometry" />
        </mxCell>
        <mxCell id="LMtuo78VedRBWPzTzkMf-62" value="PK,FK1&#xa;&#xa;PK,FK2" style="shape=partialRectangle;overflow=hidden;connectable=0;fillColor=none;top=0;left=0;bottom=0;right=0;fontStyle=1;" vertex="1" parent="LMtuo78VedRBWPzTzkMf-61">
          <mxGeometry width="63.75" height="56" as="geometry">
            <mxRectangle width="63.75" height="56" as="alternateBounds" />
          </mxGeometry>
        </mxCell>
        <mxCell id="LMtuo78VedRBWPzTzkMf-63" value="StudentID&#xa;&#xa;AreaID" style="shape=partialRectangle;overflow=hidden;connectable=0;fillColor=none;top=0;left=0;bottom=0;right=0;align=left;spacingLeft=6;fontStyle=5;" vertex="1" parent="LMtuo78VedRBWPzTzkMf-61">
          <mxGeometry x="63.75" width="75.5" height="56" as="geometry">
            <mxRectangle width="75.5" height="56" as="alternateBounds" />
          </mxGeometry>
        </mxCell>
        <mxCell id="LMtuo78VedRBWPzTzkMf-64" value="" style="shape=partialRectangle;collapsible=0;dropTarget=0;pointerEvents=0;fillColor=none;points=[[0,0.5],[1,0.5]];portConstraint=eastwest;top=0;left=0;right=0;bottom=0;" vertex="1" parent="LMtuo78VedRBWPzTzkMf-60">
          <mxGeometry y="86" width="139.25" height="44" as="geometry" />
        </mxCell>
        <mxCell id="LMtuo78VedRBWPzTzkMf-65" value="" style="shape=partialRectangle;overflow=hidden;connectable=0;fillColor=none;top=0;left=0;bottom=0;right=0;" vertex="1" parent="LMtuo78VedRBWPzTzkMf-64">
          <mxGeometry width="63.75" height="44" as="geometry">
            <mxRectangle width="63.75" height="44" as="alternateBounds" />
          </mxGeometry>
        </mxCell>
        <mxCell id="LMtuo78VedRBWPzTzkMf-66" value="IsMajor" style="shape=partialRectangle;overflow=hidden;connectable=0;fillColor=none;top=0;left=0;bottom=0;right=0;align=left;spacingLeft=6;" vertex="1" parent="LMtuo78VedRBWPzTzkMf-64">
          <mxGeometry x="63.75" width="75.5" height="44" as="geometry">
            <mxRectangle width="75.5" height="44" as="alternateBounds" />
          </mxGeometry>
        </mxCell>
        <mxCell id="LMtuo78VedRBWPzTzkMf-102" value="CourseSub" style="shape=table;startSize=30;container=1;collapsible=1;childLayout=tableLayout;fixedRows=1;rowLines=0;fontStyle=1;align=center;resizeLast=1;" vertex="1" parent="1">
          <mxGeometry x="950" y="13" width="155" height="93" as="geometry" />
        </mxCell>
        <mxCell id="LMtuo78VedRBWPzTzkMf-103" value="" style="shape=partialRectangle;collapsible=0;dropTarget=0;pointerEvents=0;fillColor=none;points=[[0,0.5],[1,0.5]];portConstraint=eastwest;top=0;left=0;right=0;bottom=1;" vertex="1" parent="LMtuo78VedRBWPzTzkMf-102">
          <mxGeometry y="30" width="155" height="30" as="geometry" />
        </mxCell>
        <mxCell id="LMtuo78VedRBWPzTzkMf-104" value="PK" style="shape=partialRectangle;overflow=hidden;connectable=0;fillColor=none;top=0;left=0;bottom=0;right=0;fontStyle=1;" vertex="1" parent="LMtuo78VedRBWPzTzkMf-103">
          <mxGeometry width="63.75" height="30" as="geometry">
            <mxRectangle width="63.75" height="30" as="alternateBounds" />
          </mxGeometry>
        </mxCell>
        <mxCell id="LMtuo78VedRBWPzTzkMf-105" value="CourseCode" style="shape=partialRectangle;overflow=hidden;connectable=0;fillColor=none;top=0;left=0;bottom=0;right=0;align=left;spacingLeft=6;fontStyle=5;" vertex="1" parent="LMtuo78VedRBWPzTzkMf-103">
          <mxGeometry x="63.75" width="91.25" height="30" as="geometry">
            <mxRectangle width="91.25" height="30" as="alternateBounds" />
          </mxGeometry>
        </mxCell>
        <mxCell id="LMtuo78VedRBWPzTzkMf-106" value="" style="shape=partialRectangle;collapsible=0;dropTarget=0;pointerEvents=0;fillColor=none;points=[[0,0.5],[1,0.5]];portConstraint=eastwest;top=0;left=0;right=0;bottom=0;" vertex="1" parent="LMtuo78VedRBWPzTzkMf-102">
          <mxGeometry y="60" width="155" height="33" as="geometry" />
        </mxCell>
        <mxCell id="LMtuo78VedRBWPzTzkMf-107" value="" style="shape=partialRectangle;overflow=hidden;connectable=0;fillColor=none;top=0;left=0;bottom=0;right=0;" vertex="1" parent="LMtuo78VedRBWPzTzkMf-106">
          <mxGeometry width="63.75" height="33" as="geometry">
            <mxRectangle width="63.75" height="33" as="alternateBounds" />
          </mxGeometry>
        </mxCell>
        <mxCell id="LMtuo78VedRBWPzTzkMf-108" value="Text" style="shape=partialRectangle;overflow=hidden;connectable=0;fillColor=none;top=0;left=0;bottom=0;right=0;align=left;spacingLeft=6;" vertex="1" parent="LMtuo78VedRBWPzTzkMf-106">
          <mxGeometry x="63.75" width="91.25" height="33" as="geometry">
            <mxRectangle width="91.25" height="33" as="alternateBounds" />
          </mxGeometry>
        </mxCell>
        <mxCell id="LMtuo78VedRBWPzTzkMf-109" value="State" style="shape=table;startSize=30;container=1;collapsible=1;childLayout=tableLayout;fixedRows=1;rowLines=0;fontStyle=1;align=center;resizeLast=1;" vertex="1" parent="1">
          <mxGeometry x="48" y="464" width="129" height="93" as="geometry" />
        </mxCell>
        <mxCell id="LMtuo78VedRBWPzTzkMf-110" value="" style="shape=partialRectangle;collapsible=0;dropTarget=0;pointerEvents=0;fillColor=none;points=[[0,0.5],[1,0.5]];portConstraint=eastwest;top=0;left=0;right=0;bottom=1;" vertex="1" parent="LMtuo78VedRBWPzTzkMf-109">
          <mxGeometry y="30" width="129" height="30" as="geometry" />
        </mxCell>
        <mxCell id="LMtuo78VedRBWPzTzkMf-111" value="PK" style="shape=partialRectangle;overflow=hidden;connectable=0;fillColor=none;top=0;left=0;bottom=0;right=0;fontStyle=1;" vertex="1" parent="LMtuo78VedRBWPzTzkMf-110">
          <mxGeometry width="63.75" height="30" as="geometry">
            <mxRectangle width="63.75" height="30" as="alternateBounds" />
          </mxGeometry>
        </mxCell>
        <mxCell id="LMtuo78VedRBWPzTzkMf-112" value="StateID" style="shape=partialRectangle;overflow=hidden;connectable=0;fillColor=none;top=0;left=0;bottom=0;right=0;align=left;spacingLeft=6;fontStyle=5;" vertex="1" parent="LMtuo78VedRBWPzTzkMf-110">
          <mxGeometry x="63.75" width="65.25" height="30" as="geometry">
            <mxRectangle width="65.25" height="30" as="alternateBounds" />
          </mxGeometry>
        </mxCell>
        <mxCell id="LMtuo78VedRBWPzTzkMf-113" value="" style="shape=partialRectangle;collapsible=0;dropTarget=0;pointerEvents=0;fillColor=none;points=[[0,0.5],[1,0.5]];portConstraint=eastwest;top=0;left=0;right=0;bottom=0;" vertex="1" parent="LMtuo78VedRBWPzTzkMf-109">
          <mxGeometry y="60" width="129" height="33" as="geometry" />
        </mxCell>
        <mxCell id="LMtuo78VedRBWPzTzkMf-114" value="" style="shape=partialRectangle;overflow=hidden;connectable=0;fillColor=none;top=0;left=0;bottom=0;right=0;" vertex="1" parent="LMtuo78VedRBWPzTzkMf-113">
          <mxGeometry width="63.75" height="33" as="geometry">
            <mxRectangle width="63.75" height="33" as="alternateBounds" />
          </mxGeometry>
        </mxCell>
        <mxCell id="LMtuo78VedRBWPzTzkMf-115" value="Text" style="shape=partialRectangle;overflow=hidden;connectable=0;fillColor=none;top=0;left=0;bottom=0;right=0;align=left;spacingLeft=6;" vertex="1" parent="LMtuo78VedRBWPzTzkMf-113">
          <mxGeometry x="63.75" width="65.25" height="33" as="geometry">
            <mxRectangle width="65.25" height="33" as="alternateBounds" />
          </mxGeometry>
        </mxCell>
        <mxCell id="LMtuo78VedRBWPzTzkMf-132" value="StudentType" style="shape=table;startSize=30;container=1;collapsible=1;childLayout=tableLayout;fixedRows=1;rowLines=0;fontStyle=1;align=center;resizeLast=1;" vertex="1" parent="1">
          <mxGeometry x="45.5" y="150" width="171" height="93" as="geometry" />
        </mxCell>
        <mxCell id="LMtuo78VedRBWPzTzkMf-133" value="" style="shape=partialRectangle;collapsible=0;dropTarget=0;pointerEvents=0;fillColor=none;points=[[0,0.5],[1,0.5]];portConstraint=eastwest;top=0;left=0;right=0;bottom=1;" vertex="1" parent="LMtuo78VedRBWPzTzkMf-132">
          <mxGeometry y="30" width="171" height="30" as="geometry" />
        </mxCell>
        <mxCell id="LMtuo78VedRBWPzTzkMf-134" value="PK" style="shape=partialRectangle;overflow=hidden;connectable=0;fillColor=none;top=0;left=0;bottom=0;right=0;fontStyle=1;" vertex="1" parent="LMtuo78VedRBWPzTzkMf-133">
          <mxGeometry width="63.75" height="30" as="geometry">
            <mxRectangle width="63.75" height="30" as="alternateBounds" />
          </mxGeometry>
        </mxCell>
        <mxCell id="LMtuo78VedRBWPzTzkMf-135" value="StudentTypeID" style="shape=partialRectangle;overflow=hidden;connectable=0;fillColor=none;top=0;left=0;bottom=0;right=0;align=left;spacingLeft=6;fontStyle=5;" vertex="1" parent="LMtuo78VedRBWPzTzkMf-133">
          <mxGeometry x="63.75" width="107.25" height="30" as="geometry">
            <mxRectangle width="107.25" height="30" as="alternateBounds" />
          </mxGeometry>
        </mxCell>
        <mxCell id="LMtuo78VedRBWPzTzkMf-136" value="" style="shape=partialRectangle;collapsible=0;dropTarget=0;pointerEvents=0;fillColor=none;points=[[0,0.5],[1,0.5]];portConstraint=eastwest;top=0;left=0;right=0;bottom=0;" vertex="1" parent="LMtuo78VedRBWPzTzkMf-132">
          <mxGeometry y="60" width="171" height="33" as="geometry" />
        </mxCell>
        <mxCell id="LMtuo78VedRBWPzTzkMf-137" value="" style="shape=partialRectangle;overflow=hidden;connectable=0;fillColor=none;top=0;left=0;bottom=0;right=0;" vertex="1" parent="LMtuo78VedRBWPzTzkMf-136">
          <mxGeometry width="63.75" height="33" as="geometry">
            <mxRectangle width="63.75" height="33" as="alternateBounds" />
          </mxGeometry>
        </mxCell>
        <mxCell id="LMtuo78VedRBWPzTzkMf-138" value="Text" style="shape=partialRectangle;overflow=hidden;connectable=0;fillColor=none;top=0;left=0;bottom=0;right=0;align=left;spacingLeft=6;" vertex="1" parent="LMtuo78VedRBWPzTzkMf-136">
          <mxGeometry x="63.75" width="107.25" height="33" as="geometry">
            <mxRectangle width="107.25" height="33" as="alternateBounds" />
          </mxGeometry>
        </mxCell>
        <mxCell id="LMtuo78VedRBWPzTzkMf-139" value="Addresses" style="shape=table;startSize=30;container=1;collapsible=1;childLayout=tableLayout;fixedRows=1;rowLines=0;fontStyle=1;align=center;resizeLast=1;" vertex="1" parent="1">
          <mxGeometry x="280" y="537" width="113" height="240" as="geometry" />
        </mxCell>
        <mxCell id="LMtuo78VedRBWPzTzkMf-140" value="" style="shape=partialRectangle;collapsible=0;dropTarget=0;pointerEvents=0;fillColor=none;points=[[0,0.5],[1,0.5]];portConstraint=eastwest;top=0;left=0;right=0;bottom=1;" vertex="1" parent="LMtuo78VedRBWPzTzkMf-139">
          <mxGeometry y="30" width="113" height="30" as="geometry" />
        </mxCell>
        <mxCell id="LMtuo78VedRBWPzTzkMf-141" value="PK" style="shape=partialRectangle;overflow=hidden;connectable=0;fillColor=none;top=0;left=0;bottom=0;right=0;fontStyle=1;" vertex="1" parent="LMtuo78VedRBWPzTzkMf-140">
          <mxGeometry width="30" height="30" as="geometry">
            <mxRectangle width="30" height="30" as="alternateBounds" />
          </mxGeometry>
        </mxCell>
        <mxCell id="LMtuo78VedRBWPzTzkMf-142" value="AddressID" style="shape=partialRectangle;overflow=hidden;connectable=0;fillColor=none;top=0;left=0;bottom=0;right=0;align=left;spacingLeft=6;fontStyle=5;" vertex="1" parent="LMtuo78VedRBWPzTzkMf-140">
          <mxGeometry x="30" width="83" height="30" as="geometry">
            <mxRectangle width="83" height="30" as="alternateBounds" />
          </mxGeometry>
        </mxCell>
        <mxCell id="LMtuo78VedRBWPzTzkMf-143" value="" style="shape=partialRectangle;collapsible=0;dropTarget=0;pointerEvents=0;fillColor=none;points=[[0,0.5],[1,0.5]];portConstraint=eastwest;top=0;left=0;right=0;bottom=0;" vertex="1" parent="LMtuo78VedRBWPzTzkMf-139">
          <mxGeometry y="60" width="113" height="30" as="geometry" />
        </mxCell>
        <mxCell id="LMtuo78VedRBWPzTzkMf-144" value="" style="shape=partialRectangle;overflow=hidden;connectable=0;fillColor=none;top=0;left=0;bottom=0;right=0;" vertex="1" parent="LMtuo78VedRBWPzTzkMf-143">
          <mxGeometry width="30" height="30" as="geometry">
            <mxRectangle width="30" height="30" as="alternateBounds" />
          </mxGeometry>
        </mxCell>
        <mxCell id="LMtuo78VedRBWPzTzkMf-145" value="Street1" style="shape=partialRectangle;overflow=hidden;connectable=0;fillColor=none;top=0;left=0;bottom=0;right=0;align=left;spacingLeft=6;" vertex="1" parent="LMtuo78VedRBWPzTzkMf-143">
          <mxGeometry x="30" width="83" height="30" as="geometry">
            <mxRectangle width="83" height="30" as="alternateBounds" />
          </mxGeometry>
        </mxCell>
        <mxCell id="LMtuo78VedRBWPzTzkMf-146" value="" style="shape=partialRectangle;collapsible=0;dropTarget=0;pointerEvents=0;fillColor=none;points=[[0,0.5],[1,0.5]];portConstraint=eastwest;top=0;left=0;right=0;bottom=0;" vertex="1" parent="LMtuo78VedRBWPzTzkMf-139">
          <mxGeometry y="90" width="113" height="30" as="geometry" />
        </mxCell>
        <mxCell id="LMtuo78VedRBWPzTzkMf-147" value="" style="shape=partialRectangle;overflow=hidden;connectable=0;fillColor=none;top=0;left=0;bottom=0;right=0;" vertex="1" parent="LMtuo78VedRBWPzTzkMf-146">
          <mxGeometry width="30" height="30" as="geometry">
            <mxRectangle width="30" height="30" as="alternateBounds" />
          </mxGeometry>
        </mxCell>
        <mxCell id="LMtuo78VedRBWPzTzkMf-148" value="Street2" style="shape=partialRectangle;overflow=hidden;connectable=0;fillColor=none;top=0;left=0;bottom=0;right=0;align=left;spacingLeft=6;" vertex="1" parent="LMtuo78VedRBWPzTzkMf-146">
          <mxGeometry x="30" width="83" height="30" as="geometry">
            <mxRectangle width="83" height="30" as="alternateBounds" />
          </mxGeometry>
        </mxCell>
        <mxCell id="LMtuo78VedRBWPzTzkMf-149" value="" style="shape=partialRectangle;collapsible=0;dropTarget=0;pointerEvents=0;fillColor=none;points=[[0,0.5],[1,0.5]];portConstraint=eastwest;top=0;left=0;right=0;bottom=0;" vertex="1" parent="LMtuo78VedRBWPzTzkMf-139">
          <mxGeometry y="120" width="113" height="30" as="geometry" />
        </mxCell>
        <mxCell id="LMtuo78VedRBWPzTzkMf-150" value="" style="shape=partialRectangle;overflow=hidden;connectable=0;fillColor=none;top=0;left=0;bottom=0;right=0;" vertex="1" parent="LMtuo78VedRBWPzTzkMf-149">
          <mxGeometry width="30" height="30" as="geometry">
            <mxRectangle width="30" height="30" as="alternateBounds" />
          </mxGeometry>
        </mxCell>
        <mxCell id="LMtuo78VedRBWPzTzkMf-151" value="City" style="shape=partialRectangle;overflow=hidden;connectable=0;fillColor=none;top=0;left=0;bottom=0;right=0;align=left;spacingLeft=6;" vertex="1" parent="LMtuo78VedRBWPzTzkMf-149">
          <mxGeometry x="30" width="83" height="30" as="geometry">
            <mxRectangle width="83" height="30" as="alternateBounds" />
          </mxGeometry>
        </mxCell>
        <mxCell id="LMtuo78VedRBWPzTzkMf-152" value="" style="shape=partialRectangle;collapsible=0;dropTarget=0;pointerEvents=0;fillColor=none;points=[[0,0.5],[1,0.5]];portConstraint=eastwest;top=0;left=0;right=0;bottom=0;" vertex="1" parent="LMtuo78VedRBWPzTzkMf-139">
          <mxGeometry y="150" width="113" height="30" as="geometry" />
        </mxCell>
        <mxCell id="LMtuo78VedRBWPzTzkMf-153" value="" style="shape=partialRectangle;overflow=hidden;connectable=0;fillColor=none;top=0;left=0;bottom=0;right=0;" vertex="1" parent="LMtuo78VedRBWPzTzkMf-152">
          <mxGeometry width="30" height="30" as="geometry">
            <mxRectangle width="30" height="30" as="alternateBounds" />
          </mxGeometry>
        </mxCell>
        <mxCell id="LMtuo78VedRBWPzTzkMf-154" value="State" style="shape=partialRectangle;overflow=hidden;connectable=0;fillColor=none;top=0;left=0;bottom=0;right=0;align=left;spacingLeft=6;" vertex="1" parent="LMtuo78VedRBWPzTzkMf-152">
          <mxGeometry x="30" width="83" height="30" as="geometry">
            <mxRectangle width="83" height="30" as="alternateBounds" />
          </mxGeometry>
        </mxCell>
        <mxCell id="LMtuo78VedRBWPzTzkMf-155" value="" style="shape=partialRectangle;collapsible=0;dropTarget=0;pointerEvents=0;fillColor=none;points=[[0,0.5],[1,0.5]];portConstraint=eastwest;top=0;left=0;right=0;bottom=0;" vertex="1" parent="LMtuo78VedRBWPzTzkMf-139">
          <mxGeometry y="180" width="113" height="30" as="geometry" />
        </mxCell>
        <mxCell id="LMtuo78VedRBWPzTzkMf-156" value="" style="shape=partialRectangle;overflow=hidden;connectable=0;fillColor=none;top=0;left=0;bottom=0;right=0;" vertex="1" parent="LMtuo78VedRBWPzTzkMf-155">
          <mxGeometry width="30" height="30" as="geometry">
            <mxRectangle width="30" height="30" as="alternateBounds" />
          </mxGeometry>
        </mxCell>
        <mxCell id="LMtuo78VedRBWPzTzkMf-157" value="Country" style="shape=partialRectangle;overflow=hidden;connectable=0;fillColor=none;top=0;left=0;bottom=0;right=0;align=left;spacingLeft=6;" vertex="1" parent="LMtuo78VedRBWPzTzkMf-155">
          <mxGeometry x="30" width="83" height="30" as="geometry">
            <mxRectangle width="83" height="30" as="alternateBounds" />
          </mxGeometry>
        </mxCell>
        <mxCell id="LMtuo78VedRBWPzTzkMf-158" value="" style="shape=partialRectangle;collapsible=0;dropTarget=0;pointerEvents=0;fillColor=none;points=[[0,0.5],[1,0.5]];portConstraint=eastwest;top=0;left=0;right=0;bottom=0;" vertex="1" parent="LMtuo78VedRBWPzTzkMf-139">
          <mxGeometry y="210" width="113" height="30" as="geometry" />
        </mxCell>
        <mxCell id="LMtuo78VedRBWPzTzkMf-159" value="" style="shape=partialRectangle;overflow=hidden;connectable=0;fillColor=none;top=0;left=0;bottom=0;right=0;" vertex="1" parent="LMtuo78VedRBWPzTzkMf-158">
          <mxGeometry width="30" height="30" as="geometry">
            <mxRectangle width="30" height="30" as="alternateBounds" />
          </mxGeometry>
        </mxCell>
        <mxCell id="LMtuo78VedRBWPzTzkMf-160" value="ZipCode" style="shape=partialRectangle;overflow=hidden;connectable=0;fillColor=none;top=0;left=0;bottom=0;right=0;align=left;spacingLeft=6;" vertex="1" parent="LMtuo78VedRBWPzTzkMf-158">
          <mxGeometry x="30" width="83" height="30" as="geometry">
            <mxRectangle width="83" height="30" as="alternateBounds" />
          </mxGeometry>
        </mxCell>
        <mxCell id="LMtuo78VedRBWPzTzkMf-161" value="CourseEnrollment" style="shape=table;startSize=29;container=1;collapsible=1;childLayout=tableLayout;fixedRows=1;rowLines=0;fontStyle=1;align=center;resizeLast=1;" vertex="1" parent="1">
          <mxGeometry x="897" y="738" width="183" height="190" as="geometry" />
        </mxCell>
        <mxCell id="LMtuo78VedRBWPzTzkMf-162" value="" style="shape=partialRectangle;collapsible=0;dropTarget=0;pointerEvents=0;fillColor=none;points=[[0,0.5],[1,0.5]];portConstraint=eastwest;top=0;left=0;right=0;bottom=1;" vertex="1" parent="LMtuo78VedRBWPzTzkMf-161">
          <mxGeometry y="29" width="183" height="30" as="geometry" />
        </mxCell>
        <mxCell id="LMtuo78VedRBWPzTzkMf-163" value="PK,FK1" style="shape=partialRectangle;overflow=hidden;connectable=0;fillColor=none;top=0;left=0;bottom=0;right=0;fontStyle=1;" vertex="1" parent="LMtuo78VedRBWPzTzkMf-162">
          <mxGeometry width="63.75" height="30" as="geometry">
            <mxRectangle width="63.75" height="30" as="alternateBounds" />
          </mxGeometry>
        </mxCell>
        <mxCell id="LMtuo78VedRBWPzTzkMf-164" value="StudentID" style="shape=partialRectangle;overflow=hidden;connectable=0;fillColor=none;top=0;left=0;bottom=0;right=0;align=left;spacingLeft=6;fontStyle=5;" vertex="1" parent="LMtuo78VedRBWPzTzkMf-162">
          <mxGeometry x="63.75" width="119.25" height="30" as="geometry">
            <mxRectangle width="119.25" height="30" as="alternateBounds" />
          </mxGeometry>
        </mxCell>
        <mxCell id="LMtuo78VedRBWPzTzkMf-165" value="" style="shape=partialRectangle;collapsible=0;dropTarget=0;pointerEvents=0;fillColor=none;points=[[0,0.5],[1,0.5]];portConstraint=eastwest;top=0;left=0;right=0;bottom=1;" vertex="1" parent="LMtuo78VedRBWPzTzkMf-161">
          <mxGeometry y="59" width="183" height="30" as="geometry" />
        </mxCell>
        <mxCell id="LMtuo78VedRBWPzTzkMf-166" value="PK,FK3" style="shape=partialRectangle;overflow=hidden;connectable=0;fillColor=none;top=0;left=0;bottom=0;right=0;fontStyle=1;" vertex="1" parent="LMtuo78VedRBWPzTzkMf-165">
          <mxGeometry width="63.75" height="30" as="geometry">
            <mxRectangle width="63.75" height="30" as="alternateBounds" />
          </mxGeometry>
        </mxCell>
        <mxCell id="LMtuo78VedRBWPzTzkMf-167" value="CRN" style="shape=partialRectangle;overflow=hidden;connectable=0;fillColor=none;top=0;left=0;bottom=0;right=0;align=left;spacingLeft=6;fontStyle=5;" vertex="1" parent="LMtuo78VedRBWPzTzkMf-165">
          <mxGeometry x="63.75" width="119.25" height="30" as="geometry">
            <mxRectangle width="119.25" height="30" as="alternateBounds" />
          </mxGeometry>
        </mxCell>
        <mxCell id="LMtuo78VedRBWPzTzkMf-168" value="" style="shape=partialRectangle;collapsible=0;dropTarget=0;pointerEvents=0;fillColor=none;points=[[0,0.5],[1,0.5]];portConstraint=eastwest;top=0;left=0;right=0;bottom=0;" vertex="1" parent="LMtuo78VedRBWPzTzkMf-161">
          <mxGeometry y="89" width="183" height="33" as="geometry" />
        </mxCell>
        <mxCell id="LMtuo78VedRBWPzTzkMf-169" value="FK2" style="shape=partialRectangle;overflow=hidden;connectable=0;fillColor=none;top=0;left=0;bottom=0;right=0;fontStyle=1" vertex="1" parent="LMtuo78VedRBWPzTzkMf-168">
          <mxGeometry width="63.75" height="33" as="geometry">
            <mxRectangle width="63.75" height="33" as="alternateBounds" />
          </mxGeometry>
        </mxCell>
        <mxCell id="LMtuo78VedRBWPzTzkMf-170" value="EnrollmentStatusID" style="shape=partialRectangle;overflow=hidden;connectable=0;fillColor=none;top=0;left=0;bottom=0;right=0;align=left;spacingLeft=6;fontStyle=1" vertex="1" parent="LMtuo78VedRBWPzTzkMf-168">
          <mxGeometry x="63.75" width="119.25" height="33" as="geometry">
            <mxRectangle width="119.25" height="33" as="alternateBounds" />
          </mxGeometry>
        </mxCell>
        <mxCell id="LMtuo78VedRBWPzTzkMf-171" value="" style="shape=partialRectangle;collapsible=0;dropTarget=0;pointerEvents=0;fillColor=none;points=[[0,0.5],[1,0.5]];portConstraint=eastwest;top=0;left=0;right=0;bottom=0;" vertex="1" parent="LMtuo78VedRBWPzTzkMf-161">
          <mxGeometry y="122" width="183" height="33" as="geometry" />
        </mxCell>
        <mxCell id="LMtuo78VedRBWPzTzkMf-172" value="" style="shape=partialRectangle;overflow=hidden;connectable=0;fillColor=none;top=0;left=0;bottom=0;right=0;" vertex="1" parent="LMtuo78VedRBWPzTzkMf-171">
          <mxGeometry width="63.75" height="33" as="geometry">
            <mxRectangle width="63.75" height="33" as="alternateBounds" />
          </mxGeometry>
        </mxCell>
        <mxCell id="LMtuo78VedRBWPzTzkMf-173" value="MidTermGrade" style="shape=partialRectangle;overflow=hidden;connectable=0;fillColor=none;top=0;left=0;bottom=0;right=0;align=left;spacingLeft=6;" vertex="1" parent="LMtuo78VedRBWPzTzkMf-171">
          <mxGeometry x="63.75" width="119.25" height="33" as="geometry">
            <mxRectangle width="119.25" height="33" as="alternateBounds" />
          </mxGeometry>
        </mxCell>
        <mxCell id="LMtuo78VedRBWPzTzkMf-174" value="" style="shape=partialRectangle;collapsible=0;dropTarget=0;pointerEvents=0;fillColor=none;points=[[0,0.5],[1,0.5]];portConstraint=eastwest;top=0;left=0;right=0;bottom=0;" vertex="1" parent="LMtuo78VedRBWPzTzkMf-161">
          <mxGeometry y="155" width="183" height="33" as="geometry" />
        </mxCell>
        <mxCell id="LMtuo78VedRBWPzTzkMf-175" value="" style="shape=partialRectangle;overflow=hidden;connectable=0;fillColor=none;top=0;left=0;bottom=0;right=0;" vertex="1" parent="LMtuo78VedRBWPzTzkMf-174">
          <mxGeometry width="63.75" height="33" as="geometry">
            <mxRectangle width="63.75" height="33" as="alternateBounds" />
          </mxGeometry>
        </mxCell>
        <mxCell id="LMtuo78VedRBWPzTzkMf-176" value="FinalGrade" style="shape=partialRectangle;overflow=hidden;connectable=0;fillColor=none;top=0;left=0;bottom=0;right=0;align=left;spacingLeft=6;" vertex="1" parent="LMtuo78VedRBWPzTzkMf-174">
          <mxGeometry x="63.75" width="119.25" height="33" as="geometry">
            <mxRectangle width="119.25" height="33" as="alternateBounds" />
          </mxGeometry>
        </mxCell>
        <mxCell id="LMtuo78VedRBWPzTzkMf-177" value="EnrollmentStatus" style="shape=table;startSize=30;container=1;collapsible=1;childLayout=tableLayout;fixedRows=1;rowLines=0;fontStyle=1;align=center;resizeLast=1;" vertex="1" parent="1">
          <mxGeometry x="950" y="550" width="155" height="93" as="geometry" />
        </mxCell>
        <mxCell id="LMtuo78VedRBWPzTzkMf-178" value="" style="shape=partialRectangle;collapsible=0;dropTarget=0;pointerEvents=0;fillColor=none;points=[[0,0.5],[1,0.5]];portConstraint=eastwest;top=0;left=0;right=0;bottom=1;" vertex="1" parent="LMtuo78VedRBWPzTzkMf-177">
          <mxGeometry y="30" width="155" height="30" as="geometry" />
        </mxCell>
        <mxCell id="LMtuo78VedRBWPzTzkMf-179" value="PK" style="shape=partialRectangle;overflow=hidden;connectable=0;fillColor=none;top=0;left=0;bottom=0;right=0;fontStyle=1;" vertex="1" parent="LMtuo78VedRBWPzTzkMf-178">
          <mxGeometry width="63.75" height="30" as="geometry">
            <mxRectangle width="63.75" height="30" as="alternateBounds" />
          </mxGeometry>
        </mxCell>
        <mxCell id="LMtuo78VedRBWPzTzkMf-180" value="StatusID" style="shape=partialRectangle;overflow=hidden;connectable=0;fillColor=none;top=0;left=0;bottom=0;right=0;align=left;spacingLeft=6;fontStyle=5;" vertex="1" parent="LMtuo78VedRBWPzTzkMf-178">
          <mxGeometry x="63.75" width="91.25" height="30" as="geometry">
            <mxRectangle width="91.25" height="30" as="alternateBounds" />
          </mxGeometry>
        </mxCell>
        <mxCell id="LMtuo78VedRBWPzTzkMf-181" value="" style="shape=partialRectangle;collapsible=0;dropTarget=0;pointerEvents=0;fillColor=none;points=[[0,0.5],[1,0.5]];portConstraint=eastwest;top=0;left=0;right=0;bottom=0;" vertex="1" parent="LMtuo78VedRBWPzTzkMf-177">
          <mxGeometry y="60" width="155" height="33" as="geometry" />
        </mxCell>
        <mxCell id="LMtuo78VedRBWPzTzkMf-182" value="" style="shape=partialRectangle;overflow=hidden;connectable=0;fillColor=none;top=0;left=0;bottom=0;right=0;" vertex="1" parent="LMtuo78VedRBWPzTzkMf-181">
          <mxGeometry width="63.75" height="33" as="geometry">
            <mxRectangle width="63.75" height="33" as="alternateBounds" />
          </mxGeometry>
        </mxCell>
        <mxCell id="LMtuo78VedRBWPzTzkMf-183" value="Text" style="shape=partialRectangle;overflow=hidden;connectable=0;fillColor=none;top=0;left=0;bottom=0;right=0;align=left;spacingLeft=6;" vertex="1" parent="LMtuo78VedRBWPzTzkMf-181">
          <mxGeometry x="63.75" width="91.25" height="33" as="geometry">
            <mxRectangle width="91.25" height="33" as="alternateBounds" />
          </mxGeometry>
        </mxCell>
        <mxCell id="LMtuo78VedRBWPzTzkMf-184" value="Country" style="shape=table;startSize=30;container=1;collapsible=1;childLayout=tableLayout;fixedRows=1;rowLines=0;fontStyle=1;align=center;resizeLast=1;" vertex="1" parent="1">
          <mxGeometry x="37" y="599" width="155" height="93" as="geometry" />
        </mxCell>
        <mxCell id="LMtuo78VedRBWPzTzkMf-185" value="" style="shape=partialRectangle;collapsible=0;dropTarget=0;pointerEvents=0;fillColor=none;points=[[0,0.5],[1,0.5]];portConstraint=eastwest;top=0;left=0;right=0;bottom=1;" vertex="1" parent="LMtuo78VedRBWPzTzkMf-184">
          <mxGeometry y="30" width="155" height="30" as="geometry" />
        </mxCell>
        <mxCell id="LMtuo78VedRBWPzTzkMf-186" value="PK" style="shape=partialRectangle;overflow=hidden;connectable=0;fillColor=none;top=0;left=0;bottom=0;right=0;fontStyle=1;" vertex="1" parent="LMtuo78VedRBWPzTzkMf-185">
          <mxGeometry width="63.75" height="30" as="geometry">
            <mxRectangle width="63.75" height="30" as="alternateBounds" />
          </mxGeometry>
        </mxCell>
        <mxCell id="LMtuo78VedRBWPzTzkMf-187" value="CountryID" style="shape=partialRectangle;overflow=hidden;connectable=0;fillColor=none;top=0;left=0;bottom=0;right=0;align=left;spacingLeft=6;fontStyle=5;" vertex="1" parent="LMtuo78VedRBWPzTzkMf-185">
          <mxGeometry x="63.75" width="91.25" height="30" as="geometry">
            <mxRectangle width="91.25" height="30" as="alternateBounds" />
          </mxGeometry>
        </mxCell>
        <mxCell id="LMtuo78VedRBWPzTzkMf-188" value="" style="shape=partialRectangle;collapsible=0;dropTarget=0;pointerEvents=0;fillColor=none;points=[[0,0.5],[1,0.5]];portConstraint=eastwest;top=0;left=0;right=0;bottom=0;" vertex="1" parent="LMtuo78VedRBWPzTzkMf-184">
          <mxGeometry y="60" width="155" height="33" as="geometry" />
        </mxCell>
        <mxCell id="LMtuo78VedRBWPzTzkMf-189" value="" style="shape=partialRectangle;overflow=hidden;connectable=0;fillColor=none;top=0;left=0;bottom=0;right=0;" vertex="1" parent="LMtuo78VedRBWPzTzkMf-188">
          <mxGeometry width="63.75" height="33" as="geometry">
            <mxRectangle width="63.75" height="33" as="alternateBounds" />
          </mxGeometry>
        </mxCell>
        <mxCell id="LMtuo78VedRBWPzTzkMf-190" value="Text" style="shape=partialRectangle;overflow=hidden;connectable=0;fillColor=none;top=0;left=0;bottom=0;right=0;align=left;spacingLeft=6;" vertex="1" parent="LMtuo78VedRBWPzTzkMf-188">
          <mxGeometry x="63.75" width="91.25" height="33" as="geometry">
            <mxRectangle width="91.25" height="33" as="alternateBounds" />
          </mxGeometry>
        </mxCell>
        <mxCell id="LMtuo78VedRBWPzTzkMf-191" value="Gender" style="shape=table;startSize=30;container=1;collapsible=1;childLayout=tableLayout;fixedRows=1;rowLines=0;fontStyle=1;align=center;resizeLast=1;" vertex="1" parent="1">
          <mxGeometry x="23" y="754" width="155" height="93" as="geometry" />
        </mxCell>
        <mxCell id="LMtuo78VedRBWPzTzkMf-192" value="" style="shape=partialRectangle;collapsible=0;dropTarget=0;pointerEvents=0;fillColor=none;points=[[0,0.5],[1,0.5]];portConstraint=eastwest;top=0;left=0;right=0;bottom=1;" vertex="1" parent="LMtuo78VedRBWPzTzkMf-191">
          <mxGeometry y="30" width="155" height="30" as="geometry" />
        </mxCell>
        <mxCell id="LMtuo78VedRBWPzTzkMf-193" value="PK" style="shape=partialRectangle;overflow=hidden;connectable=0;fillColor=none;top=0;left=0;bottom=0;right=0;fontStyle=1;" vertex="1" parent="LMtuo78VedRBWPzTzkMf-192">
          <mxGeometry width="63.75" height="30" as="geometry">
            <mxRectangle width="63.75" height="30" as="alternateBounds" />
          </mxGeometry>
        </mxCell>
        <mxCell id="LMtuo78VedRBWPzTzkMf-194" value="GenderID" style="shape=partialRectangle;overflow=hidden;connectable=0;fillColor=none;top=0;left=0;bottom=0;right=0;align=left;spacingLeft=6;fontStyle=5;" vertex="1" parent="LMtuo78VedRBWPzTzkMf-192">
          <mxGeometry x="63.75" width="91.25" height="30" as="geometry">
            <mxRectangle width="91.25" height="30" as="alternateBounds" />
          </mxGeometry>
        </mxCell>
        <mxCell id="LMtuo78VedRBWPzTzkMf-195" value="" style="shape=partialRectangle;collapsible=0;dropTarget=0;pointerEvents=0;fillColor=none;points=[[0,0.5],[1,0.5]];portConstraint=eastwest;top=0;left=0;right=0;bottom=0;" vertex="1" parent="LMtuo78VedRBWPzTzkMf-191">
          <mxGeometry y="60" width="155" height="33" as="geometry" />
        </mxCell>
        <mxCell id="LMtuo78VedRBWPzTzkMf-196" value="" style="shape=partialRectangle;overflow=hidden;connectable=0;fillColor=none;top=0;left=0;bottom=0;right=0;" vertex="1" parent="LMtuo78VedRBWPzTzkMf-195">
          <mxGeometry width="63.75" height="33" as="geometry">
            <mxRectangle width="63.75" height="33" as="alternateBounds" />
          </mxGeometry>
        </mxCell>
        <mxCell id="LMtuo78VedRBWPzTzkMf-197" value="Text" style="shape=partialRectangle;overflow=hidden;connectable=0;fillColor=none;top=0;left=0;bottom=0;right=0;align=left;spacingLeft=6;" vertex="1" parent="LMtuo78VedRBWPzTzkMf-195">
          <mxGeometry x="63.75" width="91.25" height="33" as="geometry">
            <mxRectangle width="91.25" height="33" as="alternateBounds" />
          </mxGeometry>
        </mxCell>
        <mxCell id="LMtuo78VedRBWPzTzkMf-198" value="Race" style="shape=table;startSize=30;container=1;collapsible=1;childLayout=tableLayout;fixedRows=1;rowLines=0;fontStyle=1;align=center;resizeLast=1;" vertex="1" parent="1">
          <mxGeometry x="280" y="862" width="155" height="93" as="geometry" />
        </mxCell>
        <mxCell id="LMtuo78VedRBWPzTzkMf-199" value="" style="shape=partialRectangle;collapsible=0;dropTarget=0;pointerEvents=0;fillColor=none;points=[[0,0.5],[1,0.5]];portConstraint=eastwest;top=0;left=0;right=0;bottom=1;" vertex="1" parent="LMtuo78VedRBWPzTzkMf-198">
          <mxGeometry y="30" width="155" height="30" as="geometry" />
        </mxCell>
        <mxCell id="LMtuo78VedRBWPzTzkMf-200" value="PK" style="shape=partialRectangle;overflow=hidden;connectable=0;fillColor=none;top=0;left=0;bottom=0;right=0;fontStyle=1;" vertex="1" parent="LMtuo78VedRBWPzTzkMf-199">
          <mxGeometry width="63.75" height="30" as="geometry">
            <mxRectangle width="63.75" height="30" as="alternateBounds" />
          </mxGeometry>
        </mxCell>
        <mxCell id="LMtuo78VedRBWPzTzkMf-201" value="RaceID" style="shape=partialRectangle;overflow=hidden;connectable=0;fillColor=none;top=0;left=0;bottom=0;right=0;align=left;spacingLeft=6;fontStyle=5;" vertex="1" parent="LMtuo78VedRBWPzTzkMf-199">
          <mxGeometry x="63.75" width="91.25" height="30" as="geometry">
            <mxRectangle width="91.25" height="30" as="alternateBounds" />
          </mxGeometry>
        </mxCell>
        <mxCell id="LMtuo78VedRBWPzTzkMf-202" value="" style="shape=partialRectangle;collapsible=0;dropTarget=0;pointerEvents=0;fillColor=none;points=[[0,0.5],[1,0.5]];portConstraint=eastwest;top=0;left=0;right=0;bottom=0;" vertex="1" parent="LMtuo78VedRBWPzTzkMf-198">
          <mxGeometry y="60" width="155" height="33" as="geometry" />
        </mxCell>
        <mxCell id="LMtuo78VedRBWPzTzkMf-203" value="" style="shape=partialRectangle;overflow=hidden;connectable=0;fillColor=none;top=0;left=0;bottom=0;right=0;" vertex="1" parent="LMtuo78VedRBWPzTzkMf-202">
          <mxGeometry width="63.75" height="33" as="geometry">
            <mxRectangle width="63.75" height="33" as="alternateBounds" />
          </mxGeometry>
        </mxCell>
        <mxCell id="LMtuo78VedRBWPzTzkMf-204" value="Text" style="shape=partialRectangle;overflow=hidden;connectable=0;fillColor=none;top=0;left=0;bottom=0;right=0;align=left;spacingLeft=6;" vertex="1" parent="LMtuo78VedRBWPzTzkMf-202">
          <mxGeometry x="63.75" width="91.25" height="33" as="geometry">
            <mxRectangle width="91.25" height="33" as="alternateBounds" />
          </mxGeometry>
        </mxCell>
        <mxCell id="LMtuo78VedRBWPzTzkMf-551" style="edgeStyle=orthogonalEdgeStyle;rounded=0;orthogonalLoop=1;jettySize=auto;html=1;entryX=1;entryY=0.5;entryDx=0;entryDy=0;" edge="1" parent="1" source="LMtuo78VedRBWPzTzkMf-205" target="LMtuo78VedRBWPzTzkMf-192">
          <mxGeometry relative="1" as="geometry">
            <Array as="points">
              <mxPoint x="414" y="663" />
              <mxPoint x="414" y="799" />
            </Array>
          </mxGeometry>
        </mxCell>
        <mxCell id="LMtuo78VedRBWPzTzkMf-205" value="PersonInfo" style="shape=table;startSize=30;container=1;collapsible=1;childLayout=tableLayout;fixedRows=1;rowLines=0;fontStyle=1;align=center;resizeLast=1;" vertex="1" parent="1">
          <mxGeometry x="474" y="464" width="138" height="398" as="geometry" />
        </mxCell>
        <mxCell id="LMtuo78VedRBWPzTzkMf-206" value="" style="shape=partialRectangle;collapsible=0;dropTarget=0;pointerEvents=0;fillColor=none;points=[[0,0.5],[1,0.5]];portConstraint=eastwest;top=0;left=0;right=0;bottom=1;" vertex="1" parent="LMtuo78VedRBWPzTzkMf-205">
          <mxGeometry y="30" width="138" height="30" as="geometry" />
        </mxCell>
        <mxCell id="LMtuo78VedRBWPzTzkMf-207" value="PK" style="shape=partialRectangle;overflow=hidden;connectable=0;fillColor=none;top=0;left=0;bottom=0;right=0;fontStyle=1;" vertex="1" parent="LMtuo78VedRBWPzTzkMf-206">
          <mxGeometry width="30" height="30" as="geometry">
            <mxRectangle width="30" height="30" as="alternateBounds" />
          </mxGeometry>
        </mxCell>
        <mxCell id="LMtuo78VedRBWPzTzkMf-208" value="PersonID" style="shape=partialRectangle;overflow=hidden;connectable=0;fillColor=none;top=0;left=0;bottom=0;right=0;align=left;spacingLeft=6;fontStyle=5;" vertex="1" parent="LMtuo78VedRBWPzTzkMf-206">
          <mxGeometry x="30" width="108" height="30" as="geometry">
            <mxRectangle width="108" height="30" as="alternateBounds" />
          </mxGeometry>
        </mxCell>
        <mxCell id="LMtuo78VedRBWPzTzkMf-209" value="" style="shape=partialRectangle;collapsible=0;dropTarget=0;pointerEvents=0;fillColor=none;points=[[0,0.5],[1,0.5]];portConstraint=eastwest;top=0;left=0;right=0;bottom=0;" vertex="1" parent="LMtuo78VedRBWPzTzkMf-205">
          <mxGeometry y="60" width="138" height="26" as="geometry" />
        </mxCell>
        <mxCell id="LMtuo78VedRBWPzTzkMf-210" value="" style="shape=partialRectangle;overflow=hidden;connectable=0;fillColor=none;top=0;left=0;bottom=0;right=0;" vertex="1" parent="LMtuo78VedRBWPzTzkMf-209">
          <mxGeometry width="30" height="26" as="geometry">
            <mxRectangle width="30" height="26" as="alternateBounds" />
          </mxGeometry>
        </mxCell>
        <mxCell id="LMtuo78VedRBWPzTzkMf-211" value="NTID" style="shape=partialRectangle;overflow=hidden;connectable=0;fillColor=none;top=0;left=0;bottom=0;right=0;align=left;spacingLeft=6;spacing=2;strokeWidth=3;spacingBottom=1;spacingTop=1;labelBackgroundColor=none;" vertex="1" parent="LMtuo78VedRBWPzTzkMf-209">
          <mxGeometry x="30" width="108" height="26" as="geometry">
            <mxRectangle width="108" height="26" as="alternateBounds" />
          </mxGeometry>
        </mxCell>
        <mxCell id="LMtuo78VedRBWPzTzkMf-242" value="" style="shape=partialRectangle;collapsible=0;dropTarget=0;pointerEvents=0;fillColor=none;points=[[0,0.5],[1,0.5]];portConstraint=eastwest;top=0;left=0;right=0;bottom=0;" vertex="1" parent="LMtuo78VedRBWPzTzkMf-205">
          <mxGeometry y="86" width="138" height="26" as="geometry" />
        </mxCell>
        <mxCell id="LMtuo78VedRBWPzTzkMf-243" value="" style="shape=partialRectangle;overflow=hidden;connectable=0;fillColor=none;top=0;left=0;bottom=0;right=0;" vertex="1" parent="LMtuo78VedRBWPzTzkMf-242">
          <mxGeometry width="30" height="26" as="geometry">
            <mxRectangle width="30" height="26" as="alternateBounds" />
          </mxGeometry>
        </mxCell>
        <mxCell id="LMtuo78VedRBWPzTzkMf-244" value="FirstName" style="shape=partialRectangle;overflow=hidden;connectable=0;fillColor=none;top=0;left=0;bottom=0;right=0;align=left;spacingLeft=6;spacing=2;strokeWidth=3;spacingBottom=1;spacingTop=1;labelBackgroundColor=none;" vertex="1" parent="LMtuo78VedRBWPzTzkMf-242">
          <mxGeometry x="30" width="108" height="26" as="geometry">
            <mxRectangle width="108" height="26" as="alternateBounds" />
          </mxGeometry>
        </mxCell>
        <mxCell id="LMtuo78VedRBWPzTzkMf-212" value="" style="shape=partialRectangle;collapsible=0;dropTarget=0;pointerEvents=0;fillColor=none;points=[[0,0.5],[1,0.5]];portConstraint=eastwest;top=0;left=0;right=0;bottom=0;" vertex="1" parent="LMtuo78VedRBWPzTzkMf-205">
          <mxGeometry y="112" width="138" height="26" as="geometry" />
        </mxCell>
        <mxCell id="LMtuo78VedRBWPzTzkMf-213" value="" style="shape=partialRectangle;overflow=hidden;connectable=0;fillColor=none;top=0;left=0;bottom=0;right=0;" vertex="1" parent="LMtuo78VedRBWPzTzkMf-212">
          <mxGeometry width="30" height="26" as="geometry">
            <mxRectangle width="30" height="26" as="alternateBounds" />
          </mxGeometry>
        </mxCell>
        <mxCell id="LMtuo78VedRBWPzTzkMf-214" value="MiddleName " style="shape=partialRectangle;overflow=hidden;connectable=0;fillColor=none;top=0;left=0;bottom=0;right=0;align=left;spacingLeft=6;spacing=2;strokeWidth=3;spacingBottom=1;spacingTop=1;labelBackgroundColor=none;" vertex="1" parent="LMtuo78VedRBWPzTzkMf-212">
          <mxGeometry x="30" width="108" height="26" as="geometry">
            <mxRectangle width="108" height="26" as="alternateBounds" />
          </mxGeometry>
        </mxCell>
        <mxCell id="LMtuo78VedRBWPzTzkMf-215" value="" style="shape=partialRectangle;collapsible=0;dropTarget=0;pointerEvents=0;fillColor=none;points=[[0,0.5],[1,0.5]];portConstraint=eastwest;top=0;left=0;right=0;bottom=0;" vertex="1" parent="LMtuo78VedRBWPzTzkMf-205">
          <mxGeometry y="138" width="138" height="26" as="geometry" />
        </mxCell>
        <mxCell id="LMtuo78VedRBWPzTzkMf-216" value="" style="shape=partialRectangle;overflow=hidden;connectable=0;fillColor=none;top=0;left=0;bottom=0;right=0;" vertex="1" parent="LMtuo78VedRBWPzTzkMf-215">
          <mxGeometry width="30" height="26" as="geometry">
            <mxRectangle width="30" height="26" as="alternateBounds" />
          </mxGeometry>
        </mxCell>
        <mxCell id="LMtuo78VedRBWPzTzkMf-217" value="LastName " style="shape=partialRectangle;overflow=hidden;connectable=0;fillColor=none;top=0;left=0;bottom=0;right=0;align=left;spacingLeft=6;spacing=2;strokeWidth=3;spacingBottom=1;spacingTop=1;labelBackgroundColor=none;" vertex="1" parent="LMtuo78VedRBWPzTzkMf-215">
          <mxGeometry x="30" width="108" height="26" as="geometry">
            <mxRectangle width="108" height="26" as="alternateBounds" />
          </mxGeometry>
        </mxCell>
        <mxCell id="LMtuo78VedRBWPzTzkMf-218" value="" style="shape=partialRectangle;collapsible=0;dropTarget=0;pointerEvents=0;fillColor=none;points=[[0,0.5],[1,0.5]];portConstraint=eastwest;top=0;left=0;right=0;bottom=0;" vertex="1" parent="LMtuo78VedRBWPzTzkMf-205">
          <mxGeometry y="164" width="138" height="26" as="geometry" />
        </mxCell>
        <mxCell id="LMtuo78VedRBWPzTzkMf-219" value="" style="shape=partialRectangle;overflow=hidden;connectable=0;fillColor=none;top=0;left=0;bottom=0;right=0;" vertex="1" parent="LMtuo78VedRBWPzTzkMf-218">
          <mxGeometry width="30" height="26" as="geometry">
            <mxRectangle width="30" height="26" as="alternateBounds" />
          </mxGeometry>
        </mxCell>
        <mxCell id="LMtuo78VedRBWPzTzkMf-220" value="Password" style="shape=partialRectangle;overflow=hidden;connectable=0;fillColor=none;top=0;left=0;bottom=0;right=0;align=left;spacingLeft=6;spacing=2;strokeWidth=3;spacingBottom=1;spacingTop=1;labelBackgroundColor=none;" vertex="1" parent="LMtuo78VedRBWPzTzkMf-218">
          <mxGeometry x="30" width="108" height="26" as="geometry">
            <mxRectangle width="108" height="26" as="alternateBounds" />
          </mxGeometry>
        </mxCell>
        <mxCell id="LMtuo78VedRBWPzTzkMf-221" value="" style="shape=partialRectangle;collapsible=0;dropTarget=0;pointerEvents=0;fillColor=none;points=[[0,0.5],[1,0.5]];portConstraint=eastwest;top=0;left=0;right=0;bottom=0;" vertex="1" parent="LMtuo78VedRBWPzTzkMf-205">
          <mxGeometry y="190" width="138" height="26" as="geometry" />
        </mxCell>
        <mxCell id="LMtuo78VedRBWPzTzkMf-222" value="FK1" style="shape=partialRectangle;overflow=hidden;connectable=0;fillColor=none;top=0;left=0;bottom=0;right=0;fontStyle=1" vertex="1" parent="LMtuo78VedRBWPzTzkMf-221">
          <mxGeometry width="30" height="26" as="geometry">
            <mxRectangle width="30" height="26" as="alternateBounds" />
          </mxGeometry>
        </mxCell>
        <mxCell id="LMtuo78VedRBWPzTzkMf-223" value="GenderID" style="shape=partialRectangle;overflow=hidden;connectable=0;fillColor=none;top=0;left=0;bottom=0;right=0;align=left;spacingLeft=6;spacing=2;strokeWidth=3;spacingBottom=1;spacingTop=1;labelBackgroundColor=none;fontStyle=1" vertex="1" parent="LMtuo78VedRBWPzTzkMf-221">
          <mxGeometry x="30" width="108" height="26" as="geometry">
            <mxRectangle width="108" height="26" as="alternateBounds" />
          </mxGeometry>
        </mxCell>
        <mxCell id="LMtuo78VedRBWPzTzkMf-224" value="" style="shape=partialRectangle;collapsible=0;dropTarget=0;pointerEvents=0;fillColor=none;points=[[0,0.5],[1,0.5]];portConstraint=eastwest;top=0;left=0;right=0;bottom=0;" vertex="1" parent="LMtuo78VedRBWPzTzkMf-205">
          <mxGeometry y="216" width="138" height="26" as="geometry" />
        </mxCell>
        <mxCell id="LMtuo78VedRBWPzTzkMf-225" value="FK2" style="shape=partialRectangle;overflow=hidden;connectable=0;fillColor=none;top=0;left=0;bottom=0;right=0;fontStyle=1" vertex="1" parent="LMtuo78VedRBWPzTzkMf-224">
          <mxGeometry width="30" height="26" as="geometry">
            <mxRectangle width="30" height="26" as="alternateBounds" />
          </mxGeometry>
        </mxCell>
        <mxCell id="LMtuo78VedRBWPzTzkMf-226" value="RaceID" style="shape=partialRectangle;overflow=hidden;connectable=0;fillColor=none;top=0;left=0;bottom=0;right=0;align=left;spacingLeft=6;spacing=2;strokeWidth=3;spacingBottom=1;spacingTop=1;labelBackgroundColor=none;fontStyle=1" vertex="1" parent="LMtuo78VedRBWPzTzkMf-224">
          <mxGeometry x="30" width="108" height="26" as="geometry">
            <mxRectangle width="108" height="26" as="alternateBounds" />
          </mxGeometry>
        </mxCell>
        <mxCell id="LMtuo78VedRBWPzTzkMf-227" value="" style="shape=partialRectangle;collapsible=0;dropTarget=0;pointerEvents=0;fillColor=none;points=[[0,0.5],[1,0.5]];portConstraint=eastwest;top=0;left=0;right=0;bottom=0;" vertex="1" parent="LMtuo78VedRBWPzTzkMf-205">
          <mxGeometry y="242" width="138" height="26" as="geometry" />
        </mxCell>
        <mxCell id="LMtuo78VedRBWPzTzkMf-228" value="" style="shape=partialRectangle;overflow=hidden;connectable=0;fillColor=none;top=0;left=0;bottom=0;right=0;" vertex="1" parent="LMtuo78VedRBWPzTzkMf-227">
          <mxGeometry width="30" height="26" as="geometry">
            <mxRectangle width="30" height="26" as="alternateBounds" />
          </mxGeometry>
        </mxCell>
        <mxCell id="LMtuo78VedRBWPzTzkMf-229" value="DOB" style="shape=partialRectangle;overflow=hidden;connectable=0;fillColor=none;top=0;left=0;bottom=0;right=0;align=left;spacingLeft=6;spacing=2;strokeWidth=3;spacingBottom=1;spacingTop=1;labelBackgroundColor=none;" vertex="1" parent="LMtuo78VedRBWPzTzkMf-227">
          <mxGeometry x="30" width="108" height="26" as="geometry">
            <mxRectangle width="108" height="26" as="alternateBounds" />
          </mxGeometry>
        </mxCell>
        <mxCell id="LMtuo78VedRBWPzTzkMf-230" value="" style="shape=partialRectangle;collapsible=0;dropTarget=0;pointerEvents=0;fillColor=none;points=[[0,0.5],[1,0.5]];portConstraint=eastwest;top=0;left=0;right=0;bottom=0;" vertex="1" parent="LMtuo78VedRBWPzTzkMf-205">
          <mxGeometry y="268" width="138" height="26" as="geometry" />
        </mxCell>
        <mxCell id="LMtuo78VedRBWPzTzkMf-231" value="" style="shape=partialRectangle;overflow=hidden;connectable=0;fillColor=none;top=0;left=0;bottom=0;right=0;" vertex="1" parent="LMtuo78VedRBWPzTzkMf-230">
          <mxGeometry width="30" height="26" as="geometry">
            <mxRectangle width="30" height="26" as="alternateBounds" />
          </mxGeometry>
        </mxCell>
        <mxCell id="LMtuo78VedRBWPzTzkMf-232" value="SSN" style="shape=partialRectangle;overflow=hidden;connectable=0;fillColor=none;top=0;left=0;bottom=0;right=0;align=left;spacingLeft=6;spacing=2;strokeWidth=3;spacingBottom=1;spacingTop=1;labelBackgroundColor=none;" vertex="1" parent="LMtuo78VedRBWPzTzkMf-230">
          <mxGeometry x="30" width="108" height="26" as="geometry">
            <mxRectangle width="108" height="26" as="alternateBounds" />
          </mxGeometry>
        </mxCell>
        <mxCell id="LMtuo78VedRBWPzTzkMf-233" value="" style="shape=partialRectangle;collapsible=0;dropTarget=0;pointerEvents=0;fillColor=none;points=[[0,0.5],[1,0.5]];portConstraint=eastwest;top=0;left=0;right=0;bottom=0;" vertex="1" parent="LMtuo78VedRBWPzTzkMf-205">
          <mxGeometry y="294" width="138" height="26" as="geometry" />
        </mxCell>
        <mxCell id="LMtuo78VedRBWPzTzkMf-234" value="FK3" style="shape=partialRectangle;overflow=hidden;connectable=0;fillColor=none;top=0;left=0;bottom=0;right=0;fontStyle=1" vertex="1" parent="LMtuo78VedRBWPzTzkMf-233">
          <mxGeometry width="30" height="26" as="geometry">
            <mxRectangle width="30" height="26" as="alternateBounds" />
          </mxGeometry>
        </mxCell>
        <mxCell id="LMtuo78VedRBWPzTzkMf-235" value="HomeAddressID" style="shape=partialRectangle;overflow=hidden;connectable=0;fillColor=none;top=0;left=0;bottom=0;right=0;align=left;spacingLeft=6;spacing=2;strokeWidth=3;spacingBottom=1;spacingTop=1;labelBackgroundColor=none;fontStyle=1" vertex="1" parent="LMtuo78VedRBWPzTzkMf-233">
          <mxGeometry x="30" width="108" height="26" as="geometry">
            <mxRectangle width="108" height="26" as="alternateBounds" />
          </mxGeometry>
        </mxCell>
        <mxCell id="LMtuo78VedRBWPzTzkMf-236" value="" style="shape=partialRectangle;collapsible=0;dropTarget=0;pointerEvents=0;fillColor=none;points=[[0,0.5],[1,0.5]];portConstraint=eastwest;top=0;left=0;right=0;bottom=0;" vertex="1" parent="LMtuo78VedRBWPzTzkMf-205">
          <mxGeometry y="320" width="138" height="26" as="geometry" />
        </mxCell>
        <mxCell id="LMtuo78VedRBWPzTzkMf-237" value="FK4" style="shape=partialRectangle;overflow=hidden;connectable=0;fillColor=none;top=0;left=0;bottom=0;right=0;fontStyle=1" vertex="1" parent="LMtuo78VedRBWPzTzkMf-236">
          <mxGeometry width="30" height="26" as="geometry">
            <mxRectangle width="30" height="26" as="alternateBounds" />
          </mxGeometry>
        </mxCell>
        <mxCell id="LMtuo78VedRBWPzTzkMf-238" value="MailingAddressID" style="shape=partialRectangle;overflow=hidden;connectable=0;fillColor=none;top=0;left=0;bottom=0;right=0;align=left;spacingLeft=6;spacing=2;strokeWidth=3;spacingBottom=1;spacingTop=1;labelBackgroundColor=none;fontStyle=1" vertex="1" parent="LMtuo78VedRBWPzTzkMf-236">
          <mxGeometry x="30" width="108" height="26" as="geometry">
            <mxRectangle width="108" height="26" as="alternateBounds" />
          </mxGeometry>
        </mxCell>
        <mxCell id="LMtuo78VedRBWPzTzkMf-239" value="" style="shape=partialRectangle;collapsible=0;dropTarget=0;pointerEvents=0;fillColor=none;points=[[0,0.5],[1,0.5]];portConstraint=eastwest;top=0;left=0;right=0;bottom=0;" vertex="1" parent="LMtuo78VedRBWPzTzkMf-205">
          <mxGeometry y="346" width="138" height="26" as="geometry" />
        </mxCell>
        <mxCell id="LMtuo78VedRBWPzTzkMf-240" value="" style="shape=partialRectangle;overflow=hidden;connectable=0;fillColor=none;top=0;left=0;bottom=0;right=0;" vertex="1" parent="LMtuo78VedRBWPzTzkMf-239">
          <mxGeometry width="30" height="26" as="geometry">
            <mxRectangle width="30" height="26" as="alternateBounds" />
          </mxGeometry>
        </mxCell>
        <mxCell id="LMtuo78VedRBWPzTzkMf-241" value="Cellphone" style="shape=partialRectangle;overflow=hidden;connectable=0;fillColor=none;top=0;left=0;bottom=0;right=0;align=left;spacingLeft=6;spacing=2;strokeWidth=3;spacingBottom=1;spacingTop=1;labelBackgroundColor=none;" vertex="1" parent="LMtuo78VedRBWPzTzkMf-239">
          <mxGeometry x="30" width="108" height="26" as="geometry">
            <mxRectangle width="108" height="26" as="alternateBounds" />
          </mxGeometry>
        </mxCell>
        <mxCell id="LMtuo78VedRBWPzTzkMf-245" value="" style="shape=partialRectangle;collapsible=0;dropTarget=0;pointerEvents=0;fillColor=none;points=[[0,0.5],[1,0.5]];portConstraint=eastwest;top=0;left=0;right=0;bottom=0;" vertex="1" parent="LMtuo78VedRBWPzTzkMf-205">
          <mxGeometry y="372" width="138" height="26" as="geometry" />
        </mxCell>
        <mxCell id="LMtuo78VedRBWPzTzkMf-246" value="" style="shape=partialRectangle;overflow=hidden;connectable=0;fillColor=none;top=0;left=0;bottom=0;right=0;" vertex="1" parent="LMtuo78VedRBWPzTzkMf-245">
          <mxGeometry width="30" height="26" as="geometry">
            <mxRectangle width="30" height="26" as="alternateBounds" />
          </mxGeometry>
        </mxCell>
        <mxCell id="LMtuo78VedRBWPzTzkMf-247" value="Email" style="shape=partialRectangle;overflow=hidden;connectable=0;fillColor=none;top=0;left=0;bottom=0;right=0;align=left;spacingLeft=6;spacing=2;strokeWidth=3;spacingBottom=1;spacingTop=1;labelBackgroundColor=none;" vertex="1" parent="LMtuo78VedRBWPzTzkMf-245">
          <mxGeometry x="30" width="108" height="26" as="geometry">
            <mxRectangle width="108" height="26" as="alternateBounds" />
          </mxGeometry>
        </mxCell>
        <mxCell id="LMtuo78VedRBWPzTzkMf-264" value="CourseSchedule" style="shape=table;startSize=30;container=1;collapsible=1;childLayout=tableLayout;fixedRows=1;rowLines=0;fontStyle=1;align=center;resizeLast=1;" vertex="1" parent="1">
          <mxGeometry x="686" y="557" width="131" height="210" as="geometry" />
        </mxCell>
        <mxCell id="LMtuo78VedRBWPzTzkMf-265" value="" style="shape=partialRectangle;collapsible=0;dropTarget=0;pointerEvents=0;fillColor=none;points=[[0,0.5],[1,0.5]];portConstraint=eastwest;top=0;left=0;right=0;bottom=1;" vertex="1" parent="LMtuo78VedRBWPzTzkMf-264">
          <mxGeometry y="30" width="131" height="30" as="geometry" />
        </mxCell>
        <mxCell id="LMtuo78VedRBWPzTzkMf-266" value="PK" style="shape=partialRectangle;overflow=hidden;connectable=0;fillColor=none;top=0;left=0;bottom=0;right=0;fontStyle=1;" vertex="1" parent="LMtuo78VedRBWPzTzkMf-265">
          <mxGeometry width="30" height="30" as="geometry">
            <mxRectangle width="30" height="30" as="alternateBounds" />
          </mxGeometry>
        </mxCell>
        <mxCell id="LMtuo78VedRBWPzTzkMf-267" value="CRN" style="shape=partialRectangle;overflow=hidden;connectable=0;fillColor=none;top=0;left=0;bottom=0;right=0;align=left;spacingLeft=6;fontStyle=5;" vertex="1" parent="LMtuo78VedRBWPzTzkMf-265">
          <mxGeometry x="30" width="101" height="30" as="geometry">
            <mxRectangle width="101" height="30" as="alternateBounds" />
          </mxGeometry>
        </mxCell>
        <mxCell id="LMtuo78VedRBWPzTzkMf-268" value="" style="shape=partialRectangle;collapsible=0;dropTarget=0;pointerEvents=0;fillColor=none;points=[[0,0.5],[1,0.5]];portConstraint=eastwest;top=0;left=0;right=0;bottom=0;" vertex="1" parent="LMtuo78VedRBWPzTzkMf-264">
          <mxGeometry y="60" width="131" height="30" as="geometry" />
        </mxCell>
        <mxCell id="LMtuo78VedRBWPzTzkMf-269" value="FK1" style="shape=partialRectangle;overflow=hidden;connectable=0;fillColor=none;top=0;left=0;bottom=0;right=0;fontStyle=1" vertex="1" parent="LMtuo78VedRBWPzTzkMf-268">
          <mxGeometry width="30" height="30" as="geometry">
            <mxRectangle width="30" height="30" as="alternateBounds" />
          </mxGeometry>
        </mxCell>
        <mxCell id="LMtuo78VedRBWPzTzkMf-270" value="CourseCode" style="shape=partialRectangle;overflow=hidden;connectable=0;fillColor=none;top=0;left=0;bottom=0;right=0;align=left;spacingLeft=6;fontStyle=1" vertex="1" parent="LMtuo78VedRBWPzTzkMf-268">
          <mxGeometry x="30" width="101" height="30" as="geometry">
            <mxRectangle width="101" height="30" as="alternateBounds" />
          </mxGeometry>
        </mxCell>
        <mxCell id="LMtuo78VedRBWPzTzkMf-271" value="" style="shape=partialRectangle;collapsible=0;dropTarget=0;pointerEvents=0;fillColor=none;points=[[0,0.5],[1,0.5]];portConstraint=eastwest;top=0;left=0;right=0;bottom=0;" vertex="1" parent="LMtuo78VedRBWPzTzkMf-264">
          <mxGeometry y="90" width="131" height="30" as="geometry" />
        </mxCell>
        <mxCell id="LMtuo78VedRBWPzTzkMf-272" value="FK2" style="shape=partialRectangle;overflow=hidden;connectable=0;fillColor=none;top=0;left=0;bottom=0;right=0;fontStyle=1" vertex="1" parent="LMtuo78VedRBWPzTzkMf-271">
          <mxGeometry width="30" height="30" as="geometry">
            <mxRectangle width="30" height="30" as="alternateBounds" />
          </mxGeometry>
        </mxCell>
        <mxCell id="LMtuo78VedRBWPzTzkMf-273" value="CourseNumber" style="shape=partialRectangle;overflow=hidden;connectable=0;fillColor=none;top=0;left=0;bottom=0;right=0;align=left;spacingLeft=6;fontStyle=1" vertex="1" parent="LMtuo78VedRBWPzTzkMf-271">
          <mxGeometry x="30" width="101" height="30" as="geometry">
            <mxRectangle width="101" height="30" as="alternateBounds" />
          </mxGeometry>
        </mxCell>
        <mxCell id="LMtuo78VedRBWPzTzkMf-274" value="" style="shape=partialRectangle;collapsible=0;dropTarget=0;pointerEvents=0;fillColor=none;points=[[0,0.5],[1,0.5]];portConstraint=eastwest;top=0;left=0;right=0;bottom=0;" vertex="1" parent="LMtuo78VedRBWPzTzkMf-264">
          <mxGeometry y="120" width="131" height="30" as="geometry" />
        </mxCell>
        <mxCell id="LMtuo78VedRBWPzTzkMf-275" value="" style="shape=partialRectangle;overflow=hidden;connectable=0;fillColor=none;top=0;left=0;bottom=0;right=0;" vertex="1" parent="LMtuo78VedRBWPzTzkMf-274">
          <mxGeometry width="30" height="30" as="geometry">
            <mxRectangle width="30" height="30" as="alternateBounds" />
          </mxGeometry>
        </mxCell>
        <mxCell id="LMtuo78VedRBWPzTzkMf-276" value="Section" style="shape=partialRectangle;overflow=hidden;connectable=0;fillColor=none;top=0;left=0;bottom=0;right=0;align=left;spacingLeft=6;" vertex="1" parent="LMtuo78VedRBWPzTzkMf-274">
          <mxGeometry x="30" width="101" height="30" as="geometry">
            <mxRectangle width="101" height="30" as="alternateBounds" />
          </mxGeometry>
        </mxCell>
        <mxCell id="LMtuo78VedRBWPzTzkMf-277" value="" style="shape=partialRectangle;collapsible=0;dropTarget=0;pointerEvents=0;fillColor=none;points=[[0,0.5],[1,0.5]];portConstraint=eastwest;top=0;left=0;right=0;bottom=0;" vertex="1" parent="LMtuo78VedRBWPzTzkMf-264">
          <mxGeometry y="150" width="131" height="30" as="geometry" />
        </mxCell>
        <mxCell id="LMtuo78VedRBWPzTzkMf-278" value="FK3" style="shape=partialRectangle;overflow=hidden;connectable=0;fillColor=none;top=0;left=0;bottom=0;right=0;fontStyle=1" vertex="1" parent="LMtuo78VedRBWPzTzkMf-277">
          <mxGeometry width="30" height="30" as="geometry">
            <mxRectangle width="30" height="30" as="alternateBounds" />
          </mxGeometry>
        </mxCell>
        <mxCell id="LMtuo78VedRBWPzTzkMf-279" value="SemesterID" style="shape=partialRectangle;overflow=hidden;connectable=0;fillColor=none;top=0;left=0;bottom=0;right=0;align=left;spacingLeft=6;fontStyle=1" vertex="1" parent="LMtuo78VedRBWPzTzkMf-277">
          <mxGeometry x="30" width="101" height="30" as="geometry">
            <mxRectangle width="101" height="30" as="alternateBounds" />
          </mxGeometry>
        </mxCell>
        <mxCell id="LMtuo78VedRBWPzTzkMf-280" value="" style="shape=partialRectangle;collapsible=0;dropTarget=0;pointerEvents=0;fillColor=none;points=[[0,0.5],[1,0.5]];portConstraint=eastwest;top=0;left=0;right=0;bottom=0;" vertex="1" parent="LMtuo78VedRBWPzTzkMf-264">
          <mxGeometry y="180" width="131" height="30" as="geometry" />
        </mxCell>
        <mxCell id="LMtuo78VedRBWPzTzkMf-281" value="FK4" style="shape=partialRectangle;overflow=hidden;connectable=0;fillColor=none;top=0;left=0;bottom=0;right=0;fontStyle=1" vertex="1" parent="LMtuo78VedRBWPzTzkMf-280">
          <mxGeometry width="30" height="30" as="geometry">
            <mxRectangle width="30" height="30" as="alternateBounds" />
          </mxGeometry>
        </mxCell>
        <mxCell id="LMtuo78VedRBWPzTzkMf-282" value="LocationID" style="shape=partialRectangle;overflow=hidden;connectable=0;fillColor=none;top=0;left=0;bottom=0;right=0;align=left;spacingLeft=6;fontStyle=1" vertex="1" parent="LMtuo78VedRBWPzTzkMf-280">
          <mxGeometry x="30" width="101" height="30" as="geometry">
            <mxRectangle width="101" height="30" as="alternateBounds" />
          </mxGeometry>
        </mxCell>
        <mxCell id="LMtuo78VedRBWPzTzkMf-308" value="SemesterInfo" style="shape=table;startSize=30;container=1;collapsible=1;childLayout=tableLayout;fixedRows=1;rowLines=0;fontStyle=1;align=center;resizeLast=1;" vertex="1" parent="1">
          <mxGeometry x="746" y="21" width="134" height="181" as="geometry" />
        </mxCell>
        <mxCell id="LMtuo78VedRBWPzTzkMf-309" value="" style="shape=partialRectangle;collapsible=0;dropTarget=0;pointerEvents=0;fillColor=none;points=[[0,0.5],[1,0.5]];portConstraint=eastwest;top=0;left=0;right=0;bottom=1;" vertex="1" parent="LMtuo78VedRBWPzTzkMf-308">
          <mxGeometry y="30" width="134" height="30" as="geometry" />
        </mxCell>
        <mxCell id="LMtuo78VedRBWPzTzkMf-310" value="PK" style="shape=partialRectangle;overflow=hidden;connectable=0;fillColor=none;top=0;left=0;bottom=0;right=0;fontStyle=1;" vertex="1" parent="LMtuo78VedRBWPzTzkMf-309">
          <mxGeometry width="30" height="30" as="geometry">
            <mxRectangle width="30" height="30" as="alternateBounds" />
          </mxGeometry>
        </mxCell>
        <mxCell id="LMtuo78VedRBWPzTzkMf-311" value="SemesterID" style="shape=partialRectangle;overflow=hidden;connectable=0;fillColor=none;top=0;left=0;bottom=0;right=0;align=left;spacingLeft=6;fontStyle=5;" vertex="1" parent="LMtuo78VedRBWPzTzkMf-309">
          <mxGeometry x="30" width="104" height="30" as="geometry">
            <mxRectangle width="104" height="30" as="alternateBounds" />
          </mxGeometry>
        </mxCell>
        <mxCell id="LMtuo78VedRBWPzTzkMf-312" value="" style="shape=partialRectangle;collapsible=0;dropTarget=0;pointerEvents=0;fillColor=none;points=[[0,0.5],[1,0.5]];portConstraint=eastwest;top=0;left=0;right=0;bottom=0;" vertex="1" parent="LMtuo78VedRBWPzTzkMf-308">
          <mxGeometry y="60" width="134" height="30" as="geometry" />
        </mxCell>
        <mxCell id="LMtuo78VedRBWPzTzkMf-313" value="FK1" style="shape=partialRectangle;overflow=hidden;connectable=0;fillColor=none;top=0;left=0;bottom=0;right=0;fontStyle=1" vertex="1" parent="LMtuo78VedRBWPzTzkMf-312">
          <mxGeometry width="30" height="30" as="geometry">
            <mxRectangle width="30" height="30" as="alternateBounds" />
          </mxGeometry>
        </mxCell>
        <mxCell id="LMtuo78VedRBWPzTzkMf-314" value="SemesterTextID" style="shape=partialRectangle;overflow=hidden;connectable=0;fillColor=none;top=0;left=0;bottom=0;right=0;align=left;spacingLeft=6;fontStyle=1" vertex="1" parent="LMtuo78VedRBWPzTzkMf-312">
          <mxGeometry x="30" width="104" height="30" as="geometry">
            <mxRectangle width="104" height="30" as="alternateBounds" />
          </mxGeometry>
        </mxCell>
        <mxCell id="LMtuo78VedRBWPzTzkMf-315" value="" style="shape=partialRectangle;collapsible=0;dropTarget=0;pointerEvents=0;fillColor=none;points=[[0,0.5],[1,0.5]];portConstraint=eastwest;top=0;left=0;right=0;bottom=0;" vertex="1" parent="LMtuo78VedRBWPzTzkMf-308">
          <mxGeometry y="90" width="134" height="30" as="geometry" />
        </mxCell>
        <mxCell id="LMtuo78VedRBWPzTzkMf-316" value="" style="shape=partialRectangle;overflow=hidden;connectable=0;fillColor=none;top=0;left=0;bottom=0;right=0;" vertex="1" parent="LMtuo78VedRBWPzTzkMf-315">
          <mxGeometry width="30" height="30" as="geometry">
            <mxRectangle width="30" height="30" as="alternateBounds" />
          </mxGeometry>
        </mxCell>
        <mxCell id="LMtuo78VedRBWPzTzkMf-317" value="Year" style="shape=partialRectangle;overflow=hidden;connectable=0;fillColor=none;top=0;left=0;bottom=0;right=0;align=left;spacingLeft=6;" vertex="1" parent="LMtuo78VedRBWPzTzkMf-315">
          <mxGeometry x="30" width="104" height="30" as="geometry">
            <mxRectangle width="104" height="30" as="alternateBounds" />
          </mxGeometry>
        </mxCell>
        <mxCell id="LMtuo78VedRBWPzTzkMf-318" value="" style="shape=partialRectangle;collapsible=0;dropTarget=0;pointerEvents=0;fillColor=none;points=[[0,0.5],[1,0.5]];portConstraint=eastwest;top=0;left=0;right=0;bottom=0;" vertex="1" parent="LMtuo78VedRBWPzTzkMf-308">
          <mxGeometry y="120" width="134" height="30" as="geometry" />
        </mxCell>
        <mxCell id="LMtuo78VedRBWPzTzkMf-319" value="" style="shape=partialRectangle;overflow=hidden;connectable=0;fillColor=none;top=0;left=0;bottom=0;right=0;" vertex="1" parent="LMtuo78VedRBWPzTzkMf-318">
          <mxGeometry width="30" height="30" as="geometry">
            <mxRectangle width="30" height="30" as="alternateBounds" />
          </mxGeometry>
        </mxCell>
        <mxCell id="LMtuo78VedRBWPzTzkMf-320" value="FirstDay" style="shape=partialRectangle;overflow=hidden;connectable=0;fillColor=none;top=0;left=0;bottom=0;right=0;align=left;spacingLeft=6;" vertex="1" parent="LMtuo78VedRBWPzTzkMf-318">
          <mxGeometry x="30" width="104" height="30" as="geometry">
            <mxRectangle width="104" height="30" as="alternateBounds" />
          </mxGeometry>
        </mxCell>
        <mxCell id="LMtuo78VedRBWPzTzkMf-321" value="" style="shape=partialRectangle;collapsible=0;dropTarget=0;pointerEvents=0;fillColor=none;points=[[0,0.5],[1,0.5]];portConstraint=eastwest;top=0;left=0;right=0;bottom=0;" vertex="1" parent="LMtuo78VedRBWPzTzkMf-308">
          <mxGeometry y="150" width="134" height="30" as="geometry" />
        </mxCell>
        <mxCell id="LMtuo78VedRBWPzTzkMf-322" value="" style="shape=partialRectangle;overflow=hidden;connectable=0;fillColor=none;top=0;left=0;bottom=0;right=0;" vertex="1" parent="LMtuo78VedRBWPzTzkMf-321">
          <mxGeometry width="30" height="30" as="geometry">
            <mxRectangle width="30" height="30" as="alternateBounds" />
          </mxGeometry>
        </mxCell>
        <mxCell id="LMtuo78VedRBWPzTzkMf-323" value="LastDay" style="shape=partialRectangle;overflow=hidden;connectable=0;fillColor=none;top=0;left=0;bottom=0;right=0;align=left;spacingLeft=6;" vertex="1" parent="LMtuo78VedRBWPzTzkMf-321">
          <mxGeometry x="30" width="104" height="30" as="geometry">
            <mxRectangle width="104" height="30" as="alternateBounds" />
          </mxGeometry>
        </mxCell>
        <mxCell id="LMtuo78VedRBWPzTzkMf-330" value="EmployeeInfo" style="shape=table;startSize=30;container=1;collapsible=1;childLayout=tableLayout;fixedRows=1;rowLines=0;fontStyle=1;align=center;resizeLast=1;" vertex="1" parent="1">
          <mxGeometry x="884" y="952" width="174" height="94" as="geometry" />
        </mxCell>
        <mxCell id="LMtuo78VedRBWPzTzkMf-331" value="" style="shape=partialRectangle;collapsible=0;dropTarget=0;pointerEvents=0;fillColor=none;points=[[0,0.5],[1,0.5]];portConstraint=eastwest;top=0;left=0;right=0;bottom=1;" vertex="1" parent="LMtuo78VedRBWPzTzkMf-330">
          <mxGeometry y="30" width="174" height="30" as="geometry" />
        </mxCell>
        <mxCell id="LMtuo78VedRBWPzTzkMf-332" value="PK,FK1" style="shape=partialRectangle;overflow=hidden;connectable=0;fillColor=none;top=0;left=0;bottom=0;right=0;fontStyle=1;" vertex="1" parent="LMtuo78VedRBWPzTzkMf-331">
          <mxGeometry width="63.75" height="30" as="geometry">
            <mxRectangle width="63.75" height="30" as="alternateBounds" />
          </mxGeometry>
        </mxCell>
        <mxCell id="LMtuo78VedRBWPzTzkMf-333" value="EmployeeID" style="shape=partialRectangle;overflow=hidden;connectable=0;fillColor=none;top=0;left=0;bottom=0;right=0;align=left;spacingLeft=6;fontStyle=5;" vertex="1" parent="LMtuo78VedRBWPzTzkMf-331">
          <mxGeometry x="63.75" width="110.25" height="30" as="geometry">
            <mxRectangle width="110.25" height="30" as="alternateBounds" />
          </mxGeometry>
        </mxCell>
        <mxCell id="LMtuo78VedRBWPzTzkMf-334" value="" style="shape=partialRectangle;collapsible=0;dropTarget=0;pointerEvents=0;fillColor=none;points=[[0,0.5],[1,0.5]];portConstraint=eastwest;top=0;left=0;right=0;bottom=0;" vertex="1" parent="LMtuo78VedRBWPzTzkMf-330">
          <mxGeometry y="60" width="174" height="33" as="geometry" />
        </mxCell>
        <mxCell id="LMtuo78VedRBWPzTzkMf-335" value="" style="shape=partialRectangle;overflow=hidden;connectable=0;fillColor=none;top=0;left=0;bottom=0;right=0;" vertex="1" parent="LMtuo78VedRBWPzTzkMf-334">
          <mxGeometry width="63.75" height="33" as="geometry">
            <mxRectangle width="63.75" height="33" as="alternateBounds" />
          </mxGeometry>
        </mxCell>
        <mxCell id="LMtuo78VedRBWPzTzkMf-336" value="AnnualSalary" style="shape=partialRectangle;overflow=hidden;connectable=0;fillColor=none;top=0;left=0;bottom=0;right=0;align=left;spacingLeft=6;" vertex="1" parent="LMtuo78VedRBWPzTzkMf-334">
          <mxGeometry x="63.75" width="110.25" height="33" as="geometry">
            <mxRectangle width="110.25" height="33" as="alternateBounds" />
          </mxGeometry>
        </mxCell>
        <mxCell id="LMtuo78VedRBWPzTzkMf-350" value="EmployeeandCourse" style="shape=table;startSize=30;container=1;collapsible=1;childLayout=tableLayout;fixedRows=1;rowLines=0;fontStyle=1;align=center;resizeLast=1;" vertex="1" parent="1">
          <mxGeometry x="670" y="807" width="168" height="123" as="geometry" />
        </mxCell>
        <mxCell id="LMtuo78VedRBWPzTzkMf-351" value="" style="shape=partialRectangle;collapsible=0;dropTarget=0;pointerEvents=0;fillColor=none;points=[[0,0.5],[1,0.5]];portConstraint=eastwest;top=0;left=0;right=0;bottom=1;" vertex="1" parent="LMtuo78VedRBWPzTzkMf-350">
          <mxGeometry y="30" width="168" height="68" as="geometry" />
        </mxCell>
        <mxCell id="LMtuo78VedRBWPzTzkMf-352" value="PK,FK1&#xa;&#xa;PK,FK2" style="shape=partialRectangle;overflow=hidden;connectable=0;fillColor=none;top=0;left=0;bottom=0;right=0;fontStyle=1;" vertex="1" parent="LMtuo78VedRBWPzTzkMf-351">
          <mxGeometry width="63.75" height="68" as="geometry">
            <mxRectangle width="63.75" height="68" as="alternateBounds" />
          </mxGeometry>
        </mxCell>
        <mxCell id="LMtuo78VedRBWPzTzkMf-353" value="CRN&#xa;&#xa;EmployeeID" style="shape=partialRectangle;overflow=hidden;connectable=0;fillColor=none;top=0;left=0;bottom=0;right=0;align=left;spacingLeft=6;fontStyle=5;" vertex="1" parent="LMtuo78VedRBWPzTzkMf-351">
          <mxGeometry x="63.75" width="104.25" height="68" as="geometry">
            <mxRectangle width="104.25" height="68" as="alternateBounds" />
          </mxGeometry>
        </mxCell>
        <mxCell id="LMtuo78VedRBWPzTzkMf-357" value="" style="shape=partialRectangle;collapsible=0;dropTarget=0;pointerEvents=0;fillColor=none;points=[[0,0.5],[1,0.5]];portConstraint=eastwest;top=0;left=0;right=0;bottom=1;" vertex="1" parent="LMtuo78VedRBWPzTzkMf-350">
          <mxGeometry y="98" width="168" height="25" as="geometry" />
        </mxCell>
        <mxCell id="LMtuo78VedRBWPzTzkMf-358" value="" style="shape=partialRectangle;overflow=hidden;connectable=0;fillColor=none;top=0;left=0;bottom=0;right=0;fontStyle=1;" vertex="1" parent="LMtuo78VedRBWPzTzkMf-357">
          <mxGeometry width="63.75" height="25" as="geometry">
            <mxRectangle width="63.75" height="25" as="alternateBounds" />
          </mxGeometry>
        </mxCell>
        <mxCell id="LMtuo78VedRBWPzTzkMf-359" value="" style="shape=partialRectangle;overflow=hidden;connectable=0;fillColor=none;top=0;left=0;bottom=0;right=0;align=left;spacingLeft=6;fontStyle=5;" vertex="1" parent="LMtuo78VedRBWPzTzkMf-357">
          <mxGeometry x="63.75" width="104.25" height="25" as="geometry">
            <mxRectangle width="104.25" height="25" as="alternateBounds" />
          </mxGeometry>
        </mxCell>
        <mxCell id="LMtuo78VedRBWPzTzkMf-572" style="edgeStyle=orthogonalEdgeStyle;rounded=0;orthogonalLoop=1;jettySize=auto;html=1;entryX=0;entryY=0.5;entryDx=0;entryDy=0;" edge="1" parent="1" source="LMtuo78VedRBWPzTzkMf-360" target="LMtuo78VedRBWPzTzkMf-371">
          <mxGeometry relative="1" as="geometry">
            <Array as="points">
              <mxPoint x="1416" y="616" />
              <mxPoint x="1416" y="63" />
            </Array>
          </mxGeometry>
        </mxCell>
        <mxCell id="LMtuo78VedRBWPzTzkMf-575" style="edgeStyle=orthogonalEdgeStyle;rounded=0;orthogonalLoop=1;jettySize=auto;html=1;entryX=0;entryY=0.5;entryDx=0;entryDy=0;" edge="1" parent="1" source="LMtuo78VedRBWPzTzkMf-360" target="LMtuo78VedRBWPzTzkMf-385">
          <mxGeometry relative="1" as="geometry">
            <Array as="points">
              <mxPoint x="1377" y="170" />
            </Array>
          </mxGeometry>
        </mxCell>
        <mxCell id="LMtuo78VedRBWPzTzkMf-360" value="EmployeeandBenefits" style="shape=table;startSize=30;container=1;collapsible=1;childLayout=tableLayout;fixedRows=1;rowLines=0;fontStyle=1;align=center;resizeLast=1;" vertex="1" parent="1">
          <mxGeometry x="1161" y="483" width="199" height="213" as="geometry" />
        </mxCell>
        <mxCell id="LMtuo78VedRBWPzTzkMf-361" value="" style="shape=partialRectangle;collapsible=0;dropTarget=0;pointerEvents=0;fillColor=none;points=[[0,0.5],[1,0.5]];portConstraint=eastwest;top=0;left=0;right=0;bottom=1;" vertex="1" parent="LMtuo78VedRBWPzTzkMf-360">
          <mxGeometry y="30" width="199" height="103" as="geometry" />
        </mxCell>
        <mxCell id="LMtuo78VedRBWPzTzkMf-362" value="PK,FK1&#xa;&#xa;PK,FK2&#xa;&#xa;PK,FK3" style="shape=partialRectangle;overflow=hidden;connectable=0;fillColor=none;top=0;left=0;bottom=0;right=0;fontStyle=1;" vertex="1" parent="LMtuo78VedRBWPzTzkMf-361">
          <mxGeometry width="63.75" height="103" as="geometry">
            <mxRectangle width="63.75" height="103" as="alternateBounds" />
          </mxGeometry>
        </mxCell>
        <mxCell id="LMtuo78VedRBWPzTzkMf-363" value="BenefitTypeID&#xa;&#xa;EmployeeID&#xa;&#xa;BenefitCoverID" style="shape=partialRectangle;overflow=hidden;connectable=0;fillColor=none;top=0;left=0;bottom=0;right=0;align=left;spacingLeft=6;fontStyle=5;" vertex="1" parent="LMtuo78VedRBWPzTzkMf-361">
          <mxGeometry x="63.75" width="135.25" height="103" as="geometry">
            <mxRectangle width="135.25" height="103" as="alternateBounds" />
          </mxGeometry>
        </mxCell>
        <mxCell id="LMtuo78VedRBWPzTzkMf-364" value="" style="shape=partialRectangle;collapsible=0;dropTarget=0;pointerEvents=0;fillColor=none;points=[[0,0.5],[1,0.5]];portConstraint=eastwest;top=0;left=0;right=0;bottom=1;" vertex="1" parent="LMtuo78VedRBWPzTzkMf-360">
          <mxGeometry y="133" width="199" height="80" as="geometry" />
        </mxCell>
        <mxCell id="LMtuo78VedRBWPzTzkMf-365" value="" style="shape=partialRectangle;overflow=hidden;connectable=0;fillColor=none;top=0;left=0;bottom=0;right=0;fontStyle=1;" vertex="1" parent="LMtuo78VedRBWPzTzkMf-364">
          <mxGeometry width="63.75" height="80" as="geometry">
            <mxRectangle width="63.75" height="80" as="alternateBounds" />
          </mxGeometry>
        </mxCell>
        <mxCell id="LMtuo78VedRBWPzTzkMf-366" value="EmployeePremium&#xa;&#xa;EmployerPremium" style="shape=partialRectangle;overflow=hidden;connectable=0;fillColor=none;top=0;left=0;bottom=0;right=0;align=left;spacingLeft=6;fontStyle=0;" vertex="1" parent="LMtuo78VedRBWPzTzkMf-364">
          <mxGeometry x="63.75" width="135.25" height="80" as="geometry">
            <mxRectangle width="135.25" height="80" as="alternateBounds" />
          </mxGeometry>
        </mxCell>
        <mxCell id="LMtuo78VedRBWPzTzkMf-370" value="BenefitType" style="shape=table;startSize=30;container=1;collapsible=1;childLayout=tableLayout;fixedRows=1;rowLines=0;fontStyle=1;align=center;resizeLast=1;" vertex="1" parent="1">
          <mxGeometry x="1463" y="18" width="163.5" height="93" as="geometry" />
        </mxCell>
        <mxCell id="LMtuo78VedRBWPzTzkMf-371" value="" style="shape=partialRectangle;collapsible=0;dropTarget=0;pointerEvents=0;fillColor=none;points=[[0,0.5],[1,0.5]];portConstraint=eastwest;top=0;left=0;right=0;bottom=1;" vertex="1" parent="LMtuo78VedRBWPzTzkMf-370">
          <mxGeometry y="30" width="163.5" height="30" as="geometry" />
        </mxCell>
        <mxCell id="LMtuo78VedRBWPzTzkMf-372" value="PK" style="shape=partialRectangle;overflow=hidden;connectable=0;fillColor=none;top=0;left=0;bottom=0;right=0;fontStyle=1;" vertex="1" parent="LMtuo78VedRBWPzTzkMf-371">
          <mxGeometry width="63.75" height="30" as="geometry">
            <mxRectangle width="63.75" height="30" as="alternateBounds" />
          </mxGeometry>
        </mxCell>
        <mxCell id="LMtuo78VedRBWPzTzkMf-373" value="BenefitTypeID" style="shape=partialRectangle;overflow=hidden;connectable=0;fillColor=none;top=0;left=0;bottom=0;right=0;align=left;spacingLeft=6;fontStyle=5;" vertex="1" parent="LMtuo78VedRBWPzTzkMf-371">
          <mxGeometry x="63.75" width="99.75" height="30" as="geometry">
            <mxRectangle width="99.75" height="30" as="alternateBounds" />
          </mxGeometry>
        </mxCell>
        <mxCell id="LMtuo78VedRBWPzTzkMf-374" value="" style="shape=partialRectangle;collapsible=0;dropTarget=0;pointerEvents=0;fillColor=none;points=[[0,0.5],[1,0.5]];portConstraint=eastwest;top=0;left=0;right=0;bottom=0;" vertex="1" parent="LMtuo78VedRBWPzTzkMf-370">
          <mxGeometry y="60" width="163.5" height="33" as="geometry" />
        </mxCell>
        <mxCell id="LMtuo78VedRBWPzTzkMf-375" value="" style="shape=partialRectangle;overflow=hidden;connectable=0;fillColor=none;top=0;left=0;bottom=0;right=0;" vertex="1" parent="LMtuo78VedRBWPzTzkMf-374">
          <mxGeometry width="63.75" height="33" as="geometry">
            <mxRectangle width="63.75" height="33" as="alternateBounds" />
          </mxGeometry>
        </mxCell>
        <mxCell id="LMtuo78VedRBWPzTzkMf-376" value="Text" style="shape=partialRectangle;overflow=hidden;connectable=0;fillColor=none;top=0;left=0;bottom=0;right=0;align=left;spacingLeft=6;" vertex="1" parent="LMtuo78VedRBWPzTzkMf-374">
          <mxGeometry x="63.75" width="99.75" height="33" as="geometry">
            <mxRectangle width="99.75" height="33" as="alternateBounds" />
          </mxGeometry>
        </mxCell>
        <mxCell id="LMtuo78VedRBWPzTzkMf-377" value="SemesterText" style="shape=table;startSize=30;container=1;collapsible=1;childLayout=tableLayout;fixedRows=1;rowLines=0;fontStyle=1;align=center;resizeLast=1;" vertex="1" parent="1">
          <mxGeometry x="1186" y="246" width="174" height="93" as="geometry" />
        </mxCell>
        <mxCell id="LMtuo78VedRBWPzTzkMf-378" value="" style="shape=partialRectangle;collapsible=0;dropTarget=0;pointerEvents=0;fillColor=none;points=[[0,0.5],[1,0.5]];portConstraint=eastwest;top=0;left=0;right=0;bottom=1;" vertex="1" parent="LMtuo78VedRBWPzTzkMf-377">
          <mxGeometry y="30" width="174" height="30" as="geometry" />
        </mxCell>
        <mxCell id="LMtuo78VedRBWPzTzkMf-379" value="PK" style="shape=partialRectangle;overflow=hidden;connectable=0;fillColor=none;top=0;left=0;bottom=0;right=0;fontStyle=1;" vertex="1" parent="LMtuo78VedRBWPzTzkMf-378">
          <mxGeometry width="63.75" height="30" as="geometry">
            <mxRectangle width="63.75" height="30" as="alternateBounds" />
          </mxGeometry>
        </mxCell>
        <mxCell id="LMtuo78VedRBWPzTzkMf-380" value="SemesterTextID" style="shape=partialRectangle;overflow=hidden;connectable=0;fillColor=none;top=0;left=0;bottom=0;right=0;align=left;spacingLeft=6;fontStyle=5;" vertex="1" parent="LMtuo78VedRBWPzTzkMf-378">
          <mxGeometry x="63.75" width="110.25" height="30" as="geometry">
            <mxRectangle width="110.25" height="30" as="alternateBounds" />
          </mxGeometry>
        </mxCell>
        <mxCell id="LMtuo78VedRBWPzTzkMf-381" value="" style="shape=partialRectangle;collapsible=0;dropTarget=0;pointerEvents=0;fillColor=none;points=[[0,0.5],[1,0.5]];portConstraint=eastwest;top=0;left=0;right=0;bottom=0;" vertex="1" parent="LMtuo78VedRBWPzTzkMf-377">
          <mxGeometry y="60" width="174" height="33" as="geometry" />
        </mxCell>
        <mxCell id="LMtuo78VedRBWPzTzkMf-382" value="" style="shape=partialRectangle;overflow=hidden;connectable=0;fillColor=none;top=0;left=0;bottom=0;right=0;" vertex="1" parent="LMtuo78VedRBWPzTzkMf-381">
          <mxGeometry width="63.75" height="33" as="geometry">
            <mxRectangle width="63.75" height="33" as="alternateBounds" />
          </mxGeometry>
        </mxCell>
        <mxCell id="LMtuo78VedRBWPzTzkMf-383" value="SemesterText" style="shape=partialRectangle;overflow=hidden;connectable=0;fillColor=none;top=0;left=0;bottom=0;right=0;align=left;spacingLeft=6;" vertex="1" parent="LMtuo78VedRBWPzTzkMf-381">
          <mxGeometry x="63.75" width="110.25" height="33" as="geometry">
            <mxRectangle width="110.25" height="33" as="alternateBounds" />
          </mxGeometry>
        </mxCell>
        <mxCell id="LMtuo78VedRBWPzTzkMf-384" value="BenefitCoverage" style="shape=table;startSize=30;container=1;collapsible=1;childLayout=tableLayout;fixedRows=1;rowLines=0;fontStyle=1;align=center;resizeLast=1;" vertex="1" parent="1">
          <mxGeometry x="1469" y="125" width="174" height="93" as="geometry" />
        </mxCell>
        <mxCell id="LMtuo78VedRBWPzTzkMf-385" value="" style="shape=partialRectangle;collapsible=0;dropTarget=0;pointerEvents=0;fillColor=none;points=[[0,0.5],[1,0.5]];portConstraint=eastwest;top=0;left=0;right=0;bottom=1;" vertex="1" parent="LMtuo78VedRBWPzTzkMf-384">
          <mxGeometry y="30" width="174" height="30" as="geometry" />
        </mxCell>
        <mxCell id="LMtuo78VedRBWPzTzkMf-386" value="PK" style="shape=partialRectangle;overflow=hidden;connectable=0;fillColor=none;top=0;left=0;bottom=0;right=0;fontStyle=1;" vertex="1" parent="LMtuo78VedRBWPzTzkMf-385">
          <mxGeometry width="63.75" height="30" as="geometry">
            <mxRectangle width="63.75" height="30" as="alternateBounds" />
          </mxGeometry>
        </mxCell>
        <mxCell id="LMtuo78VedRBWPzTzkMf-387" value="BenefitCoverID" style="shape=partialRectangle;overflow=hidden;connectable=0;fillColor=none;top=0;left=0;bottom=0;right=0;align=left;spacingLeft=6;fontStyle=5;" vertex="1" parent="LMtuo78VedRBWPzTzkMf-385">
          <mxGeometry x="63.75" width="110.25" height="30" as="geometry">
            <mxRectangle width="110.25" height="30" as="alternateBounds" />
          </mxGeometry>
        </mxCell>
        <mxCell id="LMtuo78VedRBWPzTzkMf-388" value="" style="shape=partialRectangle;collapsible=0;dropTarget=0;pointerEvents=0;fillColor=none;points=[[0,0.5],[1,0.5]];portConstraint=eastwest;top=0;left=0;right=0;bottom=0;" vertex="1" parent="LMtuo78VedRBWPzTzkMf-384">
          <mxGeometry y="60" width="174" height="33" as="geometry" />
        </mxCell>
        <mxCell id="LMtuo78VedRBWPzTzkMf-389" value="" style="shape=partialRectangle;overflow=hidden;connectable=0;fillColor=none;top=0;left=0;bottom=0;right=0;" vertex="1" parent="LMtuo78VedRBWPzTzkMf-388">
          <mxGeometry width="63.75" height="33" as="geometry">
            <mxRectangle width="63.75" height="33" as="alternateBounds" />
          </mxGeometry>
        </mxCell>
        <mxCell id="LMtuo78VedRBWPzTzkMf-390" value="Text" style="shape=partialRectangle;overflow=hidden;connectable=0;fillColor=none;top=0;left=0;bottom=0;right=0;align=left;spacingLeft=6;" vertex="1" parent="LMtuo78VedRBWPzTzkMf-388">
          <mxGeometry x="63.75" width="110.25" height="33" as="geometry">
            <mxRectangle width="110.25" height="33" as="alternateBounds" />
          </mxGeometry>
        </mxCell>
        <mxCell id="LMtuo78VedRBWPzTzkMf-391" value="EmployeeandJobs" style="shape=table;startSize=30;container=1;collapsible=1;childLayout=tableLayout;fixedRows=1;rowLines=0;fontStyle=1;align=center;resizeLast=1;" vertex="1" parent="1">
          <mxGeometry x="1200" y="789" width="168" height="123" as="geometry" />
        </mxCell>
        <mxCell id="LMtuo78VedRBWPzTzkMf-392" value="" style="shape=partialRectangle;collapsible=0;dropTarget=0;pointerEvents=0;fillColor=none;points=[[0,0.5],[1,0.5]];portConstraint=eastwest;top=0;left=0;right=0;bottom=1;" vertex="1" parent="LMtuo78VedRBWPzTzkMf-391">
          <mxGeometry y="30" width="168" height="68" as="geometry" />
        </mxCell>
        <mxCell id="LMtuo78VedRBWPzTzkMf-393" value="PK,FK1&#xa;&#xa;PK,FK2" style="shape=partialRectangle;overflow=hidden;connectable=0;fillColor=none;top=0;left=0;bottom=0;right=0;fontStyle=1;" vertex="1" parent="LMtuo78VedRBWPzTzkMf-392">
          <mxGeometry width="63.75" height="68" as="geometry">
            <mxRectangle width="63.75" height="68" as="alternateBounds" />
          </mxGeometry>
        </mxCell>
        <mxCell id="LMtuo78VedRBWPzTzkMf-394" value="JOBID&#xa;&#xa;EmployeeID" style="shape=partialRectangle;overflow=hidden;connectable=0;fillColor=none;top=0;left=0;bottom=0;right=0;align=left;spacingLeft=6;fontStyle=5;" vertex="1" parent="LMtuo78VedRBWPzTzkMf-392">
          <mxGeometry x="63.75" width="104.25" height="68" as="geometry">
            <mxRectangle width="104.25" height="68" as="alternateBounds" />
          </mxGeometry>
        </mxCell>
        <mxCell id="LMtuo78VedRBWPzTzkMf-395" value="" style="shape=partialRectangle;collapsible=0;dropTarget=0;pointerEvents=0;fillColor=none;points=[[0,0.5],[1,0.5]];portConstraint=eastwest;top=0;left=0;right=0;bottom=1;" vertex="1" parent="LMtuo78VedRBWPzTzkMf-391">
          <mxGeometry y="98" width="168" height="25" as="geometry" />
        </mxCell>
        <mxCell id="LMtuo78VedRBWPzTzkMf-396" value="" style="shape=partialRectangle;overflow=hidden;connectable=0;fillColor=none;top=0;left=0;bottom=0;right=0;fontStyle=1;" vertex="1" parent="LMtuo78VedRBWPzTzkMf-395">
          <mxGeometry width="63.75" height="25" as="geometry">
            <mxRectangle width="63.75" height="25" as="alternateBounds" />
          </mxGeometry>
        </mxCell>
        <mxCell id="LMtuo78VedRBWPzTzkMf-397" value="" style="shape=partialRectangle;overflow=hidden;connectable=0;fillColor=none;top=0;left=0;bottom=0;right=0;align=left;spacingLeft=6;fontStyle=5;" vertex="1" parent="LMtuo78VedRBWPzTzkMf-395">
          <mxGeometry x="63.75" width="104.25" height="25" as="geometry">
            <mxRectangle width="104.25" height="25" as="alternateBounds" />
          </mxGeometry>
        </mxCell>
        <mxCell id="LMtuo78VedRBWPzTzkMf-398" value="Classroom" style="shape=table;startSize=30;container=1;collapsible=1;childLayout=tableLayout;fixedRows=1;rowLines=0;fontStyle=1;align=center;resizeLast=1;" vertex="1" parent="1">
          <mxGeometry x="1460" y="587" width="134" height="271" as="geometry" />
        </mxCell>
        <mxCell id="LMtuo78VedRBWPzTzkMf-399" value="" style="shape=partialRectangle;collapsible=0;dropTarget=0;pointerEvents=0;fillColor=none;points=[[0,0.5],[1,0.5]];portConstraint=eastwest;top=0;left=0;right=0;bottom=1;" vertex="1" parent="LMtuo78VedRBWPzTzkMf-398">
          <mxGeometry y="30" width="134" height="30" as="geometry" />
        </mxCell>
        <mxCell id="LMtuo78VedRBWPzTzkMf-400" value="PK" style="shape=partialRectangle;overflow=hidden;connectable=0;fillColor=none;top=0;left=0;bottom=0;right=0;fontStyle=1;" vertex="1" parent="LMtuo78VedRBWPzTzkMf-399">
          <mxGeometry width="30" height="30" as="geometry">
            <mxRectangle width="30" height="30" as="alternateBounds" />
          </mxGeometry>
        </mxCell>
        <mxCell id="LMtuo78VedRBWPzTzkMf-401" value="ClassroomID" style="shape=partialRectangle;overflow=hidden;connectable=0;fillColor=none;top=0;left=0;bottom=0;right=0;align=left;spacingLeft=6;fontStyle=5;" vertex="1" parent="LMtuo78VedRBWPzTzkMf-399">
          <mxGeometry x="30" width="104" height="30" as="geometry">
            <mxRectangle width="104" height="30" as="alternateBounds" />
          </mxGeometry>
        </mxCell>
        <mxCell id="LMtuo78VedRBWPzTzkMf-402" value="" style="shape=partialRectangle;collapsible=0;dropTarget=0;pointerEvents=0;fillColor=none;points=[[0,0.5],[1,0.5]];portConstraint=eastwest;top=0;left=0;right=0;bottom=0;" vertex="1" parent="LMtuo78VedRBWPzTzkMf-398">
          <mxGeometry y="60" width="134" height="30" as="geometry" />
        </mxCell>
        <mxCell id="LMtuo78VedRBWPzTzkMf-403" value="FK1" style="shape=partialRectangle;overflow=hidden;connectable=0;fillColor=none;top=0;left=0;bottom=0;right=0;fontStyle=1" vertex="1" parent="LMtuo78VedRBWPzTzkMf-402">
          <mxGeometry width="30" height="30" as="geometry">
            <mxRectangle width="30" height="30" as="alternateBounds" />
          </mxGeometry>
        </mxCell>
        <mxCell id="LMtuo78VedRBWPzTzkMf-404" value="BuildingID" style="shape=partialRectangle;overflow=hidden;connectable=0;fillColor=none;top=0;left=0;bottom=0;right=0;align=left;spacingLeft=6;fontStyle=1" vertex="1" parent="LMtuo78VedRBWPzTzkMf-402">
          <mxGeometry x="30" width="104" height="30" as="geometry">
            <mxRectangle width="104" height="30" as="alternateBounds" />
          </mxGeometry>
        </mxCell>
        <mxCell id="LMtuo78VedRBWPzTzkMf-405" value="" style="shape=partialRectangle;collapsible=0;dropTarget=0;pointerEvents=0;fillColor=none;points=[[0,0.5],[1,0.5]];portConstraint=eastwest;top=0;left=0;right=0;bottom=0;" vertex="1" parent="LMtuo78VedRBWPzTzkMf-398">
          <mxGeometry y="90" width="134" height="30" as="geometry" />
        </mxCell>
        <mxCell id="LMtuo78VedRBWPzTzkMf-406" value="" style="shape=partialRectangle;overflow=hidden;connectable=0;fillColor=none;top=0;left=0;bottom=0;right=0;" vertex="1" parent="LMtuo78VedRBWPzTzkMf-405">
          <mxGeometry width="30" height="30" as="geometry">
            <mxRectangle width="30" height="30" as="alternateBounds" />
          </mxGeometry>
        </mxCell>
        <mxCell id="LMtuo78VedRBWPzTzkMf-407" value="Level" style="shape=partialRectangle;overflow=hidden;connectable=0;fillColor=none;top=0;left=0;bottom=0;right=0;align=left;spacingLeft=6;" vertex="1" parent="LMtuo78VedRBWPzTzkMf-405">
          <mxGeometry x="30" width="104" height="30" as="geometry">
            <mxRectangle width="104" height="30" as="alternateBounds" />
          </mxGeometry>
        </mxCell>
        <mxCell id="LMtuo78VedRBWPzTzkMf-408" value="" style="shape=partialRectangle;collapsible=0;dropTarget=0;pointerEvents=0;fillColor=none;points=[[0,0.5],[1,0.5]];portConstraint=eastwest;top=0;left=0;right=0;bottom=0;" vertex="1" parent="LMtuo78VedRBWPzTzkMf-398">
          <mxGeometry y="120" width="134" height="30" as="geometry" />
        </mxCell>
        <mxCell id="LMtuo78VedRBWPzTzkMf-409" value="" style="shape=partialRectangle;overflow=hidden;connectable=0;fillColor=none;top=0;left=0;bottom=0;right=0;" vertex="1" parent="LMtuo78VedRBWPzTzkMf-408">
          <mxGeometry width="30" height="30" as="geometry">
            <mxRectangle width="30" height="30" as="alternateBounds" />
          </mxGeometry>
        </mxCell>
        <mxCell id="LMtuo78VedRBWPzTzkMf-410" value="RoomNumber" style="shape=partialRectangle;overflow=hidden;connectable=0;fillColor=none;top=0;left=0;bottom=0;right=0;align=left;spacingLeft=6;" vertex="1" parent="LMtuo78VedRBWPzTzkMf-408">
          <mxGeometry x="30" width="104" height="30" as="geometry">
            <mxRectangle width="104" height="30" as="alternateBounds" />
          </mxGeometry>
        </mxCell>
        <mxCell id="LMtuo78VedRBWPzTzkMf-411" value="" style="shape=partialRectangle;collapsible=0;dropTarget=0;pointerEvents=0;fillColor=none;points=[[0,0.5],[1,0.5]];portConstraint=eastwest;top=0;left=0;right=0;bottom=0;" vertex="1" parent="LMtuo78VedRBWPzTzkMf-398">
          <mxGeometry y="150" width="134" height="30" as="geometry" />
        </mxCell>
        <mxCell id="LMtuo78VedRBWPzTzkMf-412" value="FK2" style="shape=partialRectangle;overflow=hidden;connectable=0;fillColor=none;top=0;left=0;bottom=0;right=0;fontStyle=1" vertex="1" parent="LMtuo78VedRBWPzTzkMf-411">
          <mxGeometry width="30" height="30" as="geometry">
            <mxRectangle width="30" height="30" as="alternateBounds" />
          </mxGeometry>
        </mxCell>
        <mxCell id="LMtuo78VedRBWPzTzkMf-413" value="ProjectorID" style="shape=partialRectangle;overflow=hidden;connectable=0;fillColor=none;top=0;left=0;bottom=0;right=0;align=left;spacingLeft=6;fontStyle=1" vertex="1" parent="LMtuo78VedRBWPzTzkMf-411">
          <mxGeometry x="30" width="104" height="30" as="geometry">
            <mxRectangle width="104" height="30" as="alternateBounds" />
          </mxGeometry>
        </mxCell>
        <mxCell id="LMtuo78VedRBWPzTzkMf-414" value="" style="shape=partialRectangle;collapsible=0;dropTarget=0;pointerEvents=0;fillColor=none;points=[[0,0.5],[1,0.5]];portConstraint=eastwest;top=0;left=0;right=0;bottom=0;" vertex="1" parent="LMtuo78VedRBWPzTzkMf-398">
          <mxGeometry y="180" width="134" height="30" as="geometry" />
        </mxCell>
        <mxCell id="LMtuo78VedRBWPzTzkMf-415" value="" style="shape=partialRectangle;overflow=hidden;connectable=0;fillColor=none;top=0;left=0;bottom=0;right=0;" vertex="1" parent="LMtuo78VedRBWPzTzkMf-414">
          <mxGeometry width="30" height="30" as="geometry">
            <mxRectangle width="30" height="30" as="alternateBounds" />
          </mxGeometry>
        </mxCell>
        <mxCell id="LMtuo78VedRBWPzTzkMf-416" value="WhiteBoardCount" style="shape=partialRectangle;overflow=hidden;connectable=0;fillColor=none;top=0;left=0;bottom=0;right=0;align=left;spacingLeft=6;" vertex="1" parent="LMtuo78VedRBWPzTzkMf-414">
          <mxGeometry x="30" width="104" height="30" as="geometry">
            <mxRectangle width="104" height="30" as="alternateBounds" />
          </mxGeometry>
        </mxCell>
        <mxCell id="LMtuo78VedRBWPzTzkMf-417" value="" style="shape=partialRectangle;collapsible=0;dropTarget=0;pointerEvents=0;fillColor=none;points=[[0,0.5],[1,0.5]];portConstraint=eastwest;top=0;left=0;right=0;bottom=0;" vertex="1" parent="LMtuo78VedRBWPzTzkMf-398">
          <mxGeometry y="210" width="134" height="30" as="geometry" />
        </mxCell>
        <mxCell id="LMtuo78VedRBWPzTzkMf-418" value="" style="shape=partialRectangle;overflow=hidden;connectable=0;fillColor=none;top=0;left=0;bottom=0;right=0;" vertex="1" parent="LMtuo78VedRBWPzTzkMf-417">
          <mxGeometry width="30" height="30" as="geometry">
            <mxRectangle width="30" height="30" as="alternateBounds" />
          </mxGeometry>
        </mxCell>
        <mxCell id="LMtuo78VedRBWPzTzkMf-419" value="MaximumSeating" style="shape=partialRectangle;overflow=hidden;connectable=0;fillColor=none;top=0;left=0;bottom=0;right=0;align=left;spacingLeft=6;" vertex="1" parent="LMtuo78VedRBWPzTzkMf-417">
          <mxGeometry x="30" width="104" height="30" as="geometry">
            <mxRectangle width="104" height="30" as="alternateBounds" />
          </mxGeometry>
        </mxCell>
        <mxCell id="LMtuo78VedRBWPzTzkMf-420" value="" style="shape=partialRectangle;collapsible=0;dropTarget=0;pointerEvents=0;fillColor=none;points=[[0,0.5],[1,0.5]];portConstraint=eastwest;top=0;left=0;right=0;bottom=0;" vertex="1" parent="LMtuo78VedRBWPzTzkMf-398">
          <mxGeometry y="240" width="134" height="30" as="geometry" />
        </mxCell>
        <mxCell id="LMtuo78VedRBWPzTzkMf-421" value="" style="shape=partialRectangle;overflow=hidden;connectable=0;fillColor=none;top=0;left=0;bottom=0;right=0;" vertex="1" parent="LMtuo78VedRBWPzTzkMf-420">
          <mxGeometry width="30" height="30" as="geometry">
            <mxRectangle width="30" height="30" as="alternateBounds" />
          </mxGeometry>
        </mxCell>
        <mxCell id="LMtuo78VedRBWPzTzkMf-422" value="TypeIndicator" style="shape=partialRectangle;overflow=hidden;connectable=0;fillColor=none;top=0;left=0;bottom=0;right=0;align=left;spacingLeft=6;" vertex="1" parent="LMtuo78VedRBWPzTzkMf-420">
          <mxGeometry x="30" width="104" height="30" as="geometry">
            <mxRectangle width="104" height="30" as="alternateBounds" />
          </mxGeometry>
        </mxCell>
        <mxCell id="LMtuo78VedRBWPzTzkMf-423" value="JobTypeDetail" style="shape=table;startSize=30;container=1;collapsible=1;childLayout=tableLayout;fixedRows=1;rowLines=0;fontStyle=1;align=center;resizeLast=1;" vertex="1" parent="1">
          <mxGeometry x="1210" y="36" width="174" height="93" as="geometry" />
        </mxCell>
        <mxCell id="LMtuo78VedRBWPzTzkMf-424" value="" style="shape=partialRectangle;collapsible=0;dropTarget=0;pointerEvents=0;fillColor=none;points=[[0,0.5],[1,0.5]];portConstraint=eastwest;top=0;left=0;right=0;bottom=1;" vertex="1" parent="LMtuo78VedRBWPzTzkMf-423">
          <mxGeometry y="30" width="174" height="30" as="geometry" />
        </mxCell>
        <mxCell id="LMtuo78VedRBWPzTzkMf-425" value="PK" style="shape=partialRectangle;overflow=hidden;connectable=0;fillColor=none;top=0;left=0;bottom=0;right=0;fontStyle=1;" vertex="1" parent="LMtuo78VedRBWPzTzkMf-424">
          <mxGeometry width="63.75" height="30" as="geometry">
            <mxRectangle width="63.75" height="30" as="alternateBounds" />
          </mxGeometry>
        </mxCell>
        <mxCell id="LMtuo78VedRBWPzTzkMf-426" value="JobtypeDetailID" style="shape=partialRectangle;overflow=hidden;connectable=0;fillColor=none;top=0;left=0;bottom=0;right=0;align=left;spacingLeft=6;fontStyle=5;" vertex="1" parent="LMtuo78VedRBWPzTzkMf-424">
          <mxGeometry x="63.75" width="110.25" height="30" as="geometry">
            <mxRectangle width="110.25" height="30" as="alternateBounds" />
          </mxGeometry>
        </mxCell>
        <mxCell id="LMtuo78VedRBWPzTzkMf-427" value="" style="shape=partialRectangle;collapsible=0;dropTarget=0;pointerEvents=0;fillColor=none;points=[[0,0.5],[1,0.5]];portConstraint=eastwest;top=0;left=0;right=0;bottom=0;" vertex="1" parent="LMtuo78VedRBWPzTzkMf-423">
          <mxGeometry y="60" width="174" height="33" as="geometry" />
        </mxCell>
        <mxCell id="LMtuo78VedRBWPzTzkMf-428" value="" style="shape=partialRectangle;overflow=hidden;connectable=0;fillColor=none;top=0;left=0;bottom=0;right=0;" vertex="1" parent="LMtuo78VedRBWPzTzkMf-427">
          <mxGeometry width="63.75" height="33" as="geometry">
            <mxRectangle width="63.75" height="33" as="alternateBounds" />
          </mxGeometry>
        </mxCell>
        <mxCell id="LMtuo78VedRBWPzTzkMf-429" value="Text" style="shape=partialRectangle;overflow=hidden;connectable=0;fillColor=none;top=0;left=0;bottom=0;right=0;align=left;spacingLeft=6;" vertex="1" parent="LMtuo78VedRBWPzTzkMf-427">
          <mxGeometry x="63.75" width="110.25" height="33" as="geometry">
            <mxRectangle width="110.25" height="33" as="alternateBounds" />
          </mxGeometry>
        </mxCell>
        <mxCell id="LMtuo78VedRBWPzTzkMf-430" value="Buildings" style="shape=table;startSize=30;container=1;collapsible=1;childLayout=tableLayout;fixedRows=1;rowLines=0;fontStyle=1;align=center;resizeLast=1;" vertex="1" parent="1">
          <mxGeometry x="1210" y="955" width="174" height="93" as="geometry" />
        </mxCell>
        <mxCell id="LMtuo78VedRBWPzTzkMf-431" value="" style="shape=partialRectangle;collapsible=0;dropTarget=0;pointerEvents=0;fillColor=none;points=[[0,0.5],[1,0.5]];portConstraint=eastwest;top=0;left=0;right=0;bottom=1;" vertex="1" parent="LMtuo78VedRBWPzTzkMf-430">
          <mxGeometry y="30" width="174" height="30" as="geometry" />
        </mxCell>
        <mxCell id="LMtuo78VedRBWPzTzkMf-432" value="PK" style="shape=partialRectangle;overflow=hidden;connectable=0;fillColor=none;top=0;left=0;bottom=0;right=0;fontStyle=1;" vertex="1" parent="LMtuo78VedRBWPzTzkMf-431">
          <mxGeometry width="63.75" height="30" as="geometry">
            <mxRectangle width="63.75" height="30" as="alternateBounds" />
          </mxGeometry>
        </mxCell>
        <mxCell id="LMtuo78VedRBWPzTzkMf-433" value="BuildingID" style="shape=partialRectangle;overflow=hidden;connectable=0;fillColor=none;top=0;left=0;bottom=0;right=0;align=left;spacingLeft=6;fontStyle=5;" vertex="1" parent="LMtuo78VedRBWPzTzkMf-431">
          <mxGeometry x="63.75" width="110.25" height="30" as="geometry">
            <mxRectangle width="110.25" height="30" as="alternateBounds" />
          </mxGeometry>
        </mxCell>
        <mxCell id="LMtuo78VedRBWPzTzkMf-434" value="" style="shape=partialRectangle;collapsible=0;dropTarget=0;pointerEvents=0;fillColor=none;points=[[0,0.5],[1,0.5]];portConstraint=eastwest;top=0;left=0;right=0;bottom=0;" vertex="1" parent="LMtuo78VedRBWPzTzkMf-430">
          <mxGeometry y="60" width="174" height="33" as="geometry" />
        </mxCell>
        <mxCell id="LMtuo78VedRBWPzTzkMf-435" value="" style="shape=partialRectangle;overflow=hidden;connectable=0;fillColor=none;top=0;left=0;bottom=0;right=0;" vertex="1" parent="LMtuo78VedRBWPzTzkMf-434">
          <mxGeometry width="63.75" height="33" as="geometry">
            <mxRectangle width="63.75" height="33" as="alternateBounds" />
          </mxGeometry>
        </mxCell>
        <mxCell id="LMtuo78VedRBWPzTzkMf-436" value="BuildingText" style="shape=partialRectangle;overflow=hidden;connectable=0;fillColor=none;top=0;left=0;bottom=0;right=0;align=left;spacingLeft=6;" vertex="1" parent="LMtuo78VedRBWPzTzkMf-434">
          <mxGeometry x="63.75" width="110.25" height="33" as="geometry">
            <mxRectangle width="110.25" height="33" as="alternateBounds" />
          </mxGeometry>
        </mxCell>
        <mxCell id="LMtuo78VedRBWPzTzkMf-437" value="ProjectorInfo" style="shape=table;startSize=30;container=1;collapsible=1;childLayout=tableLayout;fixedRows=1;rowLines=0;fontStyle=1;align=center;resizeLast=1;" vertex="1" parent="1">
          <mxGeometry x="1469" y="968" width="174" height="93" as="geometry" />
        </mxCell>
        <mxCell id="LMtuo78VedRBWPzTzkMf-438" value="" style="shape=partialRectangle;collapsible=0;dropTarget=0;pointerEvents=0;fillColor=none;points=[[0,0.5],[1,0.5]];portConstraint=eastwest;top=0;left=0;right=0;bottom=1;" vertex="1" parent="LMtuo78VedRBWPzTzkMf-437">
          <mxGeometry y="30" width="174" height="30" as="geometry" />
        </mxCell>
        <mxCell id="LMtuo78VedRBWPzTzkMf-439" value="PK" style="shape=partialRectangle;overflow=hidden;connectable=0;fillColor=none;top=0;left=0;bottom=0;right=0;fontStyle=1;" vertex="1" parent="LMtuo78VedRBWPzTzkMf-438">
          <mxGeometry width="63.75" height="30" as="geometry">
            <mxRectangle width="63.75" height="30" as="alternateBounds" />
          </mxGeometry>
        </mxCell>
        <mxCell id="LMtuo78VedRBWPzTzkMf-440" value="ProjectorID" style="shape=partialRectangle;overflow=hidden;connectable=0;fillColor=none;top=0;left=0;bottom=0;right=0;align=left;spacingLeft=6;fontStyle=5;" vertex="1" parent="LMtuo78VedRBWPzTzkMf-438">
          <mxGeometry x="63.75" width="110.25" height="30" as="geometry">
            <mxRectangle width="110.25" height="30" as="alternateBounds" />
          </mxGeometry>
        </mxCell>
        <mxCell id="LMtuo78VedRBWPzTzkMf-441" value="" style="shape=partialRectangle;collapsible=0;dropTarget=0;pointerEvents=0;fillColor=none;points=[[0,0.5],[1,0.5]];portConstraint=eastwest;top=0;left=0;right=0;bottom=0;" vertex="1" parent="LMtuo78VedRBWPzTzkMf-437">
          <mxGeometry y="60" width="174" height="33" as="geometry" />
        </mxCell>
        <mxCell id="LMtuo78VedRBWPzTzkMf-442" value="" style="shape=partialRectangle;overflow=hidden;connectable=0;fillColor=none;top=0;left=0;bottom=0;right=0;" vertex="1" parent="LMtuo78VedRBWPzTzkMf-441">
          <mxGeometry width="63.75" height="33" as="geometry">
            <mxRectangle width="63.75" height="33" as="alternateBounds" />
          </mxGeometry>
        </mxCell>
        <mxCell id="LMtuo78VedRBWPzTzkMf-443" value="ProjectorText" style="shape=partialRectangle;overflow=hidden;connectable=0;fillColor=none;top=0;left=0;bottom=0;right=0;align=left;spacingLeft=6;" vertex="1" parent="LMtuo78VedRBWPzTzkMf-441">
          <mxGeometry x="63.75" width="110.25" height="33" as="geometry">
            <mxRectangle width="110.25" height="33" as="alternateBounds" />
          </mxGeometry>
        </mxCell>
        <mxCell id="LMtuo78VedRBWPzTzkMf-444" value="JobInfo" style="shape=table;startSize=30;container=1;collapsible=1;childLayout=tableLayout;fixedRows=1;rowLines=0;fontStyle=1;align=center;resizeLast=1;" vertex="1" parent="1">
          <mxGeometry x="1507" y="241" width="138" height="242" as="geometry" />
        </mxCell>
        <mxCell id="LMtuo78VedRBWPzTzkMf-445" value="" style="shape=partialRectangle;collapsible=0;dropTarget=0;pointerEvents=0;fillColor=none;points=[[0,0.5],[1,0.5]];portConstraint=eastwest;top=0;left=0;right=0;bottom=1;" vertex="1" parent="LMtuo78VedRBWPzTzkMf-444">
          <mxGeometry y="30" width="138" height="30" as="geometry" />
        </mxCell>
        <mxCell id="LMtuo78VedRBWPzTzkMf-446" value="PK" style="shape=partialRectangle;overflow=hidden;connectable=0;fillColor=none;top=0;left=0;bottom=0;right=0;fontStyle=1;" vertex="1" parent="LMtuo78VedRBWPzTzkMf-445">
          <mxGeometry width="30" height="30" as="geometry">
            <mxRectangle width="30" height="30" as="alternateBounds" />
          </mxGeometry>
        </mxCell>
        <mxCell id="LMtuo78VedRBWPzTzkMf-447" value="JobID" style="shape=partialRectangle;overflow=hidden;connectable=0;fillColor=none;top=0;left=0;bottom=0;right=0;align=left;spacingLeft=6;fontStyle=5;" vertex="1" parent="LMtuo78VedRBWPzTzkMf-445">
          <mxGeometry x="30" width="108" height="30" as="geometry">
            <mxRectangle width="108" height="30" as="alternateBounds" />
          </mxGeometry>
        </mxCell>
        <mxCell id="LMtuo78VedRBWPzTzkMf-448" value="" style="shape=partialRectangle;collapsible=0;dropTarget=0;pointerEvents=0;fillColor=none;points=[[0,0.5],[1,0.5]];portConstraint=eastwest;top=0;left=0;right=0;bottom=0;" vertex="1" parent="LMtuo78VedRBWPzTzkMf-444">
          <mxGeometry y="60" width="138" height="26" as="geometry" />
        </mxCell>
        <mxCell id="LMtuo78VedRBWPzTzkMf-449" value="" style="shape=partialRectangle;overflow=hidden;connectable=0;fillColor=none;top=0;left=0;bottom=0;right=0;" vertex="1" parent="LMtuo78VedRBWPzTzkMf-448">
          <mxGeometry width="30" height="26" as="geometry">
            <mxRectangle width="30" height="26" as="alternateBounds" />
          </mxGeometry>
        </mxCell>
        <mxCell id="LMtuo78VedRBWPzTzkMf-450" value="JobTitle" style="shape=partialRectangle;overflow=hidden;connectable=0;fillColor=none;top=0;left=0;bottom=0;right=0;align=left;spacingLeft=6;spacing=2;strokeWidth=3;spacingBottom=1;spacingTop=1;labelBackgroundColor=none;" vertex="1" parent="LMtuo78VedRBWPzTzkMf-448">
          <mxGeometry x="30" width="108" height="26" as="geometry">
            <mxRectangle width="108" height="26" as="alternateBounds" />
          </mxGeometry>
        </mxCell>
        <mxCell id="LMtuo78VedRBWPzTzkMf-451" value="" style="shape=partialRectangle;collapsible=0;dropTarget=0;pointerEvents=0;fillColor=none;points=[[0,0.5],[1,0.5]];portConstraint=eastwest;top=0;left=0;right=0;bottom=0;" vertex="1" parent="LMtuo78VedRBWPzTzkMf-444">
          <mxGeometry y="86" width="138" height="26" as="geometry" />
        </mxCell>
        <mxCell id="LMtuo78VedRBWPzTzkMf-452" value="" style="shape=partialRectangle;overflow=hidden;connectable=0;fillColor=none;top=0;left=0;bottom=0;right=0;" vertex="1" parent="LMtuo78VedRBWPzTzkMf-451">
          <mxGeometry width="30" height="26" as="geometry">
            <mxRectangle width="30" height="26" as="alternateBounds" />
          </mxGeometry>
        </mxCell>
        <mxCell id="LMtuo78VedRBWPzTzkMf-453" value="JobDescription" style="shape=partialRectangle;overflow=hidden;connectable=0;fillColor=none;top=0;left=0;bottom=0;right=0;align=left;spacingLeft=6;spacing=2;strokeWidth=3;spacingBottom=1;spacingTop=1;labelBackgroundColor=none;" vertex="1" parent="LMtuo78VedRBWPzTzkMf-451">
          <mxGeometry x="30" width="108" height="26" as="geometry">
            <mxRectangle width="108" height="26" as="alternateBounds" />
          </mxGeometry>
        </mxCell>
        <mxCell id="LMtuo78VedRBWPzTzkMf-454" value="" style="shape=partialRectangle;collapsible=0;dropTarget=0;pointerEvents=0;fillColor=none;points=[[0,0.5],[1,0.5]];portConstraint=eastwest;top=0;left=0;right=0;bottom=0;" vertex="1" parent="LMtuo78VedRBWPzTzkMf-444">
          <mxGeometry y="112" width="138" height="26" as="geometry" />
        </mxCell>
        <mxCell id="LMtuo78VedRBWPzTzkMf-455" value="" style="shape=partialRectangle;overflow=hidden;connectable=0;fillColor=none;top=0;left=0;bottom=0;right=0;" vertex="1" parent="LMtuo78VedRBWPzTzkMf-454">
          <mxGeometry width="30" height="26" as="geometry">
            <mxRectangle width="30" height="26" as="alternateBounds" />
          </mxGeometry>
        </mxCell>
        <mxCell id="LMtuo78VedRBWPzTzkMf-456" value="JobRequirements" style="shape=partialRectangle;overflow=hidden;connectable=0;fillColor=none;top=0;left=0;bottom=0;right=0;align=left;spacingLeft=6;spacing=2;strokeWidth=3;spacingBottom=1;spacingTop=1;labelBackgroundColor=none;" vertex="1" parent="LMtuo78VedRBWPzTzkMf-454">
          <mxGeometry x="30" width="108" height="26" as="geometry">
            <mxRectangle width="108" height="26" as="alternateBounds" />
          </mxGeometry>
        </mxCell>
        <mxCell id="LMtuo78VedRBWPzTzkMf-457" value="" style="shape=partialRectangle;collapsible=0;dropTarget=0;pointerEvents=0;fillColor=none;points=[[0,0.5],[1,0.5]];portConstraint=eastwest;top=0;left=0;right=0;bottom=0;" vertex="1" parent="LMtuo78VedRBWPzTzkMf-444">
          <mxGeometry y="138" width="138" height="26" as="geometry" />
        </mxCell>
        <mxCell id="LMtuo78VedRBWPzTzkMf-458" value="" style="shape=partialRectangle;overflow=hidden;connectable=0;fillColor=none;top=0;left=0;bottom=0;right=0;" vertex="1" parent="LMtuo78VedRBWPzTzkMf-457">
          <mxGeometry width="30" height="26" as="geometry">
            <mxRectangle width="30" height="26" as="alternateBounds" />
          </mxGeometry>
        </mxCell>
        <mxCell id="LMtuo78VedRBWPzTzkMf-459" value="MinimumPay" style="shape=partialRectangle;overflow=hidden;connectable=0;fillColor=none;top=0;left=0;bottom=0;right=0;align=left;spacingLeft=6;spacing=2;strokeWidth=3;spacingBottom=1;spacingTop=1;labelBackgroundColor=none;" vertex="1" parent="LMtuo78VedRBWPzTzkMf-457">
          <mxGeometry x="30" width="108" height="26" as="geometry">
            <mxRectangle width="108" height="26" as="alternateBounds" />
          </mxGeometry>
        </mxCell>
        <mxCell id="LMtuo78VedRBWPzTzkMf-460" value="" style="shape=partialRectangle;collapsible=0;dropTarget=0;pointerEvents=0;fillColor=none;points=[[0,0.5],[1,0.5]];portConstraint=eastwest;top=0;left=0;right=0;bottom=0;" vertex="1" parent="LMtuo78VedRBWPzTzkMf-444">
          <mxGeometry y="164" width="138" height="26" as="geometry" />
        </mxCell>
        <mxCell id="LMtuo78VedRBWPzTzkMf-461" value="" style="shape=partialRectangle;overflow=hidden;connectable=0;fillColor=none;top=0;left=0;bottom=0;right=0;" vertex="1" parent="LMtuo78VedRBWPzTzkMf-460">
          <mxGeometry width="30" height="26" as="geometry">
            <mxRectangle width="30" height="26" as="alternateBounds" />
          </mxGeometry>
        </mxCell>
        <mxCell id="LMtuo78VedRBWPzTzkMf-462" value="MaximumPay" style="shape=partialRectangle;overflow=hidden;connectable=0;fillColor=none;top=0;left=0;bottom=0;right=0;align=left;spacingLeft=6;spacing=2;strokeWidth=3;spacingBottom=1;spacingTop=1;labelBackgroundColor=none;" vertex="1" parent="LMtuo78VedRBWPzTzkMf-460">
          <mxGeometry x="30" width="108" height="26" as="geometry">
            <mxRectangle width="108" height="26" as="alternateBounds" />
          </mxGeometry>
        </mxCell>
        <mxCell id="LMtuo78VedRBWPzTzkMf-463" value="" style="shape=partialRectangle;collapsible=0;dropTarget=0;pointerEvents=0;fillColor=none;points=[[0,0.5],[1,0.5]];portConstraint=eastwest;top=0;left=0;right=0;bottom=0;" vertex="1" parent="LMtuo78VedRBWPzTzkMf-444">
          <mxGeometry y="190" width="138" height="26" as="geometry" />
        </mxCell>
        <mxCell id="LMtuo78VedRBWPzTzkMf-464" value="" style="shape=partialRectangle;overflow=hidden;connectable=0;fillColor=none;top=0;left=0;bottom=0;right=0;" vertex="1" parent="LMtuo78VedRBWPzTzkMf-463">
          <mxGeometry width="30" height="26" as="geometry">
            <mxRectangle width="30" height="26" as="alternateBounds" />
          </mxGeometry>
        </mxCell>
        <mxCell id="LMtuo78VedRBWPzTzkMf-465" value="ISFaculty" style="shape=partialRectangle;overflow=hidden;connectable=0;fillColor=none;top=0;left=0;bottom=0;right=0;align=left;spacingLeft=6;spacing=2;strokeWidth=3;spacingBottom=1;spacingTop=1;labelBackgroundColor=none;" vertex="1" parent="LMtuo78VedRBWPzTzkMf-463">
          <mxGeometry x="30" width="108" height="26" as="geometry">
            <mxRectangle width="108" height="26" as="alternateBounds" />
          </mxGeometry>
        </mxCell>
        <mxCell id="LMtuo78VedRBWPzTzkMf-466" value="" style="shape=partialRectangle;collapsible=0;dropTarget=0;pointerEvents=0;fillColor=none;points=[[0,0.5],[1,0.5]];portConstraint=eastwest;top=0;left=0;right=0;bottom=0;" vertex="1" parent="LMtuo78VedRBWPzTzkMf-444">
          <mxGeometry y="216" width="138" height="26" as="geometry" />
        </mxCell>
        <mxCell id="LMtuo78VedRBWPzTzkMf-467" value="FK1" style="shape=partialRectangle;overflow=hidden;connectable=0;fillColor=none;top=0;left=0;bottom=0;right=0;fontStyle=1" vertex="1" parent="LMtuo78VedRBWPzTzkMf-466">
          <mxGeometry width="30" height="26" as="geometry">
            <mxRectangle width="30" height="26" as="alternateBounds" />
          </mxGeometry>
        </mxCell>
        <mxCell id="LMtuo78VedRBWPzTzkMf-468" value="JobTypeDetailID" style="shape=partialRectangle;overflow=hidden;connectable=0;fillColor=none;top=0;left=0;bottom=0;right=0;align=left;spacingLeft=6;spacing=2;strokeWidth=3;spacingBottom=1;spacingTop=1;labelBackgroundColor=none;fontStyle=1" vertex="1" parent="LMtuo78VedRBWPzTzkMf-466">
          <mxGeometry x="30" width="108" height="26" as="geometry">
            <mxRectangle width="108" height="26" as="alternateBounds" />
          </mxGeometry>
        </mxCell>
        <mxCell id="LMtuo78VedRBWPzTzkMf-487" value="CourseLevel" style="shape=table;startSize=30;container=1;collapsible=1;childLayout=tableLayout;fixedRows=1;rowLines=0;fontStyle=1;align=center;resizeLast=1;" vertex="1" parent="1">
          <mxGeometry x="983" y="131" width="174" height="93" as="geometry" />
        </mxCell>
        <mxCell id="LMtuo78VedRBWPzTzkMf-488" value="" style="shape=partialRectangle;collapsible=0;dropTarget=0;pointerEvents=0;fillColor=none;points=[[0,0.5],[1,0.5]];portConstraint=eastwest;top=0;left=0;right=0;bottom=1;" vertex="1" parent="LMtuo78VedRBWPzTzkMf-487">
          <mxGeometry y="30" width="174" height="30" as="geometry" />
        </mxCell>
        <mxCell id="LMtuo78VedRBWPzTzkMf-489" value="PK" style="shape=partialRectangle;overflow=hidden;connectable=0;fillColor=none;top=0;left=0;bottom=0;right=0;fontStyle=1;" vertex="1" parent="LMtuo78VedRBWPzTzkMf-488">
          <mxGeometry width="63.75" height="30" as="geometry">
            <mxRectangle width="63.75" height="30" as="alternateBounds" />
          </mxGeometry>
        </mxCell>
        <mxCell id="LMtuo78VedRBWPzTzkMf-490" value="LevelID" style="shape=partialRectangle;overflow=hidden;connectable=0;fillColor=none;top=0;left=0;bottom=0;right=0;align=left;spacingLeft=6;fontStyle=5;" vertex="1" parent="LMtuo78VedRBWPzTzkMf-488">
          <mxGeometry x="63.75" width="110.25" height="30" as="geometry">
            <mxRectangle width="110.25" height="30" as="alternateBounds" />
          </mxGeometry>
        </mxCell>
        <mxCell id="LMtuo78VedRBWPzTzkMf-491" value="" style="shape=partialRectangle;collapsible=0;dropTarget=0;pointerEvents=0;fillColor=none;points=[[0,0.5],[1,0.5]];portConstraint=eastwest;top=0;left=0;right=0;bottom=0;" vertex="1" parent="LMtuo78VedRBWPzTzkMf-487">
          <mxGeometry y="60" width="174" height="33" as="geometry" />
        </mxCell>
        <mxCell id="LMtuo78VedRBWPzTzkMf-492" value="" style="shape=partialRectangle;overflow=hidden;connectable=0;fillColor=none;top=0;left=0;bottom=0;right=0;" vertex="1" parent="LMtuo78VedRBWPzTzkMf-491">
          <mxGeometry width="63.75" height="33" as="geometry">
            <mxRectangle width="63.75" height="33" as="alternateBounds" />
          </mxGeometry>
        </mxCell>
        <mxCell id="LMtuo78VedRBWPzTzkMf-493" value="Text" style="shape=partialRectangle;overflow=hidden;connectable=0;fillColor=none;top=0;left=0;bottom=0;right=0;align=left;spacingLeft=6;" vertex="1" parent="LMtuo78VedRBWPzTzkMf-491">
          <mxGeometry x="63.75" width="110.25" height="33" as="geometry">
            <mxRectangle width="110.25" height="33" as="alternateBounds" />
          </mxGeometry>
        </mxCell>
        <mxCell id="LMtuo78VedRBWPzTzkMf-76" value="CourseCatalog" style="shape=table;startSize=30;container=1;collapsible=1;childLayout=tableLayout;fixedRows=1;rowLines=0;fontStyle=1;align=center;resizeLast=1;" vertex="1" parent="1">
          <mxGeometry x="700" y="267" width="169" height="222" as="geometry" />
        </mxCell>
        <mxCell id="LMtuo78VedRBWPzTzkMf-77" value="" style="shape=partialRectangle;collapsible=0;dropTarget=0;pointerEvents=0;fillColor=none;points=[[0,0.5],[1,0.5]];portConstraint=eastwest;top=0;left=0;right=0;bottom=1;" vertex="1" parent="LMtuo78VedRBWPzTzkMf-76">
          <mxGeometry y="30" width="169" height="30" as="geometry" />
        </mxCell>
        <mxCell id="LMtuo78VedRBWPzTzkMf-78" value="PK,FK3" style="shape=partialRectangle;overflow=hidden;connectable=0;fillColor=none;top=0;left=0;bottom=0;right=0;fontStyle=1;" vertex="1" parent="LMtuo78VedRBWPzTzkMf-77">
          <mxGeometry width="63.75" height="30" as="geometry">
            <mxRectangle width="63.75" height="30" as="alternateBounds" />
          </mxGeometry>
        </mxCell>
        <mxCell id="LMtuo78VedRBWPzTzkMf-79" value="CourseCode" style="shape=partialRectangle;overflow=hidden;connectable=0;fillColor=none;top=0;left=0;bottom=0;right=0;align=left;spacingLeft=6;fontStyle=5;" vertex="1" parent="LMtuo78VedRBWPzTzkMf-77">
          <mxGeometry x="63.75" width="105.25" height="30" as="geometry">
            <mxRectangle width="105.25" height="30" as="alternateBounds" />
          </mxGeometry>
        </mxCell>
        <mxCell id="LMtuo78VedRBWPzTzkMf-89" value="" style="shape=partialRectangle;collapsible=0;dropTarget=0;pointerEvents=0;fillColor=none;points=[[0,0.5],[1,0.5]];portConstraint=eastwest;top=0;left=0;right=0;bottom=1;" vertex="1" parent="LMtuo78VedRBWPzTzkMf-76">
          <mxGeometry y="60" width="169" height="30" as="geometry" />
        </mxCell>
        <mxCell id="LMtuo78VedRBWPzTzkMf-90" value="PK" style="shape=partialRectangle;overflow=hidden;connectable=0;fillColor=none;top=0;left=0;bottom=0;right=0;fontStyle=1;" vertex="1" parent="LMtuo78VedRBWPzTzkMf-89">
          <mxGeometry width="63.75" height="30" as="geometry">
            <mxRectangle width="63.75" height="30" as="alternateBounds" />
          </mxGeometry>
        </mxCell>
        <mxCell id="LMtuo78VedRBWPzTzkMf-91" value="CourseNumber" style="shape=partialRectangle;overflow=hidden;connectable=0;fillColor=none;top=0;left=0;bottom=0;right=0;align=left;spacingLeft=6;fontStyle=5;" vertex="1" parent="LMtuo78VedRBWPzTzkMf-89">
          <mxGeometry x="63.75" width="105.25" height="30" as="geometry">
            <mxRectangle width="105.25" height="30" as="alternateBounds" />
          </mxGeometry>
        </mxCell>
        <mxCell id="LMtuo78VedRBWPzTzkMf-80" value="" style="shape=partialRectangle;collapsible=0;dropTarget=0;pointerEvents=0;fillColor=none;points=[[0,0.5],[1,0.5]];portConstraint=eastwest;top=0;left=0;right=0;bottom=0;" vertex="1" parent="LMtuo78VedRBWPzTzkMf-76">
          <mxGeometry y="90" width="169" height="33" as="geometry" />
        </mxCell>
        <mxCell id="LMtuo78VedRBWPzTzkMf-81" value="FK1" style="shape=partialRectangle;overflow=hidden;connectable=0;fillColor=none;top=0;left=0;bottom=0;right=0;fontStyle=1" vertex="1" parent="LMtuo78VedRBWPzTzkMf-80">
          <mxGeometry width="63.75" height="33" as="geometry">
            <mxRectangle width="63.75" height="33" as="alternateBounds" />
          </mxGeometry>
        </mxCell>
        <mxCell id="LMtuo78VedRBWPzTzkMf-82" value="DepartmentID" style="shape=partialRectangle;overflow=hidden;connectable=0;fillColor=none;top=0;left=0;bottom=0;right=0;align=left;spacingLeft=6;fontStyle=1" vertex="1" parent="LMtuo78VedRBWPzTzkMf-80">
          <mxGeometry x="63.75" width="105.25" height="33" as="geometry">
            <mxRectangle width="105.25" height="33" as="alternateBounds" />
          </mxGeometry>
        </mxCell>
        <mxCell id="LMtuo78VedRBWPzTzkMf-83" value="" style="shape=partialRectangle;collapsible=0;dropTarget=0;pointerEvents=0;fillColor=none;points=[[0,0.5],[1,0.5]];portConstraint=eastwest;top=0;left=0;right=0;bottom=0;" vertex="1" parent="LMtuo78VedRBWPzTzkMf-76">
          <mxGeometry y="123" width="169" height="33" as="geometry" />
        </mxCell>
        <mxCell id="LMtuo78VedRBWPzTzkMf-84" value="FK2" style="shape=partialRectangle;overflow=hidden;connectable=0;fillColor=none;top=0;left=0;bottom=0;right=0;fontStyle=1" vertex="1" parent="LMtuo78VedRBWPzTzkMf-83">
          <mxGeometry width="63.75" height="33" as="geometry">
            <mxRectangle width="63.75" height="33" as="alternateBounds" />
          </mxGeometry>
        </mxCell>
        <mxCell id="LMtuo78VedRBWPzTzkMf-85" value="CourseLevelID" style="shape=partialRectangle;overflow=hidden;connectable=0;fillColor=none;top=0;left=0;bottom=0;right=0;align=left;spacingLeft=6;fontStyle=1" vertex="1" parent="LMtuo78VedRBWPzTzkMf-83">
          <mxGeometry x="63.75" width="105.25" height="33" as="geometry">
            <mxRectangle width="105.25" height="33" as="alternateBounds" />
          </mxGeometry>
        </mxCell>
        <mxCell id="LMtuo78VedRBWPzTzkMf-86" value="" style="shape=partialRectangle;collapsible=0;dropTarget=0;pointerEvents=0;fillColor=none;points=[[0,0.5],[1,0.5]];portConstraint=eastwest;top=0;left=0;right=0;bottom=0;" vertex="1" parent="LMtuo78VedRBWPzTzkMf-76">
          <mxGeometry y="156" width="169" height="33" as="geometry" />
        </mxCell>
        <mxCell id="LMtuo78VedRBWPzTzkMf-87" value="" style="shape=partialRectangle;overflow=hidden;connectable=0;fillColor=none;top=0;left=0;bottom=0;right=0;" vertex="1" parent="LMtuo78VedRBWPzTzkMf-86">
          <mxGeometry width="63.75" height="33" as="geometry">
            <mxRectangle width="63.75" height="33" as="alternateBounds" />
          </mxGeometry>
        </mxCell>
        <mxCell id="LMtuo78VedRBWPzTzkMf-88" value="CourseTitle" style="shape=partialRectangle;overflow=hidden;connectable=0;fillColor=none;top=0;left=0;bottom=0;right=0;align=left;spacingLeft=6;" vertex="1" parent="LMtuo78VedRBWPzTzkMf-86">
          <mxGeometry x="63.75" width="105.25" height="33" as="geometry">
            <mxRectangle width="105.25" height="33" as="alternateBounds" />
          </mxGeometry>
        </mxCell>
        <mxCell id="LMtuo78VedRBWPzTzkMf-92" value="" style="shape=partialRectangle;collapsible=0;dropTarget=0;pointerEvents=0;fillColor=none;points=[[0,0.5],[1,0.5]];portConstraint=eastwest;top=0;left=0;right=0;bottom=0;" vertex="1" parent="LMtuo78VedRBWPzTzkMf-76">
          <mxGeometry y="189" width="169" height="33" as="geometry" />
        </mxCell>
        <mxCell id="LMtuo78VedRBWPzTzkMf-93" value="" style="shape=partialRectangle;overflow=hidden;connectable=0;fillColor=none;top=0;left=0;bottom=0;right=0;" vertex="1" parent="LMtuo78VedRBWPzTzkMf-92">
          <mxGeometry width="63.75" height="33" as="geometry">
            <mxRectangle width="63.75" height="33" as="alternateBounds" />
          </mxGeometry>
        </mxCell>
        <mxCell id="LMtuo78VedRBWPzTzkMf-94" value="CreditHours" style="shape=partialRectangle;overflow=hidden;connectable=0;fillColor=none;top=0;left=0;bottom=0;right=0;align=left;spacingLeft=6;" vertex="1" parent="LMtuo78VedRBWPzTzkMf-92">
          <mxGeometry x="63.75" width="105.25" height="33" as="geometry">
            <mxRectangle width="105.25" height="33" as="alternateBounds" />
          </mxGeometry>
        </mxCell>
        <mxCell id="LMtuo78VedRBWPzTzkMf-512" style="edgeStyle=orthogonalEdgeStyle;rounded=0;orthogonalLoop=1;jettySize=auto;html=1;exitX=0;exitY=0.5;exitDx=0;exitDy=0;entryX=1;entryY=0.5;entryDx=0;entryDy=0;" edge="1" parent="1" source="C-vyLk0tnHw3VtMMgP7b-6" target="C-vyLk0tnHw3VtMMgP7b-24">
          <mxGeometry relative="1" as="geometry" />
        </mxCell>
        <mxCell id="LMtuo78VedRBWPzTzkMf-24" value="StudentStatus" style="shape=table;startSize=30;container=1;collapsible=1;childLayout=tableLayout;fixedRows=1;rowLines=0;fontStyle=1;align=center;resizeLast=1;" vertex="1" parent="1">
          <mxGeometry x="45.5" y="337" width="138" height="93" as="geometry" />
        </mxCell>
        <mxCell id="LMtuo78VedRBWPzTzkMf-25" value="" style="shape=partialRectangle;collapsible=0;dropTarget=0;pointerEvents=0;fillColor=none;points=[[0,0.5],[1,0.5]];portConstraint=eastwest;top=0;left=0;right=0;bottom=1;" vertex="1" parent="LMtuo78VedRBWPzTzkMf-24">
          <mxGeometry y="30" width="138" height="30" as="geometry" />
        </mxCell>
        <mxCell id="LMtuo78VedRBWPzTzkMf-26" value="PK" style="shape=partialRectangle;overflow=hidden;connectable=0;fillColor=none;top=0;left=0;bottom=0;right=0;fontStyle=1;" vertex="1" parent="LMtuo78VedRBWPzTzkMf-25">
          <mxGeometry width="30" height="30" as="geometry">
            <mxRectangle width="30" height="30" as="alternateBounds" />
          </mxGeometry>
        </mxCell>
        <mxCell id="LMtuo78VedRBWPzTzkMf-27" value="StudentStatusID" style="shape=partialRectangle;overflow=hidden;connectable=0;fillColor=none;top=0;left=0;bottom=0;right=0;align=left;spacingLeft=6;fontStyle=5;" vertex="1" parent="LMtuo78VedRBWPzTzkMf-25">
          <mxGeometry x="30" width="108" height="30" as="geometry">
            <mxRectangle width="108" height="30" as="alternateBounds" />
          </mxGeometry>
        </mxCell>
        <mxCell id="LMtuo78VedRBWPzTzkMf-28" value="" style="shape=partialRectangle;collapsible=0;dropTarget=0;pointerEvents=0;fillColor=none;points=[[0,0.5],[1,0.5]];portConstraint=eastwest;top=0;left=0;right=0;bottom=0;" vertex="1" parent="LMtuo78VedRBWPzTzkMf-24">
          <mxGeometry y="60" width="138" height="33" as="geometry" />
        </mxCell>
        <mxCell id="LMtuo78VedRBWPzTzkMf-29" value="" style="shape=partialRectangle;overflow=hidden;connectable=0;fillColor=none;top=0;left=0;bottom=0;right=0;" vertex="1" parent="LMtuo78VedRBWPzTzkMf-28">
          <mxGeometry width="30" height="33" as="geometry">
            <mxRectangle width="30" height="33" as="alternateBounds" />
          </mxGeometry>
        </mxCell>
        <mxCell id="LMtuo78VedRBWPzTzkMf-30" value="Student Status" style="shape=partialRectangle;overflow=hidden;connectable=0;fillColor=none;top=0;left=0;bottom=0;right=0;align=left;spacingLeft=6;" vertex="1" parent="LMtuo78VedRBWPzTzkMf-28">
          <mxGeometry x="30" width="108" height="33" as="geometry">
            <mxRectangle width="108" height="33" as="alternateBounds" />
          </mxGeometry>
        </mxCell>
        <mxCell id="LMtuo78VedRBWPzTzkMf-518" style="edgeStyle=orthogonalEdgeStyle;rounded=0;orthogonalLoop=1;jettySize=auto;html=1;entryX=0;entryY=0.5;entryDx=0;entryDy=0;" edge="1" parent="1" source="LMtuo78VedRBWPzTzkMf-41" target="LMtuo78VedRBWPzTzkMf-133">
          <mxGeometry relative="1" as="geometry" />
        </mxCell>
        <mxCell id="LMtuo78VedRBWPzTzkMf-523" style="edgeStyle=orthogonalEdgeStyle;rounded=0;orthogonalLoop=1;jettySize=auto;html=1;entryX=1.034;entryY=0.825;entryDx=0;entryDy=0;entryPerimeter=0;" edge="1" parent="1" source="LMtuo78VedRBWPzTzkMf-38" target="LMtuo78VedRBWPzTzkMf-25">
          <mxGeometry relative="1" as="geometry" />
        </mxCell>
        <mxCell id="LMtuo78VedRBWPzTzkMf-524" style="edgeStyle=orthogonalEdgeStyle;rounded=0;orthogonalLoop=1;jettySize=auto;html=1;exitX=0;exitY=0.5;exitDx=0;exitDy=0;entryX=1;entryY=0.5;entryDx=0;entryDy=0;" edge="1" parent="1" source="LMtuo78VedRBWPzTzkMf-61" target="LMtuo78VedRBWPzTzkMf-35">
          <mxGeometry relative="1" as="geometry">
            <Array as="points">
              <mxPoint x="444" y="293" />
              <mxPoint x="444" y="232" />
            </Array>
          </mxGeometry>
        </mxCell>
        <mxCell id="LMtuo78VedRBWPzTzkMf-527" style="edgeStyle=orthogonalEdgeStyle;rounded=0;orthogonalLoop=1;jettySize=auto;html=1;entryX=1.022;entryY=0.275;entryDx=0;entryDy=0;entryPerimeter=0;" edge="1" parent="1" source="LMtuo78VedRBWPzTzkMf-140" target="LMtuo78VedRBWPzTzkMf-110">
          <mxGeometry relative="1" as="geometry" />
        </mxCell>
        <mxCell id="LMtuo78VedRBWPzTzkMf-539" style="edgeStyle=orthogonalEdgeStyle;rounded=0;orthogonalLoop=1;jettySize=auto;html=1;entryX=0;entryY=0.5;entryDx=0;entryDy=0;" edge="1" parent="1" source="LMtuo78VedRBWPzTzkMf-77" target="LMtuo78VedRBWPzTzkMf-103">
          <mxGeometry relative="1" as="geometry" />
        </mxCell>
        <mxCell id="LMtuo78VedRBWPzTzkMf-540" style="edgeStyle=orthogonalEdgeStyle;rounded=0;orthogonalLoop=1;jettySize=auto;html=1;entryX=0;entryY=0.5;entryDx=0;entryDy=0;" edge="1" parent="1" source="LMtuo78VedRBWPzTzkMf-83" target="LMtuo78VedRBWPzTzkMf-488">
          <mxGeometry relative="1" as="geometry" />
        </mxCell>
        <mxCell id="LMtuo78VedRBWPzTzkMf-541" style="edgeStyle=orthogonalEdgeStyle;rounded=0;orthogonalLoop=1;jettySize=auto;html=1;entryX=1;entryY=0.5;entryDx=0;entryDy=0;" edge="1" parent="1" source="LMtuo78VedRBWPzTzkMf-233" target="LMtuo78VedRBWPzTzkMf-143">
          <mxGeometry relative="1" as="geometry">
            <mxPoint x="403" y="612" as="targetPoint" />
            <Array as="points">
              <mxPoint x="446" y="771" />
              <mxPoint x="446" y="636" />
              <mxPoint x="426" y="636" />
              <mxPoint x="426" y="612" />
            </Array>
          </mxGeometry>
        </mxCell>
        <mxCell id="LMtuo78VedRBWPzTzkMf-542" style="edgeStyle=orthogonalEdgeStyle;rounded=0;orthogonalLoop=1;jettySize=auto;html=1;entryX=1;entryY=0.5;entryDx=0;entryDy=0;" edge="1" parent="1" source="LMtuo78VedRBWPzTzkMf-236" target="LMtuo78VedRBWPzTzkMf-152">
          <mxGeometry relative="1" as="geometry" />
        </mxCell>
        <mxCell id="LMtuo78VedRBWPzTzkMf-543" style="edgeStyle=orthogonalEdgeStyle;rounded=0;orthogonalLoop=1;jettySize=auto;html=1;entryX=1.027;entryY=0.155;entryDx=0;entryDy=0;entryPerimeter=0;" edge="1" parent="1" source="LMtuo78VedRBWPzTzkMf-155" target="LMtuo78VedRBWPzTzkMf-185">
          <mxGeometry relative="1" as="geometry" />
        </mxCell>
        <mxCell id="LMtuo78VedRBWPzTzkMf-544" style="edgeStyle=orthogonalEdgeStyle;rounded=0;orthogonalLoop=1;jettySize=auto;html=1;entryX=1;entryY=0.5;entryDx=0;entryDy=0;" edge="1" parent="1" target="LMtuo78VedRBWPzTzkMf-41">
          <mxGeometry relative="1" as="geometry">
            <mxPoint x="989" y="740" as="sourcePoint" />
            <Array as="points">
              <mxPoint x="988" y="652" />
              <mxPoint x="888" y="652" />
              <mxPoint x="888" y="227" />
              <mxPoint x="435" y="227" />
              <mxPoint x="435" y="297" />
            </Array>
          </mxGeometry>
        </mxCell>
        <mxCell id="LMtuo78VedRBWPzTzkMf-545" style="edgeStyle=orthogonalEdgeStyle;rounded=0;orthogonalLoop=1;jettySize=auto;html=1;entryX=-0.006;entryY=0.198;entryDx=0;entryDy=0;entryPerimeter=0;" edge="1" parent="1" source="LMtuo78VedRBWPzTzkMf-162" target="LMtuo78VedRBWPzTzkMf-178">
          <mxGeometry relative="1" as="geometry" />
        </mxCell>
        <mxCell id="LMtuo78VedRBWPzTzkMf-546" style="edgeStyle=orthogonalEdgeStyle;rounded=0;orthogonalLoop=1;jettySize=auto;html=1;entryX=1;entryY=0.5;entryDx=0;entryDy=0;" edge="1" parent="1" source="LMtuo78VedRBWPzTzkMf-165" target="LMtuo78VedRBWPzTzkMf-265">
          <mxGeometry relative="1" as="geometry" />
        </mxCell>
        <mxCell id="LMtuo78VedRBWPzTzkMf-547" style="edgeStyle=orthogonalEdgeStyle;rounded=0;orthogonalLoop=1;jettySize=auto;html=1;entryX=0.484;entryY=0.974;entryDx=0;entryDy=0;entryPerimeter=0;" edge="1" parent="1" source="LMtuo78VedRBWPzTzkMf-264" target="LMtuo78VedRBWPzTzkMf-92">
          <mxGeometry relative="1" as="geometry" />
        </mxCell>
        <mxCell id="LMtuo78VedRBWPzTzkMf-554" style="edgeStyle=orthogonalEdgeStyle;rounded=0;orthogonalLoop=1;jettySize=auto;html=1;entryX=1;entryY=0.5;entryDx=0;entryDy=0;" edge="1" parent="1" source="LMtuo78VedRBWPzTzkMf-224" target="LMtuo78VedRBWPzTzkMf-199">
          <mxGeometry relative="1" as="geometry" />
        </mxCell>
        <mxCell id="LMtuo78VedRBWPzTzkMf-286" value="CourseDailySchedule" style="shape=table;startSize=30;container=1;collapsible=1;childLayout=tableLayout;fixedRows=1;rowLines=0;fontStyle=1;align=center;resizeLast=1;" vertex="1" parent="1">
          <mxGeometry x="960" y="290" width="151" height="240" as="geometry" />
        </mxCell>
        <mxCell id="LMtuo78VedRBWPzTzkMf-287" value="" style="shape=partialRectangle;collapsible=0;dropTarget=0;pointerEvents=0;fillColor=none;points=[[0,0.5],[1,0.5]];portConstraint=eastwest;top=0;left=0;right=0;bottom=1;" vertex="1" parent="LMtuo78VedRBWPzTzkMf-286">
          <mxGeometry y="30" width="151" height="30" as="geometry" />
        </mxCell>
        <mxCell id="LMtuo78VedRBWPzTzkMf-288" value="PK" style="shape=partialRectangle;overflow=hidden;connectable=0;fillColor=none;top=0;left=0;bottom=0;right=0;fontStyle=1;" vertex="1" parent="LMtuo78VedRBWPzTzkMf-287">
          <mxGeometry width="30" height="30" as="geometry">
            <mxRectangle width="30" height="30" as="alternateBounds" />
          </mxGeometry>
        </mxCell>
        <mxCell id="LMtuo78VedRBWPzTzkMf-289" value="DailyID" style="shape=partialRectangle;overflow=hidden;connectable=0;fillColor=none;top=0;left=0;bottom=0;right=0;align=left;spacingLeft=6;fontStyle=5;" vertex="1" parent="LMtuo78VedRBWPzTzkMf-287">
          <mxGeometry x="30" width="121" height="30" as="geometry">
            <mxRectangle width="121" height="30" as="alternateBounds" />
          </mxGeometry>
        </mxCell>
        <mxCell id="LMtuo78VedRBWPzTzkMf-290" value="" style="shape=partialRectangle;collapsible=0;dropTarget=0;pointerEvents=0;fillColor=none;points=[[0,0.5],[1,0.5]];portConstraint=eastwest;top=0;left=0;right=0;bottom=0;" vertex="1" parent="LMtuo78VedRBWPzTzkMf-286">
          <mxGeometry y="60" width="151" height="30" as="geometry" />
        </mxCell>
        <mxCell id="LMtuo78VedRBWPzTzkMf-291" value="FK1" style="shape=partialRectangle;overflow=hidden;connectable=0;fillColor=none;top=0;left=0;bottom=0;right=0;fontStyle=1" vertex="1" parent="LMtuo78VedRBWPzTzkMf-290">
          <mxGeometry width="30" height="30" as="geometry">
            <mxRectangle width="30" height="30" as="alternateBounds" />
          </mxGeometry>
        </mxCell>
        <mxCell id="LMtuo78VedRBWPzTzkMf-292" value="CRN" style="shape=partialRectangle;overflow=hidden;connectable=0;fillColor=none;top=0;left=0;bottom=0;right=0;align=left;spacingLeft=6;fontStyle=1" vertex="1" parent="LMtuo78VedRBWPzTzkMf-290">
          <mxGeometry x="30" width="121" height="30" as="geometry">
            <mxRectangle width="121" height="30" as="alternateBounds" />
          </mxGeometry>
        </mxCell>
        <mxCell id="LMtuo78VedRBWPzTzkMf-293" value="" style="shape=partialRectangle;collapsible=0;dropTarget=0;pointerEvents=0;fillColor=none;points=[[0,0.5],[1,0.5]];portConstraint=eastwest;top=0;left=0;right=0;bottom=0;" vertex="1" parent="LMtuo78VedRBWPzTzkMf-286">
          <mxGeometry y="90" width="151" height="30" as="geometry" />
        </mxCell>
        <mxCell id="LMtuo78VedRBWPzTzkMf-294" value="" style="shape=partialRectangle;overflow=hidden;connectable=0;fillColor=none;top=0;left=0;bottom=0;right=0;" vertex="1" parent="LMtuo78VedRBWPzTzkMf-293">
          <mxGeometry width="30" height="30" as="geometry">
            <mxRectangle width="30" height="30" as="alternateBounds" />
          </mxGeometry>
        </mxCell>
        <mxCell id="LMtuo78VedRBWPzTzkMf-295" value="DayofWeek" style="shape=partialRectangle;overflow=hidden;connectable=0;fillColor=none;top=0;left=0;bottom=0;right=0;align=left;spacingLeft=6;" vertex="1" parent="LMtuo78VedRBWPzTzkMf-293">
          <mxGeometry x="30" width="121" height="30" as="geometry">
            <mxRectangle width="121" height="30" as="alternateBounds" />
          </mxGeometry>
        </mxCell>
        <mxCell id="LMtuo78VedRBWPzTzkMf-296" value="" style="shape=partialRectangle;collapsible=0;dropTarget=0;pointerEvents=0;fillColor=none;points=[[0,0.5],[1,0.5]];portConstraint=eastwest;top=0;left=0;right=0;bottom=0;" vertex="1" parent="LMtuo78VedRBWPzTzkMf-286">
          <mxGeometry y="120" width="151" height="30" as="geometry" />
        </mxCell>
        <mxCell id="LMtuo78VedRBWPzTzkMf-297" value="" style="shape=partialRectangle;overflow=hidden;connectable=0;fillColor=none;top=0;left=0;bottom=0;right=0;" vertex="1" parent="LMtuo78VedRBWPzTzkMf-296">
          <mxGeometry width="30" height="30" as="geometry">
            <mxRectangle width="30" height="30" as="alternateBounds" />
          </mxGeometry>
        </mxCell>
        <mxCell id="LMtuo78VedRBWPzTzkMf-298" value="StartHour" style="shape=partialRectangle;overflow=hidden;connectable=0;fillColor=none;top=0;left=0;bottom=0;right=0;align=left;spacingLeft=6;" vertex="1" parent="LMtuo78VedRBWPzTzkMf-296">
          <mxGeometry x="30" width="121" height="30" as="geometry">
            <mxRectangle width="121" height="30" as="alternateBounds" />
          </mxGeometry>
        </mxCell>
        <mxCell id="LMtuo78VedRBWPzTzkMf-299" value="" style="shape=partialRectangle;collapsible=0;dropTarget=0;pointerEvents=0;fillColor=none;points=[[0,0.5],[1,0.5]];portConstraint=eastwest;top=0;left=0;right=0;bottom=0;" vertex="1" parent="LMtuo78VedRBWPzTzkMf-286">
          <mxGeometry y="150" width="151" height="30" as="geometry" />
        </mxCell>
        <mxCell id="LMtuo78VedRBWPzTzkMf-300" value="" style="shape=partialRectangle;overflow=hidden;connectable=0;fillColor=none;top=0;left=0;bottom=0;right=0;" vertex="1" parent="LMtuo78VedRBWPzTzkMf-299">
          <mxGeometry width="30" height="30" as="geometry">
            <mxRectangle width="30" height="30" as="alternateBounds" />
          </mxGeometry>
        </mxCell>
        <mxCell id="LMtuo78VedRBWPzTzkMf-301" value="StartMinute" style="shape=partialRectangle;overflow=hidden;connectable=0;fillColor=none;top=0;left=0;bottom=0;right=0;align=left;spacingLeft=6;" vertex="1" parent="LMtuo78VedRBWPzTzkMf-299">
          <mxGeometry x="30" width="121" height="30" as="geometry">
            <mxRectangle width="121" height="30" as="alternateBounds" />
          </mxGeometry>
        </mxCell>
        <mxCell id="LMtuo78VedRBWPzTzkMf-302" value="" style="shape=partialRectangle;collapsible=0;dropTarget=0;pointerEvents=0;fillColor=none;points=[[0,0.5],[1,0.5]];portConstraint=eastwest;top=0;left=0;right=0;bottom=0;" vertex="1" parent="LMtuo78VedRBWPzTzkMf-286">
          <mxGeometry y="180" width="151" height="30" as="geometry" />
        </mxCell>
        <mxCell id="LMtuo78VedRBWPzTzkMf-303" value="" style="shape=partialRectangle;overflow=hidden;connectable=0;fillColor=none;top=0;left=0;bottom=0;right=0;" vertex="1" parent="LMtuo78VedRBWPzTzkMf-302">
          <mxGeometry width="30" height="30" as="geometry">
            <mxRectangle width="30" height="30" as="alternateBounds" />
          </mxGeometry>
        </mxCell>
        <mxCell id="LMtuo78VedRBWPzTzkMf-304" value="EndHour" style="shape=partialRectangle;overflow=hidden;connectable=0;fillColor=none;top=0;left=0;bottom=0;right=0;align=left;spacingLeft=6;" vertex="1" parent="LMtuo78VedRBWPzTzkMf-302">
          <mxGeometry x="30" width="121" height="30" as="geometry">
            <mxRectangle width="121" height="30" as="alternateBounds" />
          </mxGeometry>
        </mxCell>
        <mxCell id="LMtuo78VedRBWPzTzkMf-305" value="" style="shape=partialRectangle;collapsible=0;dropTarget=0;pointerEvents=0;fillColor=none;points=[[0,0.5],[1,0.5]];portConstraint=eastwest;top=0;left=0;right=0;bottom=0;" vertex="1" parent="LMtuo78VedRBWPzTzkMf-286">
          <mxGeometry y="210" width="151" height="30" as="geometry" />
        </mxCell>
        <mxCell id="LMtuo78VedRBWPzTzkMf-306" value="" style="shape=partialRectangle;overflow=hidden;connectable=0;fillColor=none;top=0;left=0;bottom=0;right=0;" vertex="1" parent="LMtuo78VedRBWPzTzkMf-305">
          <mxGeometry width="30" height="30" as="geometry">
            <mxRectangle width="30" height="30" as="alternateBounds" />
          </mxGeometry>
        </mxCell>
        <mxCell id="LMtuo78VedRBWPzTzkMf-307" value="EndMinute" style="shape=partialRectangle;overflow=hidden;connectable=0;fillColor=none;top=0;left=0;bottom=0;right=0;align=left;spacingLeft=6;" vertex="1" parent="LMtuo78VedRBWPzTzkMf-305">
          <mxGeometry x="30" width="121" height="30" as="geometry">
            <mxRectangle width="121" height="30" as="alternateBounds" />
          </mxGeometry>
        </mxCell>
        <mxCell id="LMtuo78VedRBWPzTzkMf-555" style="edgeStyle=orthogonalEdgeStyle;rounded=0;orthogonalLoop=1;jettySize=auto;html=1;entryX=1.031;entryY=0.037;entryDx=0;entryDy=0;entryPerimeter=0;" edge="1" parent="1" source="LMtuo78VedRBWPzTzkMf-290" target="LMtuo78VedRBWPzTzkMf-265">
          <mxGeometry relative="1" as="geometry">
            <Array as="points">
              <mxPoint x="905" y="365" />
              <mxPoint x="905" y="588" />
            </Array>
          </mxGeometry>
        </mxCell>
        <mxCell id="LMtuo78VedRBWPzTzkMf-557" style="edgeStyle=orthogonalEdgeStyle;rounded=0;orthogonalLoop=1;jettySize=auto;html=1;entryX=0;entryY=0.5;entryDx=0;entryDy=0;" edge="1" parent="1" source="LMtuo78VedRBWPzTzkMf-277" target="LMtuo78VedRBWPzTzkMf-309">
          <mxGeometry relative="1" as="geometry">
            <Array as="points">
              <mxPoint x="837" y="722" />
              <mxPoint x="837" y="512" />
              <mxPoint x="670" y="512" />
              <mxPoint x="670" y="66" />
            </Array>
          </mxGeometry>
        </mxCell>
        <mxCell id="LMtuo78VedRBWPzTzkMf-560" style="edgeStyle=orthogonalEdgeStyle;rounded=0;orthogonalLoop=1;jettySize=auto;html=1;entryX=0;entryY=0.5;entryDx=0;entryDy=0;" edge="1" parent="1" source="LMtuo78VedRBWPzTzkMf-351" target="LMtuo78VedRBWPzTzkMf-265">
          <mxGeometry relative="1" as="geometry" />
        </mxCell>
        <mxCell id="LMtuo78VedRBWPzTzkMf-564" style="edgeStyle=orthogonalEdgeStyle;rounded=0;orthogonalLoop=1;jettySize=auto;html=1;entryX=0.467;entryY=1.086;entryDx=0;entryDy=0;entryPerimeter=0;" edge="1" parent="1" source="LMtuo78VedRBWPzTzkMf-334" target="LMtuo78VedRBWPzTzkMf-245">
          <mxGeometry relative="1" as="geometry">
            <Array as="points">
              <mxPoint x="642" y="1028" />
              <mxPoint x="642" y="905" />
              <mxPoint x="538" y="905" />
            </Array>
          </mxGeometry>
        </mxCell>
        <mxCell id="LMtuo78VedRBWPzTzkMf-565" style="edgeStyle=orthogonalEdgeStyle;rounded=0;orthogonalLoop=1;jettySize=auto;html=1;entryX=1;entryY=0.5;entryDx=0;entryDy=0;" edge="1" parent="1" source="LMtuo78VedRBWPzTzkMf-361" target="LMtuo78VedRBWPzTzkMf-331">
          <mxGeometry relative="1" as="geometry">
            <Array as="points">
              <mxPoint x="1134" y="592" />
              <mxPoint x="1134" y="997" />
            </Array>
          </mxGeometry>
        </mxCell>
        <mxCell id="LMtuo78VedRBWPzTzkMf-568" style="edgeStyle=orthogonalEdgeStyle;rounded=0;orthogonalLoop=1;jettySize=auto;html=1;entryX=1;entryY=0.5;entryDx=0;entryDy=0;" edge="1" parent="1" source="LMtuo78VedRBWPzTzkMf-402" target="LMtuo78VedRBWPzTzkMf-431">
          <mxGeometry relative="1" as="geometry" />
        </mxCell>
        <mxCell id="LMtuo78VedRBWPzTzkMf-569" style="edgeStyle=orthogonalEdgeStyle;rounded=0;orthogonalLoop=1;jettySize=auto;html=1;entryX=1;entryY=0.5;entryDx=0;entryDy=0;" edge="1" parent="1" source="LMtuo78VedRBWPzTzkMf-411" target="LMtuo78VedRBWPzTzkMf-438">
          <mxGeometry relative="1" as="geometry" />
        </mxCell>
        <mxCell id="LMtuo78VedRBWPzTzkMf-570" style="edgeStyle=orthogonalEdgeStyle;rounded=0;orthogonalLoop=1;jettySize=auto;html=1;entryX=0;entryY=0.5;entryDx=0;entryDy=0;" edge="1" parent="1" source="LMtuo78VedRBWPzTzkMf-351" target="LMtuo78VedRBWPzTzkMf-331">
          <mxGeometry relative="1" as="geometry" />
        </mxCell>
        <mxCell id="LMtuo78VedRBWPzTzkMf-571" style="edgeStyle=orthogonalEdgeStyle;rounded=0;orthogonalLoop=1;jettySize=auto;html=1;entryX=0.604;entryY=1.155;entryDx=0;entryDy=0;entryPerimeter=0;" edge="1" parent="1" source="LMtuo78VedRBWPzTzkMf-392" target="LMtuo78VedRBWPzTzkMf-334">
          <mxGeometry relative="1" as="geometry">
            <Array as="points">
              <mxPoint x="1173" y="853" />
              <mxPoint x="1173" y="1069" />
              <mxPoint x="989" y="1069" />
            </Array>
          </mxGeometry>
        </mxCell>
        <mxCell id="LMtuo78VedRBWPzTzkMf-573" style="edgeStyle=orthogonalEdgeStyle;rounded=0;orthogonalLoop=1;jettySize=auto;html=1;entryX=0;entryY=0.5;entryDx=0;entryDy=0;exitX=-0.004;exitY=0.202;exitDx=0;exitDy=0;exitPerimeter=0;" edge="1" parent="1" source="LMtuo78VedRBWPzTzkMf-268" target="LMtuo78VedRBWPzTzkMf-399">
          <mxGeometry relative="1" as="geometry">
            <Array as="points">
              <mxPoint x="635" y="623" />
              <mxPoint x="635" y="1083" />
              <mxPoint x="1410" y="1083" />
              <mxPoint x="1410" y="632" />
            </Array>
          </mxGeometry>
        </mxCell>
        <mxCell id="LMtuo78VedRBWPzTzkMf-574" style="edgeStyle=orthogonalEdgeStyle;rounded=0;orthogonalLoop=1;jettySize=auto;html=1;entryX=0;entryY=0.5;entryDx=0;entryDy=0;" edge="1" parent="1" source="LMtuo78VedRBWPzTzkMf-309" target="LMtuo78VedRBWPzTzkMf-378">
          <mxGeometry relative="1" as="geometry">
            <Array as="points">
              <mxPoint x="934" y="66" />
              <mxPoint x="934" y="268" />
              <mxPoint x="1168" y="268" />
              <mxPoint x="1168" y="291" />
            </Array>
          </mxGeometry>
        </mxCell>
        <mxCell id="LMtuo78VedRBWPzTzkMf-577" style="edgeStyle=orthogonalEdgeStyle;rounded=0;orthogonalLoop=1;jettySize=auto;html=1;entryX=0;entryY=0.5;entryDx=0;entryDy=0;" edge="1" parent="1" source="LMtuo78VedRBWPzTzkMf-392" target="LMtuo78VedRBWPzTzkMf-445">
          <mxGeometry relative="1" as="geometry" />
        </mxCell>
        <mxCell id="LMtuo78VedRBWPzTzkMf-579" style="edgeStyle=orthogonalEdgeStyle;rounded=0;orthogonalLoop=1;jettySize=auto;html=1;entryX=1;entryY=0.5;entryDx=0;entryDy=0;" edge="1" parent="1" source="LMtuo78VedRBWPzTzkMf-466" target="LMtuo78VedRBWPzTzkMf-424">
          <mxGeometry relative="1" as="geometry" />
        </mxCell>
        <mxCell id="LMtuo78VedRBWPzTzkMf-580" style="edgeStyle=orthogonalEdgeStyle;rounded=0;orthogonalLoop=1;jettySize=auto;html=1;entryX=1;entryY=0.5;entryDx=0;entryDy=0;" edge="1" parent="1" source="LMtuo78VedRBWPzTzkMf-80" target="LMtuo78VedRBWPzTzkMf-8">
          <mxGeometry relative="1" as="geometry">
            <Array as="points">
              <mxPoint x="700" y="396" />
              <mxPoint x="549" y="396" />
              <mxPoint x="549" y="446" />
            </Array>
          </mxGeometry>
        </mxCell>
      </root>
    </mxGraphModel>
  </diagram>
</mxfile>
